Oxanium-Regular.ufo
<glyph name="exclam" format="2">
  <advance width="259.9016393442623"/>
  <unicode hex="0021"/>
  <outline>
    <contour>
      <point x="81.67213114754098" y="0.0" type="line"/>
      <point x="81.67213114754098" y="107.51639344262296" type="line"/>
      <point x="178.94262295081967" y="107.51639344262296" type="line"/>
      <point x="178.94262295081967" y="0.0" type="line"/>
    </contour>
    <contour>
      <point x="88.09016393442623" y="210.172131147541" type="line"/>
      <point x="88.09016393442623" y="690.0" type="line"/>
      <point x="172.2377049180328" y="690.0" type="line"/>
      <point x="172.2377049180328" y="210.172131147541" type="line"/>
    </contour>
  </outline>
</glyph>
<glyph name="numbersign" format="2">
  <advance width="669.8770491803278"/>
  <unicode hex="0023"/>
  <outline>
    <contour>
      <point x="50.0" y="189.65573770491804" type="line"/>
      <point x="50.0" y="260.344262295082" type="line"/>
      <point x="184.09016393442624" y="260.344262295082" type="line"/>
      <point x="184.09016393442624" y="429.655737704918" type="line"/>
      <point x="50.0" y="429.655737704918" type="line"/>
      <point x="50.0" y="500.344262295082" type="line"/>
      <point x="184.09016393442624" y="500.344262295082" type="line"/>
      <point x="184.09016393442624" y="690.0" type="line"/>
      <point x="258.5" y="690.0" type="line"/>
      <point x="258.5" y="500.344262295082" type="line"/>
      <point x="412.09016393442624" y="500.344262295082" type="line"/>
      <point x="412.09016393442624" y="690.0" type="line"/>
      <point x="486.5" y="690.0" type="line"/>
      <point x="486.5" y="500.344262295082" type="line"/>
      <point x="619.8770491803278" y="500.344262295082" type="line"/>
      <point x="619.8770491803278" y="429.655737704918" type="line"/>
      <point x="486.5" y="429.655737704918" type="line"/>
      <point x="486.5" y="260.344262295082" type="line"/>
      <point x="619.8770491803278" y="260.344262295082" type="line"/>
      <point x="619.8770491803278" y="189.65573770491804" type="line"/>
      <point x="486.5" y="189.65573770491804" type="line"/>
      <point x="486.5" y="0.0" type="line"/>
      <point x="412.09016393442624" y="0.0" type="line"/>
      <point x="412.09016393442624" y="189.65573770491804" type="line"/>
      <point x="258.5" y="189.65573770491804" type="line"/>
      <point x="258.5" y="0.0" type="line"/>
      <point x="184.09016393442624" y="0.0" type="line"/>
      <point x="184.09016393442624" y="189.65573770491804" type="line"/>
    </contour>
    <contour>
      <point x="258.5" y="260.344262295082" type="line"/>
      <point x="412.09016393442624" y="260.344262295082" type="line"/>
      <point x="412.09016393442624" y="429.655737704918" type="line"/>
      <point x="258.5" y="429.655737704918" type="line"/>
    </contour>
  </outline>
</glyph>
<glyph name="dollar" format="2">
  <advance width="578.0"/>
  <unicode hex="0024"/>
  <outline>
    <contour>
      <point x="68.82786885245902" y="35.040983606557376" type="line"/>
      <point x="68.82786885245902" y="76.41803278688525" type="line"/>
      <point x="356.9754098360656" y="76.41803278688525" type="line" smooth="yes"/>
      <point x="425.0245901639344" y="76.41803278688525"/>
      <point x="425.0245901639344" y="143.75409836065575" type="qcurve" smooth="yes"/>
      <point x="425.0245901639344" y="211.30327868852459" type="line" smooth="yes"/>
      <point x="425.0245901639344" y="268.09016393442624"/>
      <point x="373.8032786885246" y="277.9344262295082" type="qcurve" smooth="yes"/>
      <point x="178.85245901639345" y="317.0655737704918" type="line" smooth="yes"/>
      <point x="68.82786885245902" y="338.21311475409834"/>
      <point x="68.82786885245902" y="465.0983606557377" type="qcurve" smooth="yes"/>
      <point x="68.82786885245902" y="503.95081967213116" type="line" smooth="yes"/>
      <point x="68.82786885245902" y="660.0"/>
      <point x="217.70491803278688" y="660.0" type="qcurve" smooth="yes"/>
      <point x="253.79508196721312" y="660.0" type="line"/>
      <point x="253.79508196721312" y="780.0" type="line"/>
      <point x="324.2049180327869" y="780.0" type="line"/>
      <point x="324.2049180327869" y="660.0" type="line"/>
      <point x="443.9754098360656" y="660.0" type="line"/>
      <point x="489.172131147541" y="624.9590163934427" type="line"/>
      <point x="489.172131147541" y="583.5819672131148" type="line"/>
      <point x="221.02459016393442" y="583.5819672131148" type="line" smooth="yes"/>
      <point x="152.97540983606558" y="583.5819672131148"/>
      <point x="152.97540983606558" y="516.2459016393443" type="qcurve" smooth="yes"/>
      <point x="152.97540983606558" y="459.25409836065575" type="line" smooth="yes"/>
      <point x="152.97540983606558" y="401.75409836065575"/>
      <point x="204.19672131147541" y="391.90983606557376" type="qcurve" smooth="yes"/>
      <point x="399.1475409836066" y="352.91803278688525" type="line" smooth="yes"/>
      <point x="509.172131147541" y="330.4836065573771"/>
      <point x="509.172131147541" y="205.172131147541" type="qcurve" smooth="yes"/>
      <point x="509.172131147541" y="156.04918032786884" type="line" smooth="yes"/>
      <point x="509.172131147541" y="0.0"/>
      <point x="360.2950819672131" y="0.0" type="qcurve" smooth="yes"/>
      <point x="324.2049180327869" y="0.0" type="line"/>
      <point x="324.2049180327869" y="-120.0" type="line"/>
      <point x="253.79508196721312" y="-120.0" type="line"/>
      <point x="253.79508196721312" y="0.0" type="line"/>
      <point x="114.02459016393442" y="0.0" type="line"/>
    </contour>
  </outline>
</glyph>
<glyph name="ampersand" format="2">
  <advance width="659.7540983606557"/>
  <unicode hex="0026"/>
  <outline>
    <contour>
      <point x="70.12295081967213" y="150.172131147541" type="qcurve" smooth="yes"/>
      <point x="70.12295081967213" y="256.12295081967216" type="line" smooth="yes"/>
      <point x="70.12295081967213" y="308.12295081967216"/>
      <point x="103.12295081967213" y="336.12295081967216" type="qcurve" smooth="yes"/>
      <point x="145.12295081967213" y="371.12295081967216" type="line"/>
      <point x="110.12295081967213" y="413.12295081967216" type="line" smooth="yes"/>
      <point x="90.12295081967213" y="437.12295081967216"/>
      <point x="90.12295081967213" y="471.12295081967216" type="qcurve" smooth="yes"/>
      <point x="90.12295081967213" y="539.827868852459" type="line" smooth="yes"/>
      <point x="90.12295081967213" y="690.0"/>
      <point x="240.29508196721312" y="690.0" type="qcurve" smooth="yes"/>
      <point x="429.7049180327869" y="690.0" type="line"/>
      <point x="469.75409836065575" y="660.1065573770492" type="line"/>
      <point x="469.75409836065575" y="619.8770491803278" type="line"/>
      <point x="240.172131147541" y="619.8770491803278" type="line" smooth="yes"/>
      <point x="170.12295081967213" y="619.8770491803278"/>
      <point x="170.12295081967213" y="549.827868852459" type="qcurve" smooth="yes"/>
      <point x="170.12295081967213" y="470.0983606557377" type="line" smooth="yes"/>
      <point x="170.12295081967213" y="400.04918032786884"/>
      <point x="240.172131147541" y="400.04918032786884" type="qcurve" smooth="yes"/>
      <point x="619.7540983606557" y="400.04918032786884" type="line"/>
      <point x="619.7540983606557" y="329.92622950819674" type="line"/>
      <point x="519.7540983606557" y="329.92622950819674" type="line"/>
      <point x="519.7540983606557" y="0.0" type="line"/>
      <point x="220.29508196721312" y="0.0" type="line" smooth="yes"/>
      <point x="70.12295081967213" y="0.0"/>
    </contour>
    <contour>
      <point x="150.12295081967213" y="140.172131147541" type="line" smooth="yes"/>
      <point x="150.12295081967213" y="70.12295081967213"/>
      <point x="220.172131147541" y="70.12295081967213" type="qcurve" smooth="yes"/>
      <point x="439.75409836065575" y="70.12295081967213" type="line"/>
      <point x="439.75409836065575" y="329.92622950819674" type="line"/>
      <point x="220.172131147541" y="329.92622950819674" type="line" smooth="yes"/>
      <point x="150.12295081967213" y="329.92622950819674"/>
      <point x="150.12295081967213" y="259.87704918032784" type="qcurve" smooth="yes"/>
    </contour>
  </outline>
</glyph>
<glyph name="quotesingle" format="2">
  <advance width="214.36885245901638"/>
  <unicode hex="0027"/>
  <outline>
    <contour>
      <point x="70.12295081967213" y="489.95081967213116" type="line"/>
      <point x="70.12295081967213" y="740.0" type="line"/>
      <point x="144.24590163934425" y="740.0" type="line"/>
      <point x="144.24590163934425" y="489.95081967213116" type="line"/>
    </contour>
  </outline>
</glyph>
<glyph name="parenleft" format="2">
  <advance width="310.6639344262295"/>
  <unicode hex="0028"/>
  <outline>
    <contour>
      <point x="229.84426229508196" y="770.0245901639345" type="qcurve"/>
      <point x="290.0983606557377" y="724.2295081967213" type="line"/>
      <point x="151.69672131147541" y="533.2540983606557"/>
      <point x="151.69672131147541" y="46.74590163934426"/>
      <point x="290.0983606557377" y="-144.22950819672133" type="qcurve"/>
      <point x="229.84426229508196" y="-190.02459016393442" type="line"/>
      <point x="71.69672131147541" y="23.131147540983605"/>
      <point x="71.69672131147541" y="556.8688524590164"/>
    </contour>
  </outline>
</glyph>
<glyph name="parenright" format="2">
  <advance width="310.6639344262295"/>
  <unicode hex="0029"/>
  <outline>
    <contour>
      <point x="20.565573770491802" y="-144.22950819672133" type="line"/>
      <point x="158.9672131147541" y="46.74590163934426"/>
      <point x="158.9672131147541" y="533.2540983606557"/>
      <point x="20.565573770491802" y="724.2295081967213" type="qcurve"/>
      <point x="80.5327868852459" y="770.0245901639345" type="line"/>
      <point x="238.9672131147541" y="556.8688524590164"/>
      <point x="238.9672131147541" y="23.131147540983605"/>
      <point x="80.5327868852459" y="-190.02459016393442" type="qcurve"/>
    </contour>
  </outline>
</glyph>
<glyph name="asterisk" format="2">
  <advance width="500.3196721311475"/>
  <unicode hex="002A"/>
  <outline>
    <contour>
      <point x="41.0" y="516.0901639344262" type="line"/>
      <point x="60.0327868852459" y="572.6229508196722" type="line"/>
      <point x="218.10655737704917" y="525.0737704918033" type="line"/>
      <point x="218.10655737704917" y="690.0" type="line"/>
      <point x="282.5" y="690.0" type="line"/>
      <point x="282.5" y="525.0737704918033" type="line"/>
      <point x="439.8606557377049" y="572.6229508196722" type="line"/>
      <point x="459.3196721311475" y="516.0901639344262" type="line"/>
      <point x="303.24590163934425" y="462.827868852459" type="line"/>
      <point x="398.2049180327869" y="328.172131147541" type="line"/>
      <point x="348.9754098360656" y="292.6803278688525" type="line"/>
      <point x="250.01639344262296" y="423.1967213114754" type="line"/>
      <point x="151.34426229508196" y="292.6803278688525" type="line"/>
      <point x="102.40163934426229" y="328.172131147541" type="line"/>
      <point x="197.0737704918033" y="462.827868852459" type="line"/>
    </contour>
  </outline>
</glyph>
<glyph name="plus" format="2">
  <advance width="578.0"/>
  <unicode hex="002B"/>
  <outline>
    <contour>
      <point x="63.704918032786885" y="299.655737704918" type="line"/>
      <point x="63.704918032786885" y="370.344262295082" type="line"/>
      <point x="251.79508196721312" y="370.344262295082" type="line"/>
      <point x="251.79508196721312" y="570.0" type="line"/>
      <point x="326.2049180327869" y="570.0" type="line"/>
      <point x="326.2049180327869" y="370.344262295082" type="line"/>
      <point x="514.2950819672132" y="370.344262295082" type="line"/>
      <point x="514.2950819672132" y="299.655737704918" type="line"/>
      <point x="326.2049180327869" y="299.655737704918" type="line"/>
      <point x="326.2049180327869" y="100.0" type="line"/>
      <point x="251.79508196721312" y="100.0" type="line"/>
      <point x="251.79508196721312" y="299.655737704918" type="line"/>
    </contour>
  </outline>
</glyph>
<glyph name="comma" format="2">
  <advance width="259.9016393442623"/>
  <unicode hex="002C"/>
  <outline>
    <contour>
      <point x="31.975409836065573" y="-125.42622950819673" type="line"/>
      <point x="87.98360655737704" y="107.51639344262296" type="line"/>
      <point x="169.10655737704917" y="107.51639344262296" type="line"/>
      <point x="178.2622950819672" y="93.21311475409836" type="line"/>
      <point x="93.64754098360656" y="-140.02459016393442" type="line"/>
    </contour>
  </outline>
</glyph>
<glyph name="hyphen" format="2">
  <advance width="360.04918032786884"/>
  <unicode hex="002D"/>
  <outline>
    <contour>
      <point x="40.0" y="269.655737704918" type="line"/>
      <point x="40.0" y="340.344262295082" type="line"/>
      <point x="320.04918032786884" y="340.344262295082" type="line"/>
      <point x="320.04918032786884" y="269.655737704918" type="line"/>
    </contour>
  </outline>
</glyph>
<glyph name="period" format="2">
  <advance width="259.9016393442623"/>
  <unicode hex="002E"/>
  <outline>
    <contour>
      <point x="81.67213114754098" y="0.0" type="line"/>
      <point x="81.67213114754098" y="107.51639344262296" type="line"/>
      <point x="178.94262295081967" y="107.51639344262296" type="line"/>
      <point x="178.94262295081967" y="0.0" type="line"/>
    </contour>
  </outline>
</glyph>
<glyph name="one" format="2">
  <advance width="578.0"/>
  <unicode hex="0031"/>
  <outline>
    <contour>
      <point x="91.82786885245902" y="0.0" type="line"/>
      <point x="91.82786885245902" y="76.41803278688525" type="line"/>
      <point x="262.92622950819674" y="76.41803278688525" type="line"/>
      <point x="262.92622950819674" y="613.5819672131148" type="line"/>
      <point x="126.80327868852459" y="613.5819672131148" type="line"/>
      <point x="126.80327868852459" y="654.9590163934427" type="line"/>
      <point x="172.0" y="690.0" type="line"/>
      <point x="347.07377049180326" y="690.0" type="line"/>
      <point x="347.07377049180326" y="76.41803278688525" type="line"/>
      <point x="502.172131147541" y="76.41803278688525" type="line"/>
      <point x="502.172131147541" y="0.0" type="line"/>
    </contour>
  </outline>
</glyph>
<glyph name="two" format="2">
  <advance width="578.0"/>
  <unicode hex="0032"/>
  <outline>
    <contour>
      <point x="63.82786885245902" y="0.0" type="line"/>
      <point x="63.82786885245902" y="209.89344262295083" type="line" smooth="yes"/>
      <point x="63.82786885245902" y="335.77868852459017"/>
      <point x="173.85245901639345" y="357.92622950819674" type="qcurve" smooth="yes"/>
      <point x="378.8032786885246" y="399.344262295082" type="line" smooth="yes"/>
      <point x="430.0245901639344" y="409.4754098360656"/>
      <point x="430.0245901639344" y="465.9754098360656" type="qcurve" smooth="yes"/>
      <point x="430.0245901639344" y="546.2459016393443" type="line" smooth="yes"/>
      <point x="430.0245901639344" y="613.5819672131148"/>
      <point x="361.9754098360656" y="613.5819672131148" type="qcurve" smooth="yes"/>
      <point x="83.82786885245902" y="613.5819672131148" type="line"/>
      <point x="83.82786885245902" y="654.9590163934427" type="line"/>
      <point x="129.02459016393442" y="690.0" type="line"/>
      <point x="360.9918032786885" y="690.0" type="line" smooth="yes"/>
      <point x="514.172131147541" y="690.0"/>
      <point x="514.172131147541" y="536.8196721311475" type="qcurve" smooth="yes"/>
      <point x="514.172131147541" y="472.10655737704917" type="line" smooth="yes"/>
      <point x="514.172131147541" y="346.22131147540983"/>
      <point x="404.1475409836066" y="324.07377049180326" type="qcurve" smooth="yes"/>
      <point x="199.19672131147541" y="282.655737704918" type="line" smooth="yes"/>
      <point x="147.97540983606558" y="272.5245901639344"/>
      <point x="147.97540983606558" y="216.02459016393442" type="qcurve" smooth="yes"/>
      <point x="147.97540983606558" y="76.41803278688525" type="line"/>
      <point x="514.172131147541" y="76.41803278688525" type="line"/>
      <point x="514.172131147541" y="0.0" type="line"/>
    </contour>
  </outline>
</glyph>
<glyph name="three" format="2">
  <advance width="578.0"/>
  <unicode hex="0033"/>
  <outline>
    <contour>
      <point x="73.82786885245902" y="35.040983606557376" type="line"/>
      <point x="73.82786885245902" y="76.41803278688525" type="line"/>
      <point x="361.9754098360656" y="76.41803278688525" type="line" smooth="yes"/>
      <point x="430.0245901639344" y="76.41803278688525"/>
      <point x="430.0245901639344" y="143.75409836065575" type="qcurve" smooth="yes"/>
      <point x="430.0245901639344" y="256.2950819672131" type="line" smooth="yes"/>
      <point x="430.0245901639344" y="323.6311475409836"/>
      <point x="361.9754098360656" y="323.6311475409836" type="qcurve" smooth="yes"/>
      <point x="147.827868852459" y="323.6311475409836" type="line"/>
      <point x="147.827868852459" y="400.04918032786884" type="line"/>
      <point x="361.9754098360656" y="400.04918032786884" type="line" smooth="yes"/>
      <point x="430.0245901639344" y="400.04918032786884"/>
      <point x="430.0245901639344" y="468.0983606557377" type="qcurve" smooth="yes"/>
      <point x="430.0245901639344" y="546.2459016393443" type="line" smooth="yes"/>
      <point x="430.0245901639344" y="613.5819672131148"/>
      <point x="361.9754098360656" y="613.5819672131148" type="qcurve" smooth="yes"/>
      <point x="83.82786885245902" y="613.5819672131148" type="line"/>
      <point x="83.82786885245902" y="654.9590163934427" type="line"/>
      <point x="129.02459016393442" y="690.0" type="line"/>
      <point x="360.9918032786885" y="690.0" type="line" smooth="yes"/>
      <point x="514.172131147541" y="690.0"/>
      <point x="514.172131147541" y="536.8196721311475" type="qcurve" smooth="yes"/>
      <point x="514.172131147541" y="464.2704918032787" type="line" smooth="yes"/>
      <point x="514.172131147541" y="424.2704918032787"/>
      <point x="489.172131147541" y="399.2704918032787" type="qcurve" smooth="yes"/>
      <point x="454.172131147541" y="364.2704918032787" type="line"/>
      <point x="489.172131147541" y="329.2704918032787" type="line" smooth="yes"/>
      <point x="514.172131147541" y="304.2704918032787"/>
      <point x="514.172131147541" y="264.2704918032787" type="qcurve" smooth="yes"/>
      <point x="514.172131147541" y="153.18032786885246" type="line" smooth="yes"/>
      <point x="514.172131147541" y="0.0"/>
      <point x="360.9918032786885" y="0.0" type="qcurve" smooth="yes"/>
      <point x="119.02459016393442" y="0.0" type="line"/>
    </contour>
  </outline>
</glyph>
<glyph name="four" format="2">
  <advance width="578.0"/>
  <unicode hex="0034"/>
  <outline>
    <contour>
      <point x="63.82786885245902" y="128.64754098360655" type="line"/>
      <point x="63.82786885245902" y="198.62295081967213" type="line"/>
      <point x="294.77868852459017" y="690.0" type="line"/>
      <point x="365.04918032786884" y="690.0" type="line"/>
      <point x="375.77868852459017" y="669.9754098360655" type="line"/>
      <point x="156.84426229508196" y="205.35245901639345" type="line"/>
      <point x="430.0245901639344" y="205.35245901639345" type="line"/>
      <point x="430.0245901639344" y="430.0" type="line"/>
      <point x="514.172131147541" y="430.0" type="line"/>
      <point x="514.172131147541" y="0.0" type="line"/>
      <point x="430.0245901639344" y="0.0" type="line"/>
      <point x="430.0245901639344" y="128.64754098360655" type="line"/>
    </contour>
  </outline>
</glyph>
<glyph name="five" format="2">
  <advance width="578.0"/>
  <unicode hex="0035"/>
  <outline>
    <contour>
      <point x="53.82786885245902" y="35.040983606557376" type="line"/>
      <point x="53.82786885245902" y="76.41803278688525" type="line"/>
      <point x="361.9754098360656" y="76.41803278688525" type="line" smooth="yes"/>
      <point x="430.0245901639344" y="76.41803278688525"/>
      <point x="430.0245901639344" y="143.75409836065575" type="qcurve" smooth="yes"/>
      <point x="430.0245901639344" y="266.2950819672131" type="line" smooth="yes"/>
      <point x="430.0245901639344" y="333.6311475409836"/>
      <point x="361.9754098360656" y="333.6311475409836" type="qcurve" smooth="yes"/>
      <point x="63.82786885245902" y="333.6311475409836" type="line"/>
      <point x="63.82786885245902" y="690.0" type="line"/>
      <point x="484.172131147541" y="690.0" type="line"/>
      <point x="484.172131147541" y="613.5819672131148" type="line"/>
      <point x="147.97540983606558" y="613.5819672131148" type="line"/>
      <point x="147.97540983606558" y="410.04918032786884" type="line"/>
      <point x="360.9918032786885" y="410.04918032786884" type="line" smooth="yes"/>
      <point x="514.172131147541" y="410.04918032786884"/>
      <point x="514.172131147541" y="256.8688524590164" type="qcurve" smooth="yes"/>
      <point x="514.172131147541" y="153.18032786885246" type="line" smooth="yes"/>
      <point x="514.172131147541" y="0.0"/>
      <point x="360.9918032786885" y="0.0" type="qcurve" smooth="yes"/>
      <point x="99.02459016393442" y="0.0" type="line"/>
    </contour>
  </outline>
</glyph>
<glyph name="six" format="2">
  <advance width="578.0"/>
  <unicode hex="0036"/>
  <outline>
    <contour>
      <point x="63.82786885245902" y="153.18032786885246" type="qcurve" smooth="yes"/>
      <point x="63.82786885245902" y="506.0983606557377" type="line" smooth="yes"/>
      <point x="63.82786885245902" y="690.0"/>
      <point x="247.7295081967213" y="690.0" type="qcurve" smooth="yes"/>
      <point x="428.9754098360656" y="690.0" type="line"/>
      <point x="474.172131147541" y="654.9590163934427" type="line"/>
      <point x="474.172131147541" y="613.5819672131148" type="line"/>
      <point x="243.7295081967213" y="613.5819672131148" type="line" smooth="yes"/>
      <point x="147.97540983606558" y="613.5819672131148"/>
      <point x="147.97540983606558" y="517.827868852459" type="qcurve" smooth="yes"/>
      <point x="147.97540983606558" y="410.04918032786884" type="line"/>
      <point x="360.9918032786885" y="410.04918032786884" type="line" smooth="yes"/>
      <point x="514.172131147541" y="410.04918032786884"/>
      <point x="514.172131147541" y="256.8688524590164" type="qcurve" smooth="yes"/>
      <point x="514.172131147541" y="153.18032786885246" type="line" smooth="yes"/>
      <point x="514.172131147541" y="0.0"/>
      <point x="360.9918032786885" y="0.0" type="qcurve" smooth="yes"/>
      <point x="217.00819672131146" y="0.0" type="line" smooth="yes"/>
      <point x="63.82786885245902" y="0.0"/>
    </contour>
    <contour>
      <point x="147.97540983606558" y="143.75409836065575" type="line" smooth="yes"/>
      <point x="147.97540983606558" y="76.41803278688525"/>
      <point x="216.02459016393442" y="76.41803278688525" type="qcurve" smooth="yes"/>
      <point x="361.9754098360656" y="76.41803278688525" type="line" smooth="yes"/>
      <point x="430.0245901639344" y="76.41803278688525"/>
      <point x="430.0245901639344" y="143.75409836065575" type="qcurve" smooth="yes"/>
      <point x="430.0245901639344" y="266.2950819672131" type="line" smooth="yes"/>
      <point x="430.0245901639344" y="333.6311475409836"/>
      <point x="361.9754098360656" y="333.6311475409836" type="qcurve" smooth="yes"/>
      <point x="147.97540983606558" y="333.6311475409836" type="line"/>
    </contour>
  </outline>
</glyph>
<glyph name="seven" format="2">
  <advance width="578.0"/>
  <unicode hex="0037"/>
  <outline>
    <contour>
      <point x="63.82786885245902" y="613.5819672131148" type="line"/>
      <point x="63.82786885245902" y="690.0" type="line"/>
      <point x="514.172131147541" y="690.0" type="line"/>
      <point x="514.172131147541" y="514.9016393442623" type="line"/>
      <point x="244.08196721311475" y="0.0" type="line"/>
      <point x="169.37704918032787" y="0.0" type="line"/>
      <point x="157.9344262295082" y="20.024590163934427" type="line"/>
      <point x="430.0245901639344" y="533.5" type="line"/>
      <point x="430.0245901639344" y="613.5819672131148" type="line"/>
    </contour>
  </outline>
</glyph>
<glyph name="eight" format="2">
  <advance width="578.0"/>
  <unicode hex="0038"/>
  <outline>
    <contour>
      <point x="63.82786885245902" y="153.18032786885246" type="qcurve" smooth="yes"/>
      <point x="63.82786885245902" y="263.9836065573771" type="line" smooth="yes"/>
      <point x="63.82786885245902" y="303.9836065573771"/>
      <point x="88.82786885245902" y="328.6967213114754" type="qcurve" smooth="yes"/>
      <point x="123.82786885245902" y="363.9836065573771" type="line"/>
      <point x="88.82786885245902" y="398.6967213114754" type="line" smooth="yes"/>
      <point x="63.82786885245902" y="423.9836065573771"/>
      <point x="63.82786885245902" y="463.9836065573771" type="qcurve" smooth="yes"/>
      <point x="63.82786885245902" y="536.8196721311475" type="line" smooth="yes"/>
      <point x="63.82786885245902" y="690.0"/>
      <point x="217.00819672131146" y="690.0" type="qcurve" smooth="yes"/>
      <point x="360.9918032786885" y="690.0" type="line" smooth="yes"/>
      <point x="514.172131147541" y="690.0"/>
      <point x="514.172131147541" y="536.8196721311475" type="qcurve" smooth="yes"/>
      <point x="514.172131147541" y="463.9836065573771" type="line" smooth="yes"/>
      <point x="514.172131147541" y="423.9836065573771"/>
      <point x="489.172131147541" y="398.6967213114754" type="qcurve" smooth="yes"/>
      <point x="454.172131147541" y="363.9836065573771" type="line"/>
      <point x="489.172131147541" y="328.6967213114754" type="line" smooth="yes"/>
      <point x="514.172131147541" y="303.9836065573771"/>
      <point x="514.172131147541" y="263.9836065573771" type="qcurve" smooth="yes"/>
      <point x="514.172131147541" y="153.18032786885246" type="line" smooth="yes"/>
      <point x="514.172131147541" y="0.0"/>
      <point x="360.9918032786885" y="0.0" type="qcurve" smooth="yes"/>
      <point x="217.00819672131146" y="0.0" type="line" smooth="yes"/>
      <point x="63.82786885245902" y="0.0"/>
    </contour>
    <contour>
      <point x="147.97540983606558" y="143.75409836065575" type="line" smooth="yes"/>
      <point x="147.97540983606558" y="76.41803278688525"/>
      <point x="216.02459016393442" y="76.41803278688525" type="qcurve" smooth="yes"/>
      <point x="361.9754098360656" y="76.41803278688525" type="line" smooth="yes"/>
      <point x="430.0245901639344" y="76.41803278688525"/>
      <point x="430.0245901639344" y="143.75409836065575" type="qcurve" smooth="yes"/>
      <point x="430.0245901639344" y="256.2950819672131" type="line" smooth="yes"/>
      <point x="430.0245901639344" y="323.6311475409836"/>
      <point x="361.9754098360656" y="323.6311475409836" type="qcurve" smooth="yes"/>
      <point x="216.02459016393442" y="323.6311475409836" type="line" smooth="yes"/>
      <point x="147.97540983606558" y="323.6311475409836"/>
      <point x="147.97540983606558" y="256.2950819672131" type="qcurve" smooth="yes"/>
    </contour>
    <contour>
      <point x="147.97540983606558" y="468.0983606557377" type="line" smooth="yes"/>
      <point x="147.97540983606558" y="400.04918032786884"/>
      <point x="216.02459016393442" y="400.04918032786884" type="qcurve" smooth="yes"/>
      <point x="361.9754098360656" y="400.04918032786884" type="line" smooth="yes"/>
      <point x="430.0245901639344" y="400.04918032786884"/>
      <point x="430.0245901639344" y="468.0983606557377" type="qcurve" smooth="yes"/>
      <point x="430.0245901639344" y="546.2459016393443" type="line" smooth="yes"/>
      <point x="430.0245901639344" y="613.5819672131148"/>
      <point x="361.9754098360656" y="613.5819672131148" type="qcurve" smooth="yes"/>
      <point x="216.02459016393442" y="613.5819672131148" type="line" smooth="yes"/>
      <point x="147.97540983606558" y="613.5819672131148"/>
      <point x="147.97540983606558" y="546.2459016393443" type="qcurve" smooth="yes"/>
    </contour>
  </outline>
</glyph>
<glyph name="nine" format="2">
  <advance width="578.0"/>
  <unicode hex="0039"/>
  <outline>
    <contour>
      <point x="63.82786885245902" y="432.844262295082" type="qcurve" smooth="yes"/>
      <point x="63.82786885245902" y="536.8196721311475" type="line" smooth="yes"/>
      <point x="63.82786885245902" y="690.0"/>
      <point x="217.00819672131146" y="690.0" type="qcurve" smooth="yes"/>
      <point x="360.9918032786885" y="690.0" type="line" smooth="yes"/>
      <point x="514.172131147541" y="690.0"/>
      <point x="514.172131147541" y="536.8196721311475" type="qcurve" smooth="yes"/>
      <point x="514.172131147541" y="183.9016393442623" type="line" smooth="yes"/>
      <point x="514.172131147541" y="0.0"/>
      <point x="330.2704918032787" y="0.0" type="qcurve" smooth="yes"/>
      <point x="139.02459016393442" y="0.0" type="line"/>
      <point x="93.82786885245902" y="35.040983606557376" type="line"/>
      <point x="93.82786885245902" y="76.41803278688525" type="line"/>
      <point x="334.2704918032787" y="76.41803278688525" type="line" smooth="yes"/>
      <point x="430.0245901639344" y="76.41803278688525"/>
      <point x="430.0245901639344" y="172.172131147541" type="qcurve" smooth="yes"/>
      <point x="430.0245901639344" y="279.95081967213116" type="line"/>
      <point x="217.00819672131146" y="279.95081967213116" type="line" smooth="yes"/>
      <point x="63.82786885245902" y="279.95081967213116"/>
    </contour>
    <contour>
      <point x="147.97540983606558" y="424.41803278688525" type="line" smooth="yes"/>
      <point x="147.97540983606558" y="356.3688524590164"/>
      <point x="216.02459016393442" y="356.3688524590164" type="qcurve" smooth="yes"/>
      <point x="430.0245901639344" y="356.3688524590164" type="line"/>
      <point x="430.0245901639344" y="546.2459016393443" type="line" smooth="yes"/>
      <point x="430.0245901639344" y="613.5819672131148"/>
      <point x="361.9754098360656" y="613.5819672131148" type="qcurve" smooth="yes"/>
      <point x="216.02459016393442" y="613.5819672131148" type="line" smooth="yes"/>
      <point x="147.97540983606558" y="613.5819672131148"/>
      <point x="147.97540983606558" y="546.2459016393443" type="qcurve" smooth="yes"/>
    </contour>
  </outline>
</glyph>
<glyph name="less" format="2">
  <advance width="578.0"/>
  <unicode hex="003C"/>
  <outline>
    <contour>
      <point x="64.0" y="296.22131147540983" type="line"/>
      <point x="64.0" y="373.77868852459017" type="line"/>
      <point x="483.9754098360656" y="574.6229508196722" type="line"/>
      <point x="514.0245901639345" y="512.0901639344262" type="line"/>
      <point x="135.9918032786885" y="335.0" type="line"/>
      <point x="514.0245901639345" y="157.90983606557376" type="line"/>
      <point x="483.9754098360656" y="95.37704918032787" type="line"/>
    </contour>
  </outline>
</glyph>
<glyph name="equal" format="2">
  <advance width="578.0"/>
  <unicode hex="003D"/>
  <outline>
    <contour>
      <point x="63.704918032786885" y="189.65573770491804" type="line"/>
      <point x="63.704918032786885" y="260.344262295082" type="line"/>
      <point x="514.2950819672132" y="260.344262295082" type="line"/>
      <point x="514.2950819672132" y="189.65573770491804" type="line"/>
    </contour>
    <contour>
      <point x="63.704918032786885" y="409.655737704918" type="line"/>
      <point x="63.704918032786885" y="480.344262295082" type="line"/>
      <point x="514.2950819672132" y="480.344262295082" type="line"/>
      <point x="514.2950819672132" y="409.655737704918" type="line"/>
    </contour>
  </outline>
</glyph>
<glyph name="greater" format="2">
  <advance width="578.0"/>
  <unicode hex="003E"/>
  <outline>
    <contour>
      <point x="63.97540983606557" y="157.90983606557376" type="line"/>
      <point x="442.0081967213115" y="335.0" type="line"/>
      <point x="63.97540983606557" y="512.0901639344262" type="line"/>
      <point x="94.02459016393442" y="574.6229508196722" type="line"/>
      <point x="514.0" y="373.77868852459017" type="line"/>
      <point x="514.0" y="296.22131147540983" type="line"/>
      <point x="94.02459016393442" y="95.37704918032787" type="line"/>
    </contour>
  </outline>
</glyph>
<glyph name="question" format="2">
  <advance width="500.344262295082"/>
  <unicode hex="003F"/>
  <outline>
    <contour>
      <point x="40.0" y="613.5819672131148" type="line"/>
      <point x="40.0" y="654.9590163934427" type="line"/>
      <point x="85.19672131147541" y="690.0" type="line"/>
      <point x="297.1639344262295" y="690.0" type="line" smooth="yes"/>
      <point x="450.344262295082" y="690.0"/>
      <point x="450.344262295082" y="536.8196721311475" type="qcurve" smooth="yes"/>
      <point x="450.344262295082" y="449.7049180327869" type="line" smooth="yes"/>
      <point x="450.344262295082" y="293.655737704918"/>
      <point x="300.3196721311475" y="293.655737704918" type="qcurve" smooth="yes"/>
      <point x="254.24590163934425" y="293.655737704918" type="line"/>
      <point x="254.24590163934425" y="210.172131147541" type="line"/>
      <point x="170.0983606557377" y="210.172131147541" type="line"/>
      <point x="170.0983606557377" y="370.07377049180326" type="line"/>
      <point x="298.1475409836066" y="370.07377049180326" type="line" smooth="yes"/>
      <point x="366.1967213114754" y="370.07377049180326"/>
      <point x="366.1967213114754" y="438.12295081967216" type="qcurve" smooth="yes"/>
      <point x="366.1967213114754" y="546.2459016393443" type="line" smooth="yes"/>
      <point x="366.1967213114754" y="613.5819672131148"/>
      <point x="298.1475409836066" y="613.5819672131148" type="qcurve" smooth="yes"/>
    </contour>
    <contour>
      <point x="163.39344262295083" y="0.0" type="line"/>
      <point x="163.39344262295083" y="107.51639344262296" type="line"/>
      <point x="260.95081967213116" y="107.51639344262296" type="line"/>
      <point x="260.95081967213116" y="0.0" type="line"/>
    </contour>
  </outline>
</glyph>
<glyph name="at" format="2">
  <advance width="799.8770491803278"/>
  <unicode hex="0040"/>
  <outline>
    <contour>
      <point x="90.12295081967213" y="7.163934426229508" type="qcurve" smooth="yes"/>
      <point x="90.12295081967213" y="542.8360655737705" type="line" smooth="yes"/>
      <point x="90.12295081967213" y="690.0"/>
      <point x="236.5737704918033" y="690.0" type="qcurve" smooth="yes"/>
      <point x="709.7540983606557" y="690.0" type="line"/>
      <point x="709.7540983606557" y="60.0" type="line"/>
      <point x="460.2950819672131" y="60.0" type="line" smooth="yes"/>
      <point x="310.12295081967216" y="60.0"/>
      <point x="310.12295081967216" y="210.172131147541" type="qcurve" smooth="yes"/>
      <point x="310.12295081967216" y="339.827868852459" type="line" smooth="yes"/>
      <point x="310.12295081967216" y="490.0"/>
      <point x="460.2950819672131" y="490.0" type="qcurve" smooth="yes"/>
      <point x="635.6311475409836" y="490.0" type="line"/>
      <point x="635.6311475409836" y="625.6065573770492" type="line"/>
      <point x="236.86885245901638" y="625.6065573770492" type="line" smooth="yes"/>
      <point x="164.24590163934425" y="625.6065573770492"/>
      <point x="164.24590163934425" y="552.6967213114754" type="qcurve" smooth="yes"/>
      <point x="164.24590163934425" y="-2.69672131147541" type="line" smooth="yes"/>
      <point x="164.24590163934425" y="-75.60655737704919"/>
      <point x="236.86885245901638" y="-75.60655737704919" type="qcurve" smooth="yes"/>
      <point x="689.7540983606557" y="-75.60655737704919" type="line"/>
      <point x="689.7540983606557" y="-110.10655737704919" type="line"/>
      <point x="649.7049180327868" y="-140.0" type="line"/>
      <point x="236.5737704918033" y="-140.0" type="line" smooth="yes"/>
      <point x="90.12295081967213" y="-140.0"/>
    </contour>
    <contour>
      <point x="390.12295081967216" y="200.172131147541" type="line" smooth="yes"/>
      <point x="390.12295081967216" y="130.12295081967213"/>
      <point x="460.172131147541" y="130.12295081967213" type="qcurve" smooth="yes"/>
      <point x="629.7540983606557" y="130.12295081967213" type="line"/>
      <point x="629.7540983606557" y="419.87704918032784" type="line"/>
      <point x="460.172131147541" y="419.87704918032784" type="line" smooth="yes"/>
      <point x="390.12295081967216" y="419.87704918032784"/>
      <point x="390.12295081967216" y="349.827868852459" type="qcurve" smooth="yes"/>
    </contour>
  </outline>
</glyph>
<glyph name="A" format="2">
  <advance width="629.8032786885246"/>
  <unicode hex="0041"/>
  <outline>
    <contour>
      <point x="19.852459016393443" y="18.450819672131146" type="line"/>
      <point x="246.22950819672133" y="690.0" type="line"/>
      <point x="384.28688524590166" y="690.0" type="line"/>
      <point x="609.9508196721312" y="18.450819672131146" type="line"/>
      <point x="598.2213114754098" y="0.0" type="line"/>
      <point x="528.5245901639345" y="0.0" type="line"/>
      <point x="471.7049180327869" y="173.63114754098362" type="line"/>
      <point x="158.0983606557377" y="173.63114754098362" type="line"/>
      <point x="101.27868852459017" y="0.0" type="line"/>
      <point x="32.295081967213115" y="0.0" type="line"/>
    </contour>
    <contour>
      <point x="183.41803278688525" y="250.04918032786884" type="line"/>
      <point x="447.0983606557377" y="250.04918032786884" type="line"/>
      <point x="327.3196721311475" y="613.5819672131148" type="line"/>
      <point x="303.1967213114754" y="613.5819672131148" type="line"/>
    </contour>
  </outline>
</glyph>
<glyph name="B" format="2">
  <advance width="643.8770491803278"/>
  <unicode hex="0042"/>
  <outline>
    <contour>
      <point x="90.12295081967213" y="0.0" type="line"/>
      <point x="90.12295081967213" y="690.0" type="line"/>
      <point x="406.57377049180326" y="690.0" type="line" smooth="yes"/>
      <point x="559.7540983606557" y="690.0"/>
      <point x="559.7540983606557" y="536.8196721311475" type="qcurve" smooth="yes"/>
      <point x="559.7540983606557" y="468.2704918032787" type="line" smooth="yes"/>
      <point x="559.7540983606557" y="434.2704918032787"/>
      <point x="539.7540983606557" y="410.2704918032787" type="qcurve" smooth="yes"/>
      <point x="504.75409836065575" y="368.2704918032787" type="line"/>
      <point x="546.7540983606557" y="333.2704918032787" type="line" smooth="yes"/>
      <point x="579.7540983606557" y="306.2704918032787"/>
      <point x="579.7540983606557" y="253.2704918032787" type="qcurve" smooth="yes"/>
      <point x="579.7540983606557" y="153.18032786885246" type="line" smooth="yes"/>
      <point x="579.7540983606557" y="0.0"/>
      <point x="426.57377049180326" y="0.0" type="qcurve" smooth="yes"/>
    </contour>
    <contour>
      <point x="174.27049180327867" y="76.41803278688525" type="line"/>
      <point x="428.2704918032787" y="76.41803278688525" type="line" smooth="yes"/>
      <point x="495.60655737704917" y="76.41803278688525"/>
      <point x="495.60655737704917" y="143.75409836065575" type="qcurve" smooth="yes"/>
      <point x="495.60655737704917" y="256.2950819672131" type="line" smooth="yes"/>
      <point x="495.60655737704917" y="323.6311475409836"/>
      <point x="428.2704918032787" y="323.6311475409836" type="qcurve" smooth="yes"/>
      <point x="174.27049180327867" y="323.6311475409836" type="line"/>
    </contour>
    <contour>
      <point x="174.27049180327867" y="400.04918032786884" type="line"/>
      <point x="408.2704918032787" y="400.04918032786884" type="line" smooth="yes"/>
      <point x="475.60655737704917" y="400.04918032786884"/>
      <point x="475.60655737704917" y="468.0983606557377" type="qcurve" smooth="yes"/>
      <point x="475.60655737704917" y="546.2459016393443" type="line" smooth="yes"/>
      <point x="475.60655737704917" y="613.5819672131148"/>
      <point x="408.2704918032787" y="613.5819672131148" type="qcurve" smooth="yes"/>
      <point x="174.27049180327867" y="613.5819672131148" type="line"/>
    </contour>
  </outline>
</glyph>
<glyph name="C" format="2">
  <advance width="610.3196721311475"/>
  <unicode hex="0043"/>
  <outline>
    <contour>
      <point x="80.12295081967213" y="153.18032786885246" type="qcurve" smooth="yes"/>
      <point x="80.12295081967213" y="536.8196721311475" type="line" smooth="yes"/>
      <point x="80.12295081967213" y="690.0"/>
      <point x="233.30327868852459" y="690.0" type="qcurve" smooth="yes"/>
      <point x="515.1229508196722" y="690.0" type="line"/>
      <point x="560.3196721311475" y="654.9590163934427" type="line"/>
      <point x="560.3196721311475" y="613.5819672131148" type="line"/>
      <point x="232.31967213114754" y="613.5819672131148" type="line" smooth="yes"/>
      <point x="164.27049180327867" y="613.5819672131148"/>
      <point x="164.27049180327867" y="546.2459016393443" type="qcurve" smooth="yes"/>
      <point x="164.27049180327867" y="143.75409836065575" type="line" smooth="yes"/>
      <point x="164.27049180327867" y="76.41803278688525"/>
      <point x="232.31967213114754" y="76.41803278688525" type="qcurve" smooth="yes"/>
      <point x="560.3196721311475" y="76.41803278688525" type="line"/>
      <point x="560.3196721311475" y="35.040983606557376" type="line"/>
      <point x="515.1229508196722" y="0.0" type="line"/>
      <point x="233.30327868852459" y="0.0" type="line" smooth="yes"/>
      <point x="80.12295081967213" y="0.0"/>
    </contour>
  </outline>
</glyph>
<glyph name="D" format="2">
  <advance width="679.8770491803278"/>
  <unicode hex="0044"/>
  <outline>
    <contour>
      <point x="90.12295081967213" y="0.0" type="line"/>
      <point x="90.12295081967213" y="690.0" type="line"/>
      <point x="360.24590163934425" y="690.0" type="line" smooth="yes"/>
      <point x="609.7540983606557" y="690.0"/>
      <point x="609.7540983606557" y="439.77868852459017" type="qcurve" smooth="yes"/>
      <point x="609.7540983606557" y="250.22131147540983" type="line" smooth="yes"/>
      <point x="609.7540983606557" y="0.0"/>
      <point x="360.24590163934425" y="0.0" type="qcurve" smooth="yes"/>
    </contour>
    <contour>
      <point x="174.27049180327867" y="76.41803278688525" type="line"/>
      <point x="365.25409836065575" y="76.41803278688525" type="line" smooth="yes"/>
      <point x="525.6065573770492" y="76.41803278688525"/>
      <point x="525.6065573770492" y="237.05737704918033" type="qcurve" smooth="yes"/>
      <point x="525.6065573770492" y="452.94262295081967" type="line" smooth="yes"/>
      <point x="525.6065573770492" y="613.5819672131148"/>
      <point x="365.25409836065575" y="613.5819672131148" type="qcurve" smooth="yes"/>
      <point x="174.27049180327867" y="613.5819672131148" type="line"/>
    </contour>
  </outline>
</glyph>
<glyph name="E" format="2">
  <advance width="590.3196721311475"/>
  <unicode hex="0045"/>
  <outline>
    <contour>
      <point x="90.12295081967213" y="0.0" type="line"/>
      <point x="90.12295081967213" y="690.0" type="line"/>
      <point x="540.3196721311475" y="690.0" type="line"/>
      <point x="540.3196721311475" y="613.5819672131148" type="line"/>
      <point x="174.27049180327867" y="613.5819672131148" type="line"/>
      <point x="174.27049180327867" y="400.04918032786884" type="line"/>
      <point x="510.3196721311475" y="400.04918032786884" type="line"/>
      <point x="510.3196721311475" y="323.6311475409836" type="line"/>
      <point x="174.27049180327867" y="323.6311475409836" type="line"/>
      <point x="174.27049180327867" y="76.41803278688525" type="line"/>
      <point x="540.3196721311475" y="76.41803278688525" type="line"/>
      <point x="540.3196721311475" y="0.0" type="line"/>
    </contour>
  </outline>
</glyph>
<glyph name="F" format="2">
  <advance width="570.3196721311475"/>
  <unicode hex="0046"/>
  <outline>
    <contour>
      <point x="90.12295081967213" y="0.0" type="line"/>
      <point x="90.12295081967213" y="690.0" type="line"/>
      <point x="540.3196721311475" y="690.0" type="line"/>
      <point x="540.3196721311475" y="613.5819672131148" type="line"/>
      <point x="174.27049180327867" y="613.5819672131148" type="line"/>
      <point x="174.27049180327867" y="370.04918032786884" type="line"/>
      <point x="510.3196721311475" y="370.04918032786884" type="line"/>
      <point x="510.3196721311475" y="293.6311475409836" type="line"/>
      <point x="174.27049180327867" y="293.6311475409836" type="line"/>
      <point x="174.27049180327867" y="0.0" type="line"/>
    </contour>
  </outline>
</glyph>
<glyph name="G" format="2">
  <advance width="669.8770491803278"/>
  <unicode hex="0047"/>
  <outline>
    <contour>
      <point x="80.12295081967213" y="153.18032786885246" type="qcurve" smooth="yes"/>
      <point x="80.12295081967213" y="536.8196721311475" type="line" smooth="yes"/>
      <point x="80.12295081967213" y="690.0"/>
      <point x="233.30327868852459" y="690.0" type="qcurve" smooth="yes"/>
      <point x="535.2704918032787" y="690.0" type="line"/>
      <point x="579.7540983606557" y="654.9590163934427" type="line"/>
      <point x="579.7540983606557" y="613.5819672131148" type="line"/>
      <point x="232.31967213114754" y="613.5819672131148" type="line" smooth="yes"/>
      <point x="164.27049180327867" y="613.5819672131148"/>
      <point x="164.27049180327867" y="546.2459016393443" type="qcurve" smooth="yes"/>
      <point x="164.27049180327867" y="143.75409836065575" type="line" smooth="yes"/>
      <point x="164.27049180327867" y="76.41803278688525"/>
      <point x="232.31967213114754" y="76.41803278688525" type="qcurve" smooth="yes"/>
      <point x="515.6065573770492" y="76.41803278688525" type="line"/>
      <point x="515.6065573770492" y="323.6311475409836" type="line"/>
      <point x="346.2704918032787" y="323.6311475409836" type="line"/>
      <point x="346.2704918032787" y="400.04918032786884" type="line"/>
      <point x="599.7540983606557" y="400.04918032786884" type="line"/>
      <point x="599.7540983606557" y="0.0" type="line"/>
      <point x="233.30327868852459" y="0.0" type="line" smooth="yes"/>
      <point x="80.12295081967213" y="0.0"/>
    </contour>
  </outline>
</glyph>
<glyph name="H" format="2">
  <advance width="699.8770491803278"/>
  <unicode hex="0048"/>
  <outline>
    <contour>
      <point x="90.12295081967213" y="0.0" type="line"/>
      <point x="90.12295081967213" y="690.0" type="line"/>
      <point x="174.27049180327867" y="690.0" type="line"/>
      <point x="174.27049180327867" y="400.04918032786884" type="line"/>
      <point x="525.6065573770492" y="400.04918032786884" type="line"/>
      <point x="525.6065573770492" y="690.0" type="line"/>
      <point x="609.7540983606557" y="690.0" type="line"/>
      <point x="609.7540983606557" y="0.0" type="line"/>
      <point x="525.6065573770492" y="0.0" type="line"/>
      <point x="525.6065573770492" y="323.6311475409836" type="line"/>
      <point x="174.27049180327867" y="323.6311475409836" type="line"/>
      <point x="174.27049180327867" y="0.0" type="line"/>
    </contour>
  </outline>
</glyph>
<glyph name="I" format="2">
  <advance width="264.39344262295083"/>
  <unicode hex="0049"/>
  <outline>
    <contour>
      <point x="90.12295081967213" y="0.0" type="line"/>
      <point x="90.12295081967213" y="690.0" type="line"/>
      <point x="174.27049180327867" y="690.0" type="line"/>
      <point x="174.27049180327867" y="0.0" type="line"/>
    </contour>
  </outline>
</glyph>
<glyph name="J" format="2">
  <advance width="603.8770491803278"/>
  <unicode hex="004A"/>
  <outline>
    <contour>
      <point x="60.122950819672134" y="153.18032786885246" type="qcurve" smooth="yes"/>
      <point x="60.122950819672134" y="260.0983606557377" type="line"/>
      <point x="144.27049180327867" y="260.0983606557377" type="line"/>
      <point x="144.27049180327867" y="143.75409836065575" type="line" smooth="yes"/>
      <point x="144.27049180327867" y="76.41803278688525"/>
      <point x="212.31967213114754" y="76.41803278688525" type="qcurve" smooth="yes"/>
      <point x="368.2704918032787" y="76.41803278688525" type="line" smooth="yes"/>
      <point x="435.60655737704917" y="76.41803278688525"/>
      <point x="435.60655737704917" y="143.75409836065575" type="qcurve" smooth="yes"/>
      <point x="435.60655737704917" y="613.5819672131148" type="line"/>
      <point x="210.2704918032787" y="613.5819672131148" type="line"/>
      <point x="210.2704918032787" y="690.0" type="line"/>
      <point x="519.7540983606557" y="690.0" type="line"/>
      <point x="519.7540983606557" y="153.18032786885246" type="line" smooth="yes"/>
      <point x="519.7540983606557" y="0.0"/>
      <point x="366.57377049180326" y="0.0" type="qcurve" smooth="yes"/>
      <point x="213.30327868852459" y="0.0" type="line" smooth="yes"/>
      <point x="60.122950819672134" y="0.0"/>
    </contour>
  </outline>
</glyph>
<glyph name="K" format="2">
  <advance width="630.2459016393443"/>
  <unicode hex="004B"/>
  <outline>
    <contour>
      <point x="90.12295081967213" y="0.0" type="line"/>
      <point x="90.12295081967213" y="690.0" type="line"/>
      <point x="174.27049180327867" y="690.0" type="line"/>
      <point x="174.27049180327867" y="336.05737704918033" type="line"/>
      <point x="491.37704918032784" y="690.0" type="line"/>
      <point x="568.3770491803278" y="690.0" type="line"/>
      <point x="577.2459016393443" y="670.9754098360655" type="line"/>
      <point x="338.9836065573771" y="406.0" type="line"/>
      <point x="600.3934426229508" y="19.024590163934427" type="line"/>
      <point x="591.5245901639345" y="0.0" type="line"/>
      <point x="514.2459016393443" y="0.0" type="line"/>
      <point x="284.0327868852459" y="344.89344262295083" type="line"/>
      <point x="174.27049180327867" y="223.86065573770492" type="line"/>
      <point x="174.27049180327867" y="0.0" type="line"/>
    </contour>
  </outline>
</glyph>
<glyph name="L" format="2">
  <advance width="534.3196721311475"/>
  <unicode hex="004C"/>
  <outline>
    <contour>
      <point x="90.12295081967213" y="0.0" type="line"/>
      <point x="90.12295081967213" y="690.0" type="line"/>
      <point x="174.27049180327867" y="690.0" type="line"/>
      <point x="174.27049180327867" y="76.41803278688525" type="line"/>
      <point x="510.3196721311475" y="76.41803278688525" type="line"/>
      <point x="510.3196721311475" y="0.0" type="line"/>
    </contour>
  </outline>
</glyph>
<glyph name="M" format="2">
  <advance width="862.7950819672132"/>
  <unicode hex="004D"/>
  <outline>
    <contour>
      <point x="90.12295081967213" y="0.0" type="line"/>
      <point x="90.12295081967213" y="690.0" type="line"/>
      <point x="200.84426229508196" y="690.0" type="line"/>
      <point x="431.75409836065575" y="199.9016393442623" type="line"/>
      <point x="661.9508196721312" y="690.0" type="line"/>
      <point x="772.672131147541" y="690.0" type="line"/>
      <point x="772.672131147541" y="0.0" type="line"/>
      <point x="688.5245901639345" y="0.0" type="line"/>
      <point x="688.5245901639345" y="563.827868852459" type="line"/>
      <point x="471.09016393442624" y="99.97540983606558" type="line"/>
      <point x="391.7049180327869" y="99.97540983606558" type="line"/>
      <point x="174.27049180327867" y="563.827868852459" type="line"/>
      <point x="174.27049180327867" y="0.0" type="line"/>
    </contour>
  </outline>
</glyph>
<glyph name="N" format="2">
  <advance width="719.9016393442623"/>
  <unicode hex="004E"/>
  <outline>
    <contour>
      <point x="90.12295081967213" y="0.0" type="line"/>
      <point x="90.12295081967213" y="690.0" type="line"/>
      <point x="183.27868852459017" y="690.0" type="line"/>
      <point x="545.6311475409836" y="130.2622950819672" type="line"/>
      <point x="545.6311475409836" y="690.0" type="line"/>
      <point x="629.7786885245902" y="690.0" type="line"/>
      <point x="629.7786885245902" y="0.0" type="line"/>
      <point x="536.9098360655738" y="0.0" type="line"/>
      <point x="174.27049180327867" y="559.7377049180328" type="line"/>
      <point x="174.27049180327867" y="0.0" type="line"/>
    </contour>
  </outline>
</glyph>
<glyph name="O" format="2">
  <advance width="699.8770491803278"/>
  <unicode hex="004F"/>
  <outline>
    <contour>
      <point x="80.12295081967213" y="153.18032786885246" type="qcurve" smooth="yes"/>
      <point x="80.12295081967213" y="536.8196721311475" type="line" smooth="yes"/>
      <point x="80.12295081967213" y="690.0"/>
      <point x="233.30327868852459" y="690.0" type="qcurve" smooth="yes"/>
      <point x="466.57377049180326" y="690.0" type="line" smooth="yes"/>
      <point x="619.7540983606557" y="690.0"/>
      <point x="619.7540983606557" y="536.8196721311475" type="qcurve" smooth="yes"/>
      <point x="619.7540983606557" y="153.18032786885246" type="line" smooth="yes"/>
      <point x="619.7540983606557" y="0.0"/>
      <point x="466.57377049180326" y="0.0" type="qcurve" smooth="yes"/>
      <point x="233.30327868852459" y="0.0" type="line" smooth="yes"/>
      <point x="80.12295081967213" y="0.0"/>
    </contour>
    <contour>
      <point x="164.27049180327867" y="143.75409836065575" type="line" smooth="yes"/>
      <point x="164.27049180327867" y="76.41803278688525"/>
      <point x="232.31967213114754" y="76.41803278688525" type="qcurve" smooth="yes"/>
      <point x="468.2704918032787" y="76.41803278688525" type="line" smooth="yes"/>
      <point x="535.6065573770492" y="76.41803278688525"/>
      <point x="535.6065573770492" y="143.75409836065575" type="qcurve" smooth="yes"/>
      <point x="535.6065573770492" y="546.2459016393443" type="line" smooth="yes"/>
      <point x="535.6065573770492" y="613.5819672131148"/>
      <point x="468.2704918032787" y="613.5819672131148" type="qcurve" smooth="yes"/>
      <point x="232.31967213114754" y="613.5819672131148" type="line" smooth="yes"/>
      <point x="164.27049180327867" y="613.5819672131148"/>
      <point x="164.27049180327867" y="546.2459016393443" type="qcurve" smooth="yes"/>
    </contour>
  </outline>
</glyph>
<glyph name="P" format="2">
  <advance width="629.8770491803278"/>
  <unicode hex="0050"/>
  <outline>
    <contour>
      <point x="90.12295081967213" y="0.0" type="line"/>
      <point x="90.12295081967213" y="690.0" type="line"/>
      <point x="416.57377049180326" y="690.0" type="line" smooth="yes"/>
      <point x="569.7540983606557" y="690.0"/>
      <point x="569.7540983606557" y="536.8196721311475" type="qcurve" smooth="yes"/>
      <point x="569.7540983606557" y="406.5245901639344" type="line" smooth="yes"/>
      <point x="569.7540983606557" y="253.63114754098362"/>
      <point x="416.57377049180326" y="253.63114754098362" type="qcurve" smooth="yes"/>
      <point x="174.27049180327867" y="253.63114754098362" type="line"/>
      <point x="174.27049180327867" y="0.0" type="line"/>
    </contour>
    <contour>
      <point x="174.27049180327867" y="330.04918032786884" type="line"/>
      <point x="418.2704918032787" y="330.04918032786884" type="line" smooth="yes"/>
      <point x="485.60655737704917" y="330.04918032786884"/>
      <point x="485.60655737704917" y="398.0983606557377" type="qcurve" smooth="yes"/>
      <point x="485.60655737704917" y="546.2459016393443" type="line" smooth="yes"/>
      <point x="485.60655737704917" y="613.5819672131148"/>
      <point x="418.2704918032787" y="613.5819672131148" type="qcurve" smooth="yes"/>
      <point x="174.27049180327867" y="613.5819672131148" type="line"/>
    </contour>
  </outline>
</glyph>
<glyph name="Q" format="2">
  <advance width="699.8770491803278"/>
  <unicode hex="0051"/>
  <outline>
    <contour>
      <point x="80.12295081967213" y="153.18032786885246" type="qcurve" smooth="yes"/>
      <point x="80.12295081967213" y="536.8196721311475" type="line" smooth="yes"/>
      <point x="80.12295081967213" y="690.0"/>
      <point x="233.30327868852459" y="690.0" type="qcurve" smooth="yes"/>
      <point x="466.57377049180326" y="690.0" type="line" smooth="yes"/>
      <point x="619.7540983606557" y="690.0"/>
      <point x="619.7540983606557" y="536.8196721311475" type="qcurve" smooth="yes"/>
      <point x="619.7540983606557" y="152.4672131147541" type="line" smooth="yes"/>
      <point x="619.7540983606557" y="12.901639344262295"/>
      <point x="489.3688524590164" y="2.8688524590163933" type="qcurve"/>
      <point x="556.9344262295082" y="-129.97540983606558" type="line"/>
      <point x="546.2049180327868" y="-150.0" type="line"/>
      <point x="475.07377049180326" y="-150.0" type="line"/>
      <point x="399.07377049180326" y="0.0" type="line"/>
      <point x="233.30327868852459" y="0.0" type="line" smooth="yes"/>
      <point x="80.12295081967213" y="0.0"/>
    </contour>
    <contour>
      <point x="164.27049180327867" y="143.75409836065575" type="line" smooth="yes"/>
      <point x="164.27049180327867" y="76.41803278688525"/>
      <point x="232.31967213114754" y="76.41803278688525" type="qcurve" smooth="yes"/>
      <point x="468.2704918032787" y="76.41803278688525" type="line" smooth="yes"/>
      <point x="535.6065573770492" y="76.41803278688525"/>
      <point x="535.6065573770492" y="143.75409836065575" type="qcurve" smooth="yes"/>
      <point x="535.6065573770492" y="546.2459016393443" type="line" smooth="yes"/>
      <point x="535.6065573770492" y="613.5819672131148"/>
      <point x="468.2704918032787" y="613.5819672131148" type="qcurve" smooth="yes"/>
      <point x="232.31967213114754" y="613.5819672131148" type="line" smooth="yes"/>
      <point x="164.27049180327867" y="613.5819672131148"/>
      <point x="164.27049180327867" y="546.2459016393443" type="qcurve" smooth="yes"/>
    </contour>
  </outline>
</glyph>
<glyph name="R" format="2">
  <advance width="639.8770491803278"/>
  <unicode hex="0052"/>
  <outline>
    <contour>
      <point x="90.12295081967213" y="0.0" type="line"/>
      <point x="90.12295081967213" y="690.0" type="line"/>
      <point x="416.57377049180326" y="690.0" type="line" smooth="yes"/>
      <point x="569.7540983606557" y="690.0"/>
      <point x="569.7540983606557" y="536.8196721311475" type="qcurve" smooth="yes"/>
      <point x="569.7540983606557" y="426.5245901639344" type="line" smooth="yes"/>
      <point x="569.7540983606557" y="296.6803278688525"/>
      <point x="458.655737704918" y="278.6475409836066" type="qcurve"/>
      <point x="589.7540983606557" y="20.024590163934427" type="line"/>
      <point x="579.0245901639345" y="0.0" type="line"/>
      <point x="508.1803278688525" y="0.0" type="line"/>
      <point x="369.22131147540983" y="273.6311475409836" type="line"/>
      <point x="174.27049180327867" y="273.6311475409836" type="line"/>
      <point x="174.27049180327867" y="0.0" type="line"/>
    </contour>
    <contour>
      <point x="174.27049180327867" y="350.04918032786884" type="line"/>
      <point x="418.2704918032787" y="350.04918032786884" type="line" smooth="yes"/>
      <point x="485.60655737704917" y="350.04918032786884"/>
      <point x="485.60655737704917" y="418.0983606557377" type="qcurve" smooth="yes"/>
      <point x="485.60655737704917" y="546.2459016393443" type="line" smooth="yes"/>
      <point x="485.60655737704917" y="613.5819672131148"/>
      <point x="418.2704918032787" y="613.5819672131148" type="qcurve" smooth="yes"/>
      <point x="174.27049180327867" y="613.5819672131148" type="line"/>
    </contour>
  </outline>
</glyph>
<glyph name="S" format="2">
  <advance width="579.8770491803278"/>
  <unicode hex="0053"/>
  <outline>
    <contour>
      <point x="60.122950819672134" y="35.040983606557376" type="line"/>
      <point x="60.122950819672134" y="76.41803278688525" type="line"/>
      <point x="368.2704918032787" y="76.41803278688525" type="line" smooth="yes"/>
      <point x="435.60655737704917" y="76.41803278688525"/>
      <point x="435.60655737704917" y="143.75409836065575" type="qcurve" smooth="yes"/>
      <point x="435.60655737704917" y="225.30327868852459" type="line" smooth="yes"/>
      <point x="435.60655737704917" y="282.09016393442624"/>
      <point x="385.0983606557377" y="291.9344262295082" type="qcurve" smooth="yes"/>
      <point x="170.14754098360655" y="335.6393442622951" type="line" smooth="yes"/>
      <point x="60.122950819672134" y="357.5"/>
      <point x="60.122950819672134" y="483.38524590163934" type="qcurve" smooth="yes"/>
      <point x="60.122950819672134" y="536.8196721311475" type="line" smooth="yes"/>
      <point x="60.122950819672134" y="690.0"/>
      <point x="213.30327868852459" y="690.0" type="qcurve" smooth="yes"/>
      <point x="455.2704918032787" y="690.0" type="line"/>
      <point x="499.75409836065575" y="654.9590163934427" type="line"/>
      <point x="499.75409836065575" y="613.5819672131148" type="line"/>
      <point x="212.31967213114754" y="613.5819672131148" type="line" smooth="yes"/>
      <point x="144.27049180327867" y="613.5819672131148"/>
      <point x="144.27049180327867" y="546.2459016393443" type="qcurve" smooth="yes"/>
      <point x="144.27049180327867" y="477.9672131147541" type="line" smooth="yes"/>
      <point x="144.27049180327867" y="420.75409836065575"/>
      <point x="194.77868852459017" y="410.62295081967216" type="qcurve" smooth="yes"/>
      <point x="409.7295081967213" y="368.2049180327869" type="line" smooth="yes"/>
      <point x="519.7540983606557" y="345.7704918032787"/>
      <point x="519.7540983606557" y="220.172131147541" type="qcurve" smooth="yes"/>
      <point x="519.7540983606557" y="153.18032786885246" type="line" smooth="yes"/>
      <point x="519.7540983606557" y="0.0"/>
      <point x="366.57377049180326" y="0.0" type="qcurve" smooth="yes"/>
      <point x="105.31967213114754" y="0.0" type="line"/>
    </contour>
  </outline>
</glyph>
<glyph name="T" format="2">
  <advance width="592.0491803278688"/>
  <unicode hex="0054"/>
  <outline>
    <contour>
      <point x="24.0" y="613.5819672131148" type="line"/>
      <point x="24.0" y="690.0" type="line"/>
      <point x="568.0491803278688" y="690.0" type="line"/>
      <point x="568.0491803278688" y="613.5819672131148" type="line"/>
      <point x="338.0983606557377" y="613.5819672131148" type="line"/>
      <point x="338.0983606557377" y="0.0" type="line"/>
      <point x="253.95081967213116" y="0.0" type="line"/>
      <point x="253.95081967213116" y="613.5819672131148" type="line"/>
    </contour>
  </outline>
</glyph>
<glyph name="U" format="2">
  <advance width="687.8770491803278"/>
  <unicode hex="0055"/>
  <outline>
    <contour>
      <point x="84.12295081967213" y="153.18032786885246" type="qcurve" smooth="yes"/>
      <point x="84.12295081967213" y="690.0" type="line"/>
      <point x="168.27049180327867" y="690.0" type="line"/>
      <point x="168.27049180327867" y="143.75409836065575" type="line" smooth="yes"/>
      <point x="168.27049180327867" y="76.41803278688525"/>
      <point x="236.31967213114754" y="76.41803278688525" type="qcurve" smooth="yes"/>
      <point x="452.2704918032787" y="76.41803278688525" type="line" smooth="yes"/>
      <point x="519.6065573770492" y="76.41803278688525"/>
      <point x="519.6065573770492" y="143.75409836065575" type="qcurve" smooth="yes"/>
      <point x="519.6065573770492" y="690.0" type="line"/>
      <point x="603.7540983606557" y="690.0" type="line"/>
      <point x="603.7540983606557" y="153.18032786885246" type="line" smooth="yes"/>
      <point x="603.7540983606557" y="0.0"/>
      <point x="450.57377049180326" y="0.0" type="qcurve" smooth="yes"/>
      <point x="237.30327868852459" y="0.0" type="line" smooth="yes"/>
      <point x="84.12295081967213" y="0.0"/>
    </contour>
  </outline>
</glyph>
<glyph name="V" format="2">
  <advance width="619.8032786885246"/>
  <unicode hex="0056"/>
  <outline>
    <contour>
      <point x="19.852459016393443" y="671.5491803278688" type="line"/>
      <point x="32.295081967213115" y="690.0" type="line"/>
      <point x="103.57377049180327" y="690.0" type="line"/>
      <point x="298.1967213114754" y="76.41803278688525" type="line"/>
      <point x="322.3196721311475" y="76.41803278688525" type="line"/>
      <point x="516.9426229508197" y="690.0" type="line"/>
      <point x="588.2213114754098" y="690.0" type="line"/>
      <point x="599.9508196721312" y="671.5491803278688" type="line"/>
      <point x="382.1475409836066" y="0.0" type="line"/>
      <point x="237.65573770491804" y="0.0" type="line"/>
    </contour>
  </outline>
</glyph>
<glyph name="W" format="2">
  <advance width="919.8032786885246"/>
  <unicode hex="0057"/>
  <outline>
    <contour>
      <point x="29.852459016393443" y="671.5491803278688" type="line"/>
      <point x="42.868852459016395" y="690.0" type="line"/>
      <point x="109.85245901639344" y="690.0" type="line"/>
      <point x="254.05737704918033" y="76.41803278688525" type="line"/>
      <point x="267.3360655737705" y="76.41803278688525" type="line"/>
      <point x="418.4016393442623" y="614.0245901639345" type="line"/>
      <point x="502.11475409836066" y="614.0245901639345" type="line"/>
      <point x="652.4672131147541" y="76.41803278688525" type="line"/>
      <point x="666.4590163934427" y="76.41803278688525" type="line"/>
      <point x="809.9508196721312" y="690.0" type="line"/>
      <point x="876.9344262295082" y="690.0" type="line"/>
      <point x="889.9508196721312" y="671.5491803278688" type="line"/>
      <point x="731.2950819672132" y="0.0" type="line"/>
      <point x="592.0737704918033" y="0.0" type="line"/>
      <point x="459.9016393442623" y="478.4344262295082" type="line"/>
      <point x="327.7295081967213" y="0.0" type="line"/>
      <point x="189.22131147540983" y="0.0" type="line"/>
    </contour>
  </outline>
</glyph>
<glyph name="X" format="2">
  <advance width="609.8032786885246"/>
  <unicode hex="0058"/>
  <outline>
    <contour>
      <point x="29.852459016393443" y="19.024590163934427" type="line"/>
      <point x="257.6803278688525" y="355.0" type="line"/>
      <point x="42.85245901639344" y="670.9754098360655" type="line"/>
      <point x="51.721311475409834" y="690.0" type="line"/>
      <point x="124.85245901639344" y="690.0" type="line"/>
      <point x="304.9016393442623" y="420.12295081967216" type="line"/>
      <point x="484.95081967213116" y="690.0" type="line"/>
      <point x="558.0819672131147" y="690.0" type="line"/>
      <point x="566.9508196721312" y="670.9754098360655" type="line"/>
      <point x="352.12295081967216" y="355.0" type="line"/>
      <point x="579.9508196721312" y="19.024590163934427" type="line"/>
      <point x="570.7950819672132" y="0.0" type="line"/>
      <point x="497.95081967213116" y="0.0" type="line"/>
      <point x="304.9016393442623" y="290.3032786885246" type="line"/>
      <point x="111.85245901639344" y="0.0" type="line"/>
      <point x="39.00819672131148" y="0.0" type="line"/>
    </contour>
  </outline>
</glyph>
<glyph name="Y" format="2">
  <advance width="579.8032786885246"/>
  <unicode hex="0059"/>
  <outline>
    <contour>
      <point x="19.852459016393443" y="671.5491803278688" type="line"/>
      <point x="31.295081967213115" y="690.0" type="line"/>
      <point x="101.85245901639344" y="690.0" type="line"/>
      <point x="289.9016393442623" y="340.8524590163934" type="line"/>
      <point x="477.95081967213116" y="690.0" type="line"/>
      <point x="549.2213114754098" y="690.0" type="line"/>
      <point x="559.9508196721312" y="671.5491803278688" type="line"/>
      <point x="331.9754098360656" y="255.827868852459" type="line"/>
      <point x="331.9754098360656" y="0.0" type="line"/>
      <point x="247.827868852459" y="0.0" type="line"/>
      <point x="247.827868852459" y="255.827868852459" type="line"/>
    </contour>
  </outline>
</glyph>
<glyph name="Z" format="2">
  <advance width="599.8770491803278"/>
  <unicode hex="005A"/>
  <outline>
    <contour>
      <point x="50.122950819672134" y="0.0" type="line"/>
      <point x="50.122950819672134" y="66.96721311475409" type="line"/>
      <point x="435.7049180327869" y="613.5819672131148" type="line"/>
      <point x="60.122950819672134" y="613.5819672131148" type="line"/>
      <point x="60.122950819672134" y="690.0" type="line"/>
      <point x="539.7540983606557" y="690.0" type="line"/>
      <point x="539.7540983606557" y="623.0327868852459" type="line"/>
      <point x="154.172131147541" y="76.41803278688525" type="line"/>
      <point x="549.7540983606557" y="76.41803278688525" type="line"/>
      <point x="549.7540983606557" y="0.0" type="line"/>
    </contour>
  </outline>
</glyph>
<glyph name="bracketleft" format="2">
  <advance width="340.24590163934425"/>
  <unicode hex="005B"/>
  <outline>
    <contour>
      <point x="90.12295081967213" y="-180.0" type="line"/>
      <point x="90.12295081967213" y="760.0" type="line"/>
      <point x="310.24590163934425" y="760.0" type="line"/>
      <point x="310.24590163934425" y="689.8770491803278" type="line"/>
      <point x="170.12295081967213" y="689.8770491803278" type="line"/>
      <point x="170.12295081967213" y="-109.87704918032787" type="line"/>
      <point x="310.24590163934425" y="-109.87704918032787" type="line"/>
      <point x="310.24590163934425" y="-180.0" type="line"/>
    </contour>
  </outline>
</glyph>
<glyph name="backslash" format="2">
  <advance width="389.827868852459"/>
  <unicode hex="005C"/>
  <outline>
    <contour>
      <point x="20.0" y="714.8360655737705" type="line"/>
      <point x="89.40163934426229" y="739.8770491803278" type="line"/>
      <point x="369.827868852459" y="-24.83606557377049" type="line"/>
      <point x="301.42622950819674" y="-49.877049180327866" type="line"/>
    </contour>
  </outline>
</glyph>
<glyph name="bracketright" format="2">
  <advance width="340.24590163934425"/>
  <unicode hex="005D"/>
  <outline>
    <contour>
      <point x="30.0" y="-109.87704918032787" type="line"/>
      <point x="170.12295081967213" y="-109.87704918032787" type="line"/>
      <point x="170.12295081967213" y="689.8770491803278" type="line"/>
      <point x="30.0" y="689.8770491803278" type="line"/>
      <point x="30.0" y="760.0" type="line"/>
      <point x="250.12295081967213" y="760.0" type="line"/>
      <point x="250.12295081967213" y="-180.0" type="line"/>
      <point x="30.0" y="-180.0" type="line"/>
    </contour>
  </outline>
</glyph>
<glyph name="asciicircum" format="2">
  <advance width="540.344262295082"/>
  <unicode hex="005E"/>
  <outline>
    <contour>
      <point x="40.122950819672134" y="344.88524590163934" type="line"/>
      <point x="230.81967213114754" y="690.0" type="line"/>
      <point x="309.5245901639344" y="690.0" type="line"/>
      <point x="500.22131147540983" y="344.88524590163934" type="line"/>
      <point x="436.9754098360656" y="309.827868852459" type="line"/>
      <point x="270.172131147541" y="615.016393442623" type="line"/>
      <point x="103.3688524590164" y="309.827868852459" type="line"/>
    </contour>
  </outline>
</glyph>
<glyph name="a" format="2">
  <advance width="541.8770491803278"/>
  <unicode hex="0061"/>
  <outline>
    <contour>
      <point x="203.00819672131146" y="0.0" type="line" smooth="yes"/>
      <point x="52.122950819672134" y="0.0"/>
      <point x="52.122950819672134" y="301.75409836065575"/>
      <point x="203.00819672131146" y="301.75409836065575" type="qcurve" smooth="yes"/>
      <point x="385.75409836065575" y="301.75409836065575" type="line"/>
      <point x="385.75409836065575" y="379.7049180327869" type="line" smooth="yes"/>
      <point x="385.75409836065575" y="449.75409836065575"/>
      <point x="315.7049180327869" y="449.75409836065575" type="qcurve" smooth="yes"/>
      <point x="101.85245901639344" y="449.75409836065575" type="line"/>
      <point x="101.85245901639344" y="489.9836065573771" type="line"/>
      <point x="141.9016393442623" y="519.8770491803278" type="line"/>
      <point x="316.2950819672131" y="519.8770491803278" type="line" smooth="yes"/>
      <point x="465.75409836065575" y="519.8770491803278"/>
      <point x="465.75409836065575" y="369.7049180327869" type="qcurve" smooth="yes"/>
      <point x="465.75409836065575" y="0.0" type="line"/>
    </contour>
    <contour>
      <point x="132.12295081967213" y="140.172131147541" type="line" smooth="yes"/>
      <point x="132.12295081967213" y="70.12295081967213"/>
      <point x="202.172131147541" y="70.12295081967213" type="qcurve" smooth="yes"/>
      <point x="385.75409836065575" y="70.12295081967213" type="line"/>
      <point x="385.75409836065575" y="237.08196721311475" type="line"/>
      <point x="202.172131147541" y="237.08196721311475" type="line" smooth="yes"/>
      <point x="132.12295081967213" y="237.08196721311475"/>
      <point x="132.12295081967213" y="167.0327868852459" type="qcurve" smooth="yes"/>
    </contour>
  </outline>
</glyph>
<glyph name="b" format="2">
  <advance width="581.8770491803278"/>
  <unicode hex="0062"/>
  <outline>
    <contour>
      <point x="80.12295081967213" y="0.0" type="line"/>
      <point x="80.12295081967213" y="740.0" type="line"/>
      <point x="160.12295081967213" y="740.0" type="line"/>
      <point x="160.12295081967213" y="519.8770491803278" type="line"/>
      <point x="360.2950819672131" y="519.8770491803278" type="line" smooth="yes"/>
      <point x="509.75409836065575" y="519.8770491803278"/>
      <point x="509.75409836065575" y="369.7049180327869" type="qcurve" smooth="yes"/>
      <point x="509.75409836065575" y="150.172131147541" type="line" smooth="yes"/>
      <point x="509.75409836065575" y="0.0"/>
      <point x="360.2950819672131" y="0.0" type="qcurve" smooth="yes"/>
    </contour>
    <contour>
      <point x="160.12295081967213" y="70.12295081967213" type="line"/>
      <point x="359.7049180327869" y="70.12295081967213" type="line" smooth="yes"/>
      <point x="429.75409836065575" y="70.12295081967213"/>
      <point x="429.75409836065575" y="140.172131147541" type="qcurve" smooth="yes"/>
      <point x="429.75409836065575" y="379.7049180327869" type="line" smooth="yes"/>
      <point x="429.75409836065575" y="449.75409836065575"/>
      <point x="359.7049180327869" y="449.75409836065575" type="qcurve" smooth="yes"/>
      <point x="160.12295081967213" y="449.75409836065575" type="line"/>
    </contour>
  </outline>
</glyph>
<glyph name="c" format="2">
  <advance width="504.3196721311475"/>
  <unicode hex="0063"/>
  <outline>
    <contour>
      <point x="72.12295081967213" y="150.172131147541" type="qcurve" smooth="yes"/>
      <point x="72.12295081967213" y="369.7049180327869" type="line" smooth="yes"/>
      <point x="72.12295081967213" y="519.8770491803278"/>
      <point x="222.29508196721312" y="519.8770491803278" type="qcurve" smooth="yes"/>
      <point x="418.2704918032787" y="519.8770491803278" type="line"/>
      <point x="458.3196721311475" y="489.9836065573771" type="line"/>
      <point x="458.3196721311475" y="449.75409836065575" type="line"/>
      <point x="222.172131147541" y="449.75409836065575" type="line" smooth="yes"/>
      <point x="152.12295081967213" y="449.75409836065575"/>
      <point x="152.12295081967213" y="379.7049180327869" type="qcurve" smooth="yes"/>
      <point x="152.12295081967213" y="140.172131147541" type="line" smooth="yes"/>
      <point x="152.12295081967213" y="70.12295081967213"/>
      <point x="222.172131147541" y="70.12295081967213" type="qcurve" smooth="yes"/>
      <point x="458.3196721311475" y="70.12295081967213" type="line"/>
      <point x="458.3196721311475" y="29.89344262295082" type="line"/>
      <point x="418.2704918032787" y="0.0" type="line"/>
      <point x="222.29508196721312" y="0.0" type="line" smooth="yes"/>
      <point x="72.12295081967213" y="0.0"/>
    </contour>
  </outline>
</glyph>
<glyph name="e" format="2">
  <advance width="573.8770491803278"/>
  <unicode hex="0065"/>
  <outline>
    <contour>
      <point x="72.12295081967213" y="150.172131147541" type="qcurve" smooth="yes"/>
      <point x="72.12295081967213" y="369.7049180327869" type="line" smooth="yes"/>
      <point x="72.12295081967213" y="519.8770491803278"/>
      <point x="222.29508196721312" y="519.8770491803278" type="qcurve" smooth="yes"/>
      <point x="352.2950819672131" y="519.8770491803278" type="line" smooth="yes"/>
      <point x="501.75409836065575" y="519.8770491803278"/>
      <point x="501.75409836065575" y="369.7049180327869" type="qcurve" smooth="yes"/>
      <point x="501.75409836065575" y="229.24590163934425" type="line"/>
      <point x="152.12295081967213" y="229.24590163934425" type="line"/>
      <point x="152.12295081967213" y="140.172131147541" type="line" smooth="yes"/>
      <point x="152.12295081967213" y="70.12295081967213"/>
      <point x="222.172131147541" y="70.12295081967213" type="qcurve" smooth="yes"/>
      <point x="481.75409836065575" y="70.12295081967213" type="line"/>
      <point x="481.75409836065575" y="29.89344262295082" type="line"/>
      <point x="441.7049180327869" y="0.0" type="line"/>
      <point x="222.29508196721312" y="0.0" type="line" smooth="yes"/>
      <point x="72.12295081967213" y="0.0"/>
    </contour>
    <contour>
      <point x="152.12295081967213" y="293.91803278688525" type="line"/>
      <point x="421.75409836065575" y="293.91803278688525" type="line"/>
      <point x="421.75409836065575" y="379.7049180327869" type="line" smooth="yes"/>
      <point x="421.75409836065575" y="449.75409836065575"/>
      <point x="351.7049180327869" y="449.75409836065575" type="qcurve" smooth="yes"/>
      <point x="222.172131147541" y="449.75409836065575" type="line" smooth="yes"/>
      <point x="152.12295081967213" y="449.75409836065575"/>
      <point x="152.12295081967213" y="379.7049180327869" type="qcurve" smooth="yes"/>
    </contour>
  </outline>
</glyph>
<glyph name="f" format="2">
  <advance width="380.22131147540983"/>
  <unicode hex="0066"/>
  <outline>
    <contour>
      <point x="80.12295081967213" y="0.0" type="line"/>
      <point x="80.12295081967213" y="589.827868852459" type="line" smooth="yes"/>
      <point x="80.12295081967213" y="740.0"/>
      <point x="230.29508196721312" y="740.0" type="qcurve" smooth="yes"/>
      <point x="320.172131147541" y="740.0" type="line"/>
      <point x="360.22131147540983" y="710.1065573770492" type="line"/>
      <point x="360.22131147540983" y="669.8770491803278" type="line"/>
      <point x="230.172131147541" y="669.8770491803278" type="line" smooth="yes"/>
      <point x="160.12295081967213" y="669.8770491803278"/>
      <point x="160.12295081967213" y="599.827868852459" type="qcurve" smooth="yes"/>
      <point x="160.12295081967213" y="519.8770491803278" type="line"/>
      <point x="350.22131147540983" y="519.8770491803278" type="line"/>
      <point x="350.22131147540983" y="449.75409836065575" type="line"/>
      <point x="160.12295081967213" y="449.75409836065575" type="line"/>
      <point x="160.12295081967213" y="0.0" type="line"/>
    </contour>
  </outline>
</glyph>
<glyph name="g" format="2">
  <advance width="582.0"/>
  <unicode hex="0067"/>
  <outline>
    <contour>
      <point x="71.82786885245902" y="150.172131147541" type="qcurve" smooth="yes"/>
      <point x="71.82786885245902" y="369.7049180327869" type="line" smooth="yes"/>
      <point x="71.82786885245902" y="519.8770491803278"/>
      <point x="222.0" y="519.8770491803278" type="qcurve" smooth="yes"/>
      <point x="502.172131147541" y="519.8770491803278" type="line"/>
      <point x="502.172131147541" y="-49.82786885245902" type="line" smooth="yes"/>
      <point x="502.172131147541" y="-200.0"/>
      <point x="352.0" y="-200.0" type="qcurve" smooth="yes"/>
      <point x="152.0327868852459" y="-200.0" type="line"/>
      <point x="111.98360655737704" y="-170.10655737704917" type="line"/>
      <point x="111.98360655737704" y="-129.87704918032787" type="line"/>
      <point x="352.12295081967216" y="-129.87704918032787" type="line" smooth="yes"/>
      <point x="422.172131147541" y="-129.87704918032787"/>
      <point x="422.172131147541" y="-59.82786885245902" type="qcurve" smooth="yes"/>
      <point x="422.172131147541" y="0.0" type="line"/>
      <point x="222.0" y="0.0" type="line" smooth="yes"/>
      <point x="71.82786885245902" y="0.0"/>
    </contour>
    <contour>
      <point x="151.827868852459" y="140.172131147541" type="line" smooth="yes"/>
      <point x="151.827868852459" y="70.12295081967213"/>
      <point x="221.87704918032787" y="70.12295081967213" type="qcurve" smooth="yes"/>
      <point x="422.172131147541" y="70.12295081967213" type="line"/>
      <point x="422.172131147541" y="449.75409836065575" type="line"/>
      <point x="221.87704918032787" y="449.75409836065575" type="line" smooth="yes"/>
      <point x="151.827868852459" y="449.75409836065575"/>
      <point x="151.827868852459" y="379.7049180327869" type="qcurve" smooth="yes"/>
    </contour>
  </outline>
</glyph>
<glyph name="h" format="2">
  <advance width="585.8770491803278"/>
  <unicode hex="0068"/>
  <outline>
    <contour>
      <point x="80.12295081967213" y="0.0" type="line"/>
      <point x="80.12295081967213" y="740.0" type="line"/>
      <point x="160.12295081967213" y="740.0" type="line"/>
      <point x="160.12295081967213" y="519.8770491803278" type="line"/>
      <point x="360.2950819672131" y="519.8770491803278" type="line" smooth="yes"/>
      <point x="509.75409836065575" y="519.8770491803278"/>
      <point x="509.75409836065575" y="369.7049180327869" type="qcurve" smooth="yes"/>
      <point x="509.75409836065575" y="0.0" type="line"/>
      <point x="429.75409836065575" y="0.0" type="line"/>
      <point x="429.75409836065575" y="379.7049180327869" type="line" smooth="yes"/>
      <point x="429.75409836065575" y="449.75409836065575"/>
      <point x="359.7049180327869" y="449.75409836065575" type="qcurve" smooth="yes"/>
      <point x="160.12295081967213" y="449.75409836065575" type="line"/>
      <point x="160.12295081967213" y="0.0" type="line"/>
    </contour>
  </outline>
</glyph>
<glyph name="i" format="2">
  <advance width="240.24590163934425"/>
  <unicode hex="0069"/>
  <outline>
    <contour>
      <point x="75.98360655737704" y="616.8524590163935" type="line"/>
      <point x="75.98360655737704" y="710.5245901639345" type="line"/>
      <point x="164.2622950819672" y="710.5245901639345" type="line"/>
      <point x="164.2622950819672" y="616.8524590163935" type="line"/>
    </contour>
    <contour>
      <point x="80.12295081967213" y="0.0" type="line"/>
      <point x="80.12295081967213" y="519.8770491803278" type="line"/>
      <point x="160.12295081967213" y="519.8770491803278" type="line"/>
      <point x="160.12295081967213" y="0.0" type="line"/>
    </contour>
  </outline>
</glyph>
<glyph name="j" format="2">
  <advance width="240.24590163934425"/>
  <unicode hex="006A"/>
  <outline>
    <contour>
      <point x="-8.147540983606557" y="-139.88524590163934" type="line"/>
      <point x="80.12295081967213" y="-136.7377049180328"/>
      <point x="80.12295081967213" y="-48.75409836065574" type="qcurve" smooth="yes"/>
      <point x="80.12295081967213" y="519.8770491803278" type="line"/>
      <point x="160.12295081967213" y="519.8770491803278" type="line"/>
      <point x="160.12295081967213" y="-39.87704918032787" type="line" smooth="yes"/>
      <point x="160.12295081967213" y="-208.14754098360655"/>
      <point x="-8.147540983606557" y="-208.14754098360655" type="qcurve"/>
    </contour>
    <contour>
      <point x="75.98360655737704" y="616.8524590163935" type="line"/>
      <point x="75.98360655737704" y="710.5245901639345" type="line"/>
      <point x="164.2622950819672" y="710.5245901639345" type="line"/>
      <point x="164.2622950819672" y="616.8524590163935" type="line"/>
    </contour>
  </outline>
</glyph>
<glyph name="k" format="2">
  <advance width="528.2704918032787"/>
  <unicode hex="006B"/>
  <outline>
    <contour>
      <point x="80.12295081967213" y="0.0" type="line"/>
      <point x="80.12295081967213" y="740.0" type="line"/>
      <point x="160.12295081967213" y="740.0" type="line"/>
      <point x="160.12295081967213" y="255.4672131147541" type="line"/>
      <point x="401.12295081967216" y="519.8770491803278" type="line"/>
      <point x="479.12295081967216" y="519.8770491803278" type="line"/>
      <point x="486.41803278688525" y="505.0" type="line"/>
      <point x="300.42622950819674" y="301.7295081967213" type="line"/>
      <point x="500.41803278688525" y="14.87704918032787" type="line"/>
      <point x="493.12295081967216" y="0.0" type="line"/>
      <point x="414.6967213114754" y="0.0" type="line"/>
      <point x="247.47540983606558" y="244.05737704918033" type="line"/>
      <point x="160.12295081967213" y="149.85245901639345" type="line"/>
      <point x="160.12295081967213" y="0.0" type="line"/>
    </contour>
  </outline>
</glyph>
<glyph name="l" format="2">
  <advance width="260.12295081967216"/>
  <unicode hex="006C"/>
  <outline>
    <contour>
      <point x="76.12295081967213" y="142.12295081967213" type="qcurve" smooth="yes"/>
      <point x="76.12295081967213" y="740.0" type="line"/>
      <point x="156.12295081967213" y="740.0" type="line"/>
      <point x="156.12295081967213" y="134.39344262295083" type="line" smooth="yes"/>
      <point x="156.12295081967213" y="64.69672131147541"/>
      <point x="226.39344262295083" y="61.26229508196721" type="qcurve"/>
      <point x="226.39344262295083" y="-8.147540983606557" type="line"/>
      <point x="76.12295081967213" y="-8.147540983606557"/>
    </contour>
  </outline>
</glyph>
<glyph name="m" format="2">
  <advance width="895.8770491803278"/>
  <unicode hex="006D"/>
  <outline>
    <contour>
      <point x="80.12295081967213" y="0.0" type="line"/>
      <point x="80.12295081967213" y="519.8770491803278" type="line"/>
      <point x="670.2950819672132" y="519.8770491803278" type="line" smooth="yes"/>
      <point x="819.7540983606557" y="519.8770491803278"/>
      <point x="819.7540983606557" y="369.7049180327869" type="qcurve" smooth="yes"/>
      <point x="819.7540983606557" y="0.0" type="line"/>
      <point x="739.7540983606557" y="0.0" type="line"/>
      <point x="739.7540983606557" y="379.7049180327869" type="line" smooth="yes"/>
      <point x="739.7540983606557" y="449.75409836065575"/>
      <point x="669.7049180327868" y="449.75409836065575" type="qcurve" smooth="yes"/>
      <point x="490.08196721311475" y="449.75409836065575" type="line"/>
      <point x="490.08196721311475" y="0.0" type="line"/>
      <point x="409.7950819672131" y="0.0" type="line"/>
      <point x="409.7950819672131" y="449.75409836065575" type="line"/>
      <point x="160.12295081967213" y="449.75409836065575" type="line"/>
      <point x="160.12295081967213" y="0.0" type="line"/>
    </contour>
  </outline>
</glyph>
<glyph name="q" format="2">
  <advance width="581.8770491803278"/>
  <unicode hex="0071"/>
  <outline>
    <contour>
      <point x="72.12295081967213" y="150.172131147541" type="qcurve" smooth="yes"/>
      <point x="72.12295081967213" y="369.7049180327869" type="line" smooth="yes"/>
      <point x="72.12295081967213" y="519.8770491803278"/>
      <point x="222.29508196721312" y="519.8770491803278" type="qcurve" smooth="yes"/>
      <point x="501.75409836065575" y="519.8770491803278" type="line"/>
      <point x="501.75409836065575" y="-200.0" type="line"/>
      <point x="421.75409836065575" y="-200.0" type="line"/>
      <point x="421.75409836065575" y="0.0" type="line"/>
      <point x="222.29508196721312" y="0.0" type="line" smooth="yes"/>
      <point x="72.12295081967213" y="0.0"/>
    </contour>
    <contour>
      <point x="152.12295081967213" y="140.172131147541" type="line" smooth="yes"/>
      <point x="152.12295081967213" y="70.12295081967213"/>
      <point x="222.172131147541" y="70.12295081967213" type="qcurve" smooth="yes"/>
      <point x="421.75409836065575" y="70.12295081967213" type="line"/>
      <point x="421.75409836065575" y="449.75409836065575" type="line"/>
      <point x="222.172131147541" y="449.75409836065575" type="line" smooth="yes"/>
      <point x="152.12295081967213" y="449.75409836065575"/>
      <point x="152.12295081967213" y="379.7049180327869" type="qcurve" smooth="yes"/>
    </contour>
  </outline>
</glyph>
<glyph name="r" format="2">
  <advance width="372.22131147540983"/>
  <unicode hex="0072"/>
  <outline>
    <contour>
      <point x="76.12295081967213" y="0.0" type="line"/>
      <point x="76.12295081967213" y="460.0" type="line"/>
      <point x="111.27049180327869" y="519.8770491803278"/>
      <point x="206.29508196721312" y="519.8770491803278" type="qcurve" smooth="yes"/>
      <point x="306.172131147541" y="519.8770491803278" type="line"/>
      <point x="346.22131147540983" y="489.9836065573771" type="line"/>
      <point x="346.22131147540983" y="449.75409836065575" type="line"/>
      <point x="217.0737704918033" y="449.75409836065575" type="line" smooth="yes"/>
      <point x="174.5327868852459" y="449.75409836065575"/>
      <point x="156.12295081967213" y="427.344262295082" type="qcurve"/>
      <point x="156.12295081967213" y="0.0" type="line"/>
    </contour>
  </outline>
</glyph>
<glyph name="s" format="2">
  <advance width="499.87704918032784"/>
  <unicode hex="0073"/>
  <outline>
    <contour>
      <point x="59.55737704918033" y="29.89344262295082" type="line"/>
      <point x="59.55737704918033" y="70.12295081967213" type="line"/>
      <point x="290.9836065573771" y="70.12295081967213" type="line" smooth="yes"/>
      <point x="360.4672131147541" y="70.12295081967213"/>
      <point x="360.4672131147541" y="139.9016393442623" type="qcurve" smooth="yes"/>
      <point x="360.4672131147541" y="210.68032786885246"/>
      <point x="304.8196721311475" y="220.0983606557377" type="qcurve" smooth="yes"/>
      <point x="185.70491803278688" y="239.95081967213116" type="line" smooth="yes"/>
      <point x="59.55737704918033" y="261.23770491803276"/>
      <point x="59.55737704918033" y="376.54918032786884" type="qcurve" smooth="yes"/>
      <point x="59.55737704918033" y="519.8770491803278"/>
      <point x="210.44262295081967" y="519.8770491803278" type="qcurve" smooth="yes"/>
      <point x="376.55737704918033" y="519.8770491803278" type="line"/>
      <point x="416.60655737704917" y="489.9836065573771" type="line"/>
      <point x="416.60655737704917" y="449.75409836065575" type="line"/>
      <point x="209.18032786885246" y="449.75409836065575" type="line" smooth="yes"/>
      <point x="138.98360655737704" y="449.75409836065575"/>
      <point x="138.98360655737704" y="379.9754098360656" type="qcurve" smooth="yes"/>
      <point x="138.98360655737704" y="316.74590163934425"/>
      <point x="197.77049180327867" y="306.9016393442623" type="qcurve" smooth="yes"/>
      <point x="316.88524590163934" y="287.04918032786884" type="line" smooth="yes"/>
      <point x="440.60655737704917" y="266.76229508196724"/>
      <point x="440.60655737704917" y="144.04098360655738" type="qcurve" smooth="yes"/>
      <point x="440.60655737704917" y="0.0"/>
      <point x="289.0081967213115" y="0.0" type="qcurve" smooth="yes"/>
      <point x="99.60655737704919" y="0.0" type="line"/>
    </contour>
  </outline>
</glyph>
<glyph name="t" format="2">
  <advance width="392.22131147540983"/>
  <unicode hex="0074"/>
  <outline>
    <contour>
      <point x="76.12295081967213" y="150.172131147541" type="qcurve" smooth="yes"/>
      <point x="76.12295081967213" y="690.0" type="line"/>
      <point x="156.12295081967213" y="690.0" type="line"/>
      <point x="156.12295081967213" y="519.8770491803278" type="line"/>
      <point x="346.22131147540983" y="519.8770491803278" type="line"/>
      <point x="346.22131147540983" y="449.75409836065575" type="line"/>
      <point x="156.12295081967213" y="449.75409836065575" type="line"/>
      <point x="156.12295081967213" y="140.172131147541" type="line" smooth="yes"/>
      <point x="156.12295081967213" y="70.12295081967213"/>
      <point x="226.172131147541" y="70.12295081967213" type="qcurve" smooth="yes"/>
      <point x="356.22131147540983" y="70.12295081967213" type="line"/>
      <point x="356.22131147540983" y="29.89344262295082" type="line"/>
      <point x="316.172131147541" y="0.0" type="line"/>
      <point x="226.29508196721312" y="0.0" type="line" smooth="yes"/>
      <point x="76.12295081967213" y="0.0"/>
    </contour>
  </outline>
</glyph>
<glyph name="u" format="2">
  <advance width="585.8770491803278"/>
  <unicode hex="0075"/>
  <outline>
    <contour>
      <point x="76.12295081967213" y="150.172131147541" type="qcurve" smooth="yes"/>
      <point x="76.12295081967213" y="519.8770491803278" type="line"/>
      <point x="156.12295081967213" y="519.8770491803278" type="line"/>
      <point x="156.12295081967213" y="140.172131147541" type="line" smooth="yes"/>
      <point x="156.12295081967213" y="70.12295081967213"/>
      <point x="226.172131147541" y="70.12295081967213" type="qcurve" smooth="yes"/>
      <point x="425.75409836065575" y="70.12295081967213" type="line"/>
      <point x="425.75409836065575" y="519.8770491803278" type="line"/>
      <point x="505.75409836065575" y="519.8770491803278" type="line"/>
      <point x="505.75409836065575" y="0.0" type="line"/>
      <point x="226.29508196721312" y="0.0" type="line" smooth="yes"/>
      <point x="76.12295081967213" y="0.0"/>
    </contour>
  </outline>
</glyph>
<glyph name="w" format="2">
  <advance width="784.672131147541"/>
  <unicode hex="0077"/>
  <outline>
    <contour>
      <point x="23.852459016393443" y="505.8606557377049" type="line"/>
      <point x="33.721311475409834" y="519.8770491803278" type="line"/>
      <point x="99.84426229508196" y="519.8770491803278" type="line"/>
      <point x="206.0655737704918" y="70.12295081967213" type="line"/>
      <point x="220.04918032786884" y="70.12295081967213" type="line"/>
      <point x="346.6885245901639" y="519.8770491803278" type="line"/>
      <point x="437.9836065573771" y="519.8770491803278" type="line"/>
      <point x="564.6229508196722" y="70.12295081967213" type="line"/>
      <point x="579.3196721311475" y="70.12295081967213" type="line"/>
      <point x="685.5409836065573" y="519.8770491803278" type="line"/>
      <point x="750.9508196721312" y="519.8770491803278" type="line"/>
      <point x="760.8196721311475" y="505.8606557377049" type="line"/>
      <point x="639.2868852459017" y="0.0" type="line"/>
      <point x="510.5245901639344" y="0.0" type="line"/>
      <point x="392.3360655737705" y="428.40983606557376" type="line"/>
      <point x="274.1475409836066" y="0.0" type="line"/>
      <point x="146.0983606557377" y="0.0" type="line"/>
    </contour>
  </outline>
</glyph>
<glyph name="x" format="2">
  <advance width="519.8032786885246"/>
  <unicode hex="0078"/>
  <outline>
    <contour>
      <point x="29.852459016393443" y="14.87704918032787" type="line"/>
      <point x="213.9672131147541" y="265.1475409836066" type="line"/>
      <point x="36.704918032786885" y="505.0" type="line"/>
      <point x="44.0" y="519.8770491803278" type="line"/>
      <point x="118.1311475409836" y="519.8770491803278" type="line"/>
      <point x="259.9016393442623" y="323.4016393442623" type="line"/>
      <point x="401.672131147541" y="519.8770491803278" type="line"/>
      <point x="475.8032786885246" y="519.8770491803278" type="line"/>
      <point x="483.0983606557377" y="505.0" type="line"/>
      <point x="306.54918032786884" y="265.1475409836066" type="line"/>
      <point x="489.95081967213116" y="14.87704918032787" type="line"/>
      <point x="483.3688524590164" y="0.0" type="line"/>
      <point x="408.5245901639344" y="0.0" type="line"/>
      <point x="259.9016393442623" y="206.60655737704917" type="line"/>
      <point x="111.27868852459017" y="0.0" type="line"/>
      <point x="37.14754098360656" y="0.0" type="line"/>
    </contour>
  </outline>
</glyph>
<glyph name="y" format="2">
  <advance width="519.8032786885246"/>
  <unicode hex="0079"/>
  <outline>
    <contour>
      <point x="19.852459016393443" y="505.8606557377049" type="line"/>
      <point x="29.008196721311474" y="519.8770491803278" type="line"/>
      <point x="98.1311475409836" y="519.8770491803278" type="line"/>
      <point x="249.77049180327867" y="70.12295081967213" type="line"/>
      <point x="270.0327868852459" y="70.12295081967213" type="line"/>
      <point x="421.672131147541" y="519.8770491803278" type="line"/>
      <point x="490.7950819672131" y="519.8770491803278" type="line"/>
      <point x="499.95081967213116" y="505.8606557377049" type="line"/>
      <point x="256.0081967213115" y="-200.0" type="line"/>
      <point x="186.88524590163934" y="-200.0" type="line"/>
      <point x="177.7295081967213" y="-185.98360655737704" type="line"/>
      <point x="245.4262295081967" y="0.0" type="line"/>
      <point x="195.0983606557377" y="0.0" type="line"/>
    </contour>
  </outline>
</glyph>
<glyph name="z" format="2">
  <advance width="509.87704918032784"/>
  <unicode hex="007A"/>
  <outline>
    <contour>
      <point x="50.122950819672134" y="0.0" type="line"/>
      <point x="50.122950819672134" y="62.24590163934426" type="line"/>
      <point x="348.8524590163934" y="449.75409836065575" type="line"/>
      <point x="60.122950819672134" y="449.75409836065575" type="line"/>
      <point x="60.122950819672134" y="519.8770491803278" type="line"/>
      <point x="449.75409836065575" y="519.8770491803278" type="line"/>
      <point x="449.75409836065575" y="457.6311475409836" type="line"/>
      <point x="151.31147540983608" y="70.12295081967213" type="line"/>
      <point x="459.75409836065575" y="70.12295081967213" type="line"/>
      <point x="459.75409836065575" y="0.0" type="line"/>
    </contour>
  </outline>
</glyph>
<glyph name="braceleft" format="2">
  <advance width="380.0983606557377"/>
  <unicode hex="007B"/>
  <outline>
    <contour>
      <point x="50.0" y="269.8114754098361" type="line"/>
      <point x="50.0" y="310.45081967213116" type="line"/>
      <point x="139.97540983606558" y="400.1393442622951" type="line"/>
      <point x="139.97540983606558" y="609.827868852459" type="line" smooth="yes"/>
      <point x="139.97540983606558" y="760.0"/>
      <point x="290.1475409836066" y="760.0" type="qcurve" smooth="yes"/>
      <point x="350.0983606557377" y="760.0" type="line"/>
      <point x="350.0983606557377" y="689.8770491803278" type="line"/>
      <point x="290.0245901639344" y="689.8770491803278" type="line" smooth="yes"/>
      <point x="219.97540983606558" y="689.8770491803278"/>
      <point x="219.97540983606558" y="619.827868852459" type="qcurve" smooth="yes"/>
      <point x="219.97540983606558" y="379.9672131147541" type="line"/>
      <point x="128.4262295081967" y="289.844262295082" type="line"/>
      <point x="219.97540983606558" y="199.72131147540983" type="line"/>
      <point x="219.97540983606558" y="-39.82786885245902" type="line" smooth="yes"/>
      <point x="219.97540983606558" y="-109.87704918032787"/>
      <point x="290.0245901639344" y="-109.87704918032787" type="qcurve" smooth="yes"/>
      <point x="350.0983606557377" y="-109.87704918032787" type="line"/>
      <point x="350.0983606557377" y="-180.0" type="line"/>
      <point x="290.1475409836066" y="-180.0" type="line" smooth="yes"/>
      <point x="139.97540983606558" y="-180.0"/>
      <point x="139.97540983606558" y="-29.827868852459016" type="qcurve" smooth="yes"/>
      <point x="139.97540983606558" y="179.54918032786884" type="line"/>
    </contour>
  </outline>
</glyph>
<glyph name="bar" format="2">
  <advance width="273.95081967213116"/>
  <unicode hex="007C"/>
  <outline>
    <contour>
      <point x="100.27049180327869" y="-200.0" type="line"/>
      <point x="100.27049180327869" y="740.0" type="line"/>
      <point x="174.39344262295083" y="740.0" type="line"/>
      <point x="174.39344262295083" y="-200.0" type="line"/>
    </contour>
  </outline>
</glyph>
<glyph name="braceright" format="2">
  <advance width="380.0983606557377"/>
  <unicode hex="007D"/>
  <outline>
    <contour>
      <point x="30.0" y="-109.87704918032787" type="line"/>
      <point x="90.07377049180327" y="-109.87704918032787" type="line" smooth="yes"/>
      <point x="160.12295081967213" y="-109.87704918032787"/>
      <point x="160.12295081967213" y="-39.82786885245902" type="qcurve" smooth="yes"/>
      <point x="160.12295081967213" y="199.72131147540983" type="line"/>
      <point x="251.672131147541" y="289.844262295082" type="line"/>
      <point x="160.12295081967213" y="379.9672131147541" type="line"/>
      <point x="160.12295081967213" y="619.827868852459" type="line" smooth="yes"/>
      <point x="160.12295081967213" y="689.8770491803278"/>
      <point x="90.07377049180327" y="689.8770491803278" type="qcurve" smooth="yes"/>
      <point x="30.0" y="689.8770491803278" type="line"/>
      <point x="30.0" y="760.0" type="line"/>
      <point x="89.95081967213115" y="760.0" type="line" smooth="yes"/>
      <point x="240.12295081967213" y="760.0"/>
      <point x="240.12295081967213" y="609.827868852459" type="qcurve" smooth="yes"/>
      <point x="240.12295081967213" y="400.1393442622951" type="line"/>
      <point x="330.0983606557377" y="310.45081967213116" type="line"/>
      <point x="330.0983606557377" y="269.8114754098361" type="line"/>
      <point x="240.12295081967213" y="179.54918032786884" type="line"/>
      <point x="240.12295081967213" y="-29.827868852459016" type="line" smooth="yes"/>
      <point x="240.12295081967213" y="-180.0"/>
      <point x="89.95081967213115" y="-180.0" type="qcurve" smooth="yes"/>
      <point x="30.0" y="-180.0" type="line"/>
    </contour>
  </outline>
</glyph>
<glyph name="asciitilde" format="2">
  <advance width="578.0"/>
  <unicode hex="007E"/>
  <outline>
    <contour>
      <point x="48.959016393442624" y="305.04098360655735" type="line"/>
      <point x="138.54098360655738" y="393.90983606557376" type="line" smooth="yes"/>
      <point x="168.8360655737705" y="424.91803278688525"/>
      <point x="249.1639344262295" y="424.91803278688525"/>
      <point x="279.4590163934426" y="393.90983606557376" type="qcurve" smooth="yes"/>
      <point x="339.3196721311475" y="334.76229508196724" type="line" smooth="yes"/>
      <point x="355.0163934426229" y="319.0655737704918"/>
      <point x="382.9836065573771" y="319.0655737704918"/>
      <point x="398.6803278688525" y="334.76229508196724" type="qcurve" smooth="yes"/>
      <point x="478.95901639344265" y="415.04098360655735" type="line"/>
      <point x="529.0409836065573" y="364.95901639344265" type="line"/>
      <point x="439.4590163934426" y="276.09016393442624" type="line" smooth="yes"/>
      <point x="409.1639344262295" y="245.08196721311475"/>
      <point x="328.8360655737705" y="245.08196721311475"/>
      <point x="298.5409836065574" y="276.09016393442624" type="qcurve" smooth="yes"/>
      <point x="238.68032786885246" y="335.23770491803276" type="line" smooth="yes"/>
      <point x="222.98360655737704" y="350.9344262295082"/>
      <point x="195.01639344262296" y="350.9344262295082"/>
      <point x="179.31967213114754" y="335.23770491803276" type="qcurve" smooth="yes"/>
      <point x="99.04098360655738" y="254.95901639344262" type="line"/>
    </contour>
  </outline>
</glyph>
<glyph name="exclamdown" format="2">
  <advance width="259.9016393442623"/>
  <unicode hex="00A1"/>
  <outline>
    <contour>
      <point x="81.67213114754098" y="413.07377049180326" type="line"/>
      <point x="81.67213114754098" y="519.8770491803278" type="line"/>
      <point x="178.94262295081967" y="519.8770491803278" type="line"/>
      <point x="178.94262295081967" y="413.07377049180326" type="line"/>
    </contour>
    <contour>
      <point x="88.09016393442623" y="-170.12295081967213" type="line"/>
      <point x="88.09016393442623" y="309.7049180327869" type="line"/>
      <point x="172.2377049180328" y="309.7049180327869" type="line"/>
      <point x="172.2377049180328" y="-170.12295081967213" type="line"/>
    </contour>
  </outline>
</glyph>
<glyph name="cent" format="2">
  <advance width="578.0"/>
  <unicode hex="00A2"/>
  <outline>
    <contour>
      <point x="93.82786885245902" y="150.172131147541" type="qcurve" smooth="yes"/>
      <point x="93.82786885245902" y="369.7049180327869" type="line" smooth="yes"/>
      <point x="93.82786885245902" y="519.8770491803278"/>
      <point x="244.0" y="519.8770491803278" type="qcurve" smooth="yes"/>
      <point x="282.655737704918" y="519.8770491803278" type="line"/>
      <point x="282.655737704918" y="629.8770491803278" type="line"/>
      <point x="349.344262295082" y="629.8770491803278" type="line"/>
      <point x="349.344262295082" y="519.8770491803278" type="line"/>
      <point x="439.9754098360656" y="519.8770491803278" type="line"/>
      <point x="480.0245901639344" y="489.9836065573771" type="line"/>
      <point x="480.0245901639344" y="449.75409836065575" type="line"/>
      <point x="243.87704918032787" y="449.75409836065575" type="line" smooth="yes"/>
      <point x="173.827868852459" y="449.75409836065575"/>
      <point x="173.827868852459" y="379.7049180327869" type="qcurve" smooth="yes"/>
      <point x="173.827868852459" y="140.172131147541" type="line" smooth="yes"/>
      <point x="173.827868852459" y="70.12295081967213"/>
      <point x="243.87704918032787" y="70.12295081967213" type="qcurve" smooth="yes"/>
      <point x="480.0245901639344" y="70.12295081967213" type="line"/>
      <point x="480.0245901639344" y="29.89344262295082" type="line"/>
      <point x="439.9754098360656" y="0.0" type="line"/>
      <point x="349.344262295082" y="0.0" type="line"/>
      <point x="349.344262295082" y="-110.0" type="line"/>
      <point x="282.655737704918" y="-110.0" type="line"/>
      <point x="282.655737704918" y="0.0" type="line"/>
      <point x="244.0" y="0.0" type="line" smooth="yes"/>
      <point x="93.82786885245902" y="0.0"/>
    </contour>
  </outline>
</glyph>
<glyph name="sterling" format="2">
  <advance width="578.0"/>
  <unicode hex="00A3"/>
  <outline>
    <contour>
      <point x="63.97540983606557" y="0.0" type="line"/>
      <point x="63.97540983606557" y="76.41803278688525" type="line"/>
      <point x="153.827868852459" y="76.41803278688525" type="line"/>
      <point x="153.827868852459" y="311.655737704918" type="line"/>
      <point x="63.97540983606557" y="311.655737704918" type="line"/>
      <point x="63.97540983606557" y="378.344262295082" type="line"/>
      <point x="153.827868852459" y="378.344262295082" type="line"/>
      <point x="153.827868852459" y="536.8196721311475" type="line" smooth="yes"/>
      <point x="153.827868852459" y="690.0"/>
      <point x="307.0081967213115" y="690.0" type="qcurve" smooth="yes"/>
      <point x="458.827868852459" y="690.0" type="line"/>
      <point x="504.0245901639344" y="654.9590163934427" type="line"/>
      <point x="504.0245901639344" y="613.5819672131148" type="line"/>
      <point x="306.0245901639344" y="613.5819672131148" type="line" smooth="yes"/>
      <point x="237.97540983606558" y="613.5819672131148"/>
      <point x="237.97540983606558" y="546.2459016393443" type="qcurve" smooth="yes"/>
      <point x="237.97540983606558" y="378.344262295082" type="line"/>
      <point x="418.0245901639344" y="378.344262295082" type="line"/>
      <point x="418.0245901639344" y="311.655737704918" type="line"/>
      <point x="237.97540983606558" y="311.655737704918" type="line"/>
      <point x="237.97540983606558" y="76.41803278688525" type="line"/>
      <point x="524.0245901639345" y="76.41803278688525" type="line"/>
      <point x="524.0245901639345" y="0.0" type="line"/>
    </contour>
  </outline>
</glyph>
<glyph name="currency" format="2">
  <advance width="578.0"/>
  <unicode hex="00A4"/>
  <outline>
    <contour>
      <point x="58.106557377049185" y="157.18032786885246" type="line"/>
      <point x="134.2704918032787" y="233.34426229508196" type="line"/>
      <point x="134.2704918032787" y="466.655737704918" type="line"/>
      <point x="58.106557377049185" y="542.8196721311475" type="line"/>
      <point x="101.18032786885246" y="585.8934426229508" type="line"/>
      <point x="177.34426229508196" y="509.7295081967213" type="line"/>
      <point x="400.655737704918" y="509.7295081967213" type="line"/>
      <point x="476.8196721311475" y="585.8934426229508" type="line"/>
      <point x="519.8934426229508" y="542.8196721311475" type="line"/>
      <point x="443.7295081967213" y="466.655737704918" type="line"/>
      <point x="443.7295081967213" y="233.34426229508196" type="line"/>
      <point x="519.8934426229508" y="157.18032786885246" type="line"/>
      <point x="476.8196721311475" y="114.10655737704919" type="line"/>
      <point x="400.655737704918" y="190.2704918032787" type="line"/>
      <point x="177.34426229508196" y="190.2704918032787" type="line"/>
      <point x="101.18032786885246" y="114.10655737704919" type="line"/>
    </contour>
    <contour>
      <point x="197.95081967213116" y="280.76229508196724" type="line" smooth="yes"/>
      <point x="197.95081967213116" y="248.2377049180328"/>
      <point x="230.47540983606558" y="248.2377049180328" type="qcurve" smooth="yes"/>
      <point x="347.5245901639344" y="248.2377049180328" type="line" smooth="yes"/>
      <point x="380.04918032786884" y="248.2377049180328"/>
      <point x="380.04918032786884" y="280.76229508196724" type="qcurve" smooth="yes"/>
      <point x="380.04918032786884" y="419.23770491803276" type="line" smooth="yes"/>
      <point x="380.04918032786884" y="451.76229508196724"/>
      <point x="347.5245901639344" y="451.76229508196724" type="qcurve" smooth="yes"/>
      <point x="230.47540983606558" y="451.76229508196724" type="line" smooth="yes"/>
      <point x="197.95081967213116" y="451.76229508196724"/>
      <point x="197.95081967213116" y="419.23770491803276" type="qcurve" smooth="yes"/>
    </contour>
  </outline>
</glyph>
<glyph name="yen" format="2">
  <advance width="578.0"/>
  <unicode hex="00A5"/>
  <outline>
    <contour>
      <point x="30.09016393442623" y="671.5491803278688" type="line"/>
      <point x="40.81967213114754" y="690.0" type="line"/>
      <point x="112.09016393442623" y="690.0" type="line"/>
      <point x="289.0" y="360.8524590163934" type="line"/>
      <point x="465.90983606557376" y="690.0" type="line"/>
      <point x="537.1803278688525" y="690.0" type="line"/>
      <point x="547.9098360655738" y="671.5491803278688" type="line"/>
      <point x="351.8196721311475" y="314.60655737704917" type="line"/>
      <point x="481.0245901639344" y="314.60655737704917" type="line"/>
      <point x="481.0245901639344" y="258.9754098360656" type="line"/>
      <point x="331.07377049180326" y="258.9754098360656" type="line"/>
      <point x="331.07377049180326" y="177.58196721311475" type="line"/>
      <point x="481.0245901639344" y="177.58196721311475" type="line"/>
      <point x="481.0245901639344" y="121.95081967213115" type="line"/>
      <point x="331.07377049180326" y="121.95081967213115" type="line"/>
      <point x="331.07377049180326" y="0.0" type="line"/>
      <point x="246.9262295081967" y="0.0" type="line"/>
      <point x="246.9262295081967" y="121.95081967213115" type="line"/>
      <point x="96.97540983606558" y="121.95081967213115" type="line"/>
      <point x="96.97540983606558" y="177.58196721311475" type="line"/>
      <point x="246.9262295081967" y="177.58196721311475" type="line"/>
      <point x="246.9262295081967" y="258.9754098360656" type="line"/>
      <point x="96.97540983606558" y="258.9754098360656" type="line"/>
      <point x="96.97540983606558" y="314.60655737704917" type="line"/>
      <point x="226.18032786885246" y="314.60655737704917" type="line"/>
    </contour>
  </outline>
</glyph>
<glyph name="brokenbar" format="2">
  <advance width="273.95081967213116"/>
  <unicode hex="00A6"/>
  <outline>
    <contour>
      <point x="100.27049180327869" y="169.7295081967213" type="line"/>
      <point x="174.39344262295083" y="169.7295081967213" type="line"/>
      <point x="174.39344262295083" y="-200.0" type="line"/>
      <point x="100.27049180327869" y="-200.0" type="line"/>
    </contour>
    <contour>
      <point x="100.27049180327869" y="370.2704918032787" type="line"/>
      <point x="100.27049180327869" y="740.0" type="line"/>
      <point x="174.39344262295083" y="740.0" type="line"/>
      <point x="174.39344262295083" y="370.2704918032787" type="line"/>
    </contour>
  </outline>
</glyph>
<glyph name="section" format="2">
  <advance width="540.2950819672132"/>
  <unicode hex="00A7"/>
  <outline>
    <contour>
      <point x="80.8360655737705" y="-29.87704918032787" type="line"/>
      <point x="307.9836065573771" y="-29.87704918032787" type="line" smooth="yes"/>
      <point x="379.60655737704917" y="-29.87704918032787"/>
      <point x="379.60655737704917" y="39.90163934426229" type="qcurve" smooth="yes"/>
      <point x="379.60655737704917" y="94.99180327868852"/>
      <point x="346.77868852459017" y="102.98360655737704" type="qcurve" smooth="yes"/>
      <point x="183.45081967213116" y="141.37704918032787" type="line" smooth="yes"/>
      <point x="80.8360655737705" y="164.09016393442624"/>
      <point x="80.8360655737705" y="276.54918032786884" type="qcurve" smooth="yes"/>
      <point x="80.8360655737705" y="412.90983606557376" type="line"/>
      <point x="115.28688524590164" y="447.3606557377049" type="line"/>
      <point x="80.8360655737705" y="480.3688524590164"/>
      <point x="80.8360655737705" y="545.2459016393443" type="qcurve" smooth="yes"/>
      <point x="80.8360655737705" y="690.0"/>
      <point x="228.15573770491804" y="690.0" type="qcurve" smooth="yes"/>
      <point x="396.6967213114754" y="690.0" type="line"/>
      <point x="436.74590163934425" y="660.1065573770492" type="line"/>
      <point x="436.74590163934425" y="619.8770491803278" type="line"/>
      <point x="232.88524590163934" y="619.8770491803278" type="line" smooth="yes"/>
      <point x="161.2622950819672" y="619.8770491803278"/>
      <point x="161.2622950819672" y="550.0983606557377" type="qcurve" smooth="yes"/>
      <point x="161.2622950819672" y="495.0081967213115"/>
      <point x="193.80327868852459" y="487.0163934426229" type="qcurve" smooth="yes"/>
      <point x="357.1311475409836" y="448.62295081967216" type="line" smooth="yes"/>
      <point x="460.0327868852459" y="425.90983606557376"/>
      <point x="460.0327868852459" y="313.45081967213116" type="qcurve" smooth="yes"/>
      <point x="460.0327868852459" y="177.09016393442624" type="line"/>
      <point x="425.58196721311475" y="142.63934426229508" type="line"/>
      <point x="460.0327868852459" y="109.6311475409836"/>
      <point x="460.0327868852459" y="44.75409836065574" type="qcurve" smooth="yes"/>
      <point x="460.0327868852459" y="-100.0"/>
      <point x="312.71311475409834" y="-100.0" type="qcurve" smooth="yes"/>
      <point x="120.88524590163934" y="-100.0" type="line"/>
      <point x="80.8360655737705" y="-70.10655737704919" type="line"/>
    </contour>
    <contour>
      <point x="161.2622950819672" y="279.26229508196724" type="line" smooth="yes"/>
      <point x="161.2622950819672" y="219.5983606557377"/>
      <point x="209.49180327868854" y="207.61475409836066" type="qcurve" smooth="yes"/>
      <point x="379.60655737704917" y="166.95081967213116" type="line"/>
      <point x="379.60655737704917" y="310.73770491803276" type="line" smooth="yes"/>
      <point x="379.60655737704917" y="370.4016393442623"/>
      <point x="331.09016393442624" y="382.38524590163934" type="qcurve" smooth="yes"/>
      <point x="161.2622950819672" y="423.04918032786884" type="line"/>
    </contour>
  </outline>
</glyph>
<glyph name="copyright" format="2">
  <advance width="840.2950819672132"/>
  <unicode hex="00A9"/>
  <outline>
    <contour>
      <point x="80.12295081967213" y="96.47540983606558" type="qcurve" smooth="yes"/>
      <point x="80.12295081967213" y="593.5245901639345" type="line" smooth="yes"/>
      <point x="80.12295081967213" y="690.0"/>
      <point x="176.5983606557377" y="690.0" type="qcurve" smooth="yes"/>
      <point x="663.6967213114754" y="690.0" type="line" smooth="yes"/>
      <point x="760.172131147541" y="690.0"/>
      <point x="760.172131147541" y="593.5245901639345" type="qcurve" smooth="yes"/>
      <point x="760.172131147541" y="96.47540983606558" type="line" smooth="yes"/>
      <point x="760.172131147541" y="0.0"/>
      <point x="663.6967213114754" y="0.0" type="qcurve" smooth="yes"/>
      <point x="176.5983606557377" y="0.0" type="line" smooth="yes"/>
      <point x="80.12295081967213" y="0.0"/>
    </contour>
    <contour>
      <point x="140.36885245901638" y="89.32786885245902" type="line" smooth="yes"/>
      <point x="140.36885245901638" y="53.950819672131146"/>
      <point x="175.0327868852459" y="53.950819672131146" type="qcurve" smooth="yes"/>
      <point x="664.5491803278688" y="53.950819672131146" type="line" smooth="yes"/>
      <point x="699.9262295081967" y="53.950819672131146"/>
      <point x="699.9262295081967" y="89.32786885245902" type="qcurve" smooth="yes"/>
      <point x="699.9262295081967" y="600.672131147541" type="line" smooth="yes"/>
      <point x="699.9262295081967" y="636.0491803278688"/>
      <point x="664.5491803278688" y="636.0491803278688" type="qcurve" smooth="yes"/>
      <point x="175.0327868852459" y="636.0491803278688" type="line" smooth="yes"/>
      <point x="140.36885245901638" y="636.0491803278688"/>
      <point x="140.36885245901638" y="600.672131147541" type="qcurve" smooth="yes"/>
    </contour>
    <contour>
      <point x="260.27868852459017" y="249.36065573770492" type="qcurve" smooth="yes"/>
      <point x="260.27868852459017" y="440.6393442622951" type="line" smooth="yes"/>
      <point x="260.27868852459017" y="540.1229508196722"/>
      <point x="359.4754098360656" y="540.1229508196722" type="qcurve" smooth="yes"/>
      <point x="518.1229508196722" y="540.1229508196722" type="line"/>
      <point x="550.016393442623" y="514.9508196721312" type="line"/>
      <point x="550.016393442623" y="482.0245901639344" type="line"/>
      <point x="357.90983606557376" y="482.0245901639344" type="line" smooth="yes"/>
      <point x="323.9590163934426" y="482.0245901639344"/>
      <point x="323.9590163934426" y="448.07377049180326" type="qcurve" smooth="yes"/>
      <point x="323.9590163934426" y="241.9262295081967" type="line" smooth="yes"/>
      <point x="323.9590163934426" y="207.97540983606558"/>
      <point x="357.90983606557376" y="207.97540983606558" type="qcurve" smooth="yes"/>
      <point x="550.016393442623" y="207.97540983606558" type="line"/>
      <point x="550.016393442623" y="175.04918032786884" type="line"/>
      <point x="518.1229508196722" y="149.87704918032787" type="line"/>
      <point x="359.4754098360656" y="149.87704918032787" type="line" smooth="yes"/>
      <point x="260.27868852459017" y="149.87704918032787"/>
    </contour>
  </outline>
</glyph>
<glyph name="ordfeminine" format="2">
  <advance width="400.2950819672131"/>
  <unicode hex="00AA"/>
  <outline>
    <contour>
      <point x="40.27049180327869" y="396.3196721311475" type="qcurve" smooth="yes"/>
      <point x="40.27049180327869" y="433.26229508196724" type="line" smooth="yes"/>
      <point x="40.27049180327869" y="529.8770491803278"/>
      <point x="142.62295081967213" y="529.8770491803278" type="qcurve" smooth="yes"/>
      <point x="285.6311475409836" y="529.8770491803278" type="line"/>
      <point x="285.6311475409836" y="597.9508196721312" type="line" smooth="yes"/>
      <point x="285.6311475409836" y="631.9016393442623"/>
      <point x="251.68032786885246" y="631.9016393442623" type="qcurve" smooth="yes"/>
      <point x="70.14754098360656" y="631.9016393442623" type="line"/>
      <point x="70.14754098360656" y="664.827868852459" type="line"/>
      <point x="102.32786885245902" y="690.0" type="line"/>
      <point x="250.54098360655738" y="690.0" type="line" smooth="yes"/>
      <point x="350.0245901639344" y="690.0"/>
      <point x="350.0245901639344" y="590.516393442623" type="qcurve" smooth="yes"/>
      <point x="350.0245901639344" y="299.7049180327869" type="line"/>
      <point x="142.62295081967213" y="299.7049180327869" type="line" smooth="yes"/>
      <point x="40.27049180327869" y="299.7049180327869"/>
    </contour>
    <contour>
      <point x="103.95081967213115" y="391.75409836065575" type="line" smooth="yes"/>
      <point x="103.95081967213115" y="357.8032786885246"/>
      <point x="137.9016393442623" y="357.8032786885246" type="qcurve" smooth="yes"/>
      <point x="285.6311475409836" y="357.8032786885246" type="line"/>
      <point x="285.6311475409836" y="476.94262295081967" type="line"/>
      <point x="137.9016393442623" y="476.94262295081967" type="line" smooth="yes"/>
      <point x="103.95081967213115" y="476.94262295081967"/>
      <point x="103.95081967213115" y="442.9918032786885" type="qcurve" smooth="yes"/>
    </contour>
  </outline>
</glyph>
<glyph name="logicalnot" format="2">
  <advance width="578.0"/>
  <unicode hex="00AC"/>
  <outline>
    <contour>
      <point x="63.704918032786885" y="349.655737704918" type="line"/>
      <point x="63.704918032786885" y="420.344262295082" type="line"/>
      <point x="514.2950819672132" y="420.344262295082" type="line"/>
      <point x="514.2950819672132" y="149.70491803278688" type="line"/>
      <point x="440.172131147541" y="149.70491803278688" type="line"/>
      <point x="440.172131147541" y="349.655737704918" type="line"/>
    </contour>
  </outline>
</glyph>
<glyph name="registered" format="2">
  <advance width="840.2950819672132"/>
  <unicode hex="00AE"/>
  <outline>
    <contour>
      <point x="80.12295081967213" y="96.47540983606558" type="qcurve" smooth="yes"/>
      <point x="80.12295081967213" y="593.5245901639345" type="line" smooth="yes"/>
      <point x="80.12295081967213" y="690.0"/>
      <point x="176.5983606557377" y="690.0" type="qcurve" smooth="yes"/>
      <point x="663.6967213114754" y="690.0" type="line" smooth="yes"/>
      <point x="760.172131147541" y="690.0"/>
      <point x="760.172131147541" y="593.5245901639345" type="qcurve" smooth="yes"/>
      <point x="760.172131147541" y="96.47540983606558" type="line" smooth="yes"/>
      <point x="760.172131147541" y="0.0"/>
      <point x="663.6967213114754" y="0.0" type="qcurve" smooth="yes"/>
      <point x="176.5983606557377" y="0.0" type="line" smooth="yes"/>
      <point x="80.12295081967213" y="0.0"/>
    </contour>
    <contour>
      <point x="140.36885245901638" y="89.32786885245902" type="line" smooth="yes"/>
      <point x="140.36885245901638" y="53.950819672131146"/>
      <point x="175.0327868852459" y="53.950819672131146" type="qcurve" smooth="yes"/>
      <point x="664.5491803278688" y="53.950819672131146" type="line" smooth="yes"/>
      <point x="699.9262295081967" y="53.950819672131146"/>
      <point x="699.9262295081967" y="89.32786885245902" type="qcurve" smooth="yes"/>
      <point x="699.9262295081967" y="600.672131147541" type="line" smooth="yes"/>
      <point x="699.9262295081967" y="636.0491803278688"/>
      <point x="664.5491803278688" y="636.0491803278688" type="qcurve" smooth="yes"/>
      <point x="175.0327868852459" y="636.0491803278688" type="line" smooth="yes"/>
      <point x="140.36885245901638" y="636.0491803278688"/>
      <point x="140.36885245901638" y="600.672131147541" type="qcurve" smooth="yes"/>
    </contour>
    <contour>
      <point x="278.6967213114754" y="149.87704918032787" type="line"/>
      <point x="278.6967213114754" y="540.1229508196722" type="line"/>
      <point x="468.6803278688525" y="540.1229508196722" type="line" smooth="yes"/>
      <point x="568.4508196721312" y="540.1229508196722"/>
      <point x="568.4508196721312" y="440.6393442622951" type="qcurve" smooth="yes"/>
      <point x="568.4508196721312" y="394.27868852459017" type="line" smooth="yes"/>
      <point x="568.4508196721312" y="318.27868852459017"/>
      <point x="508.76229508196724" y="301.5327868852459" type="qcurve"/>
      <point x="577.7213114754098" y="164.75409836065575" type="line"/>
      <point x="570.139344262295" y="149.87704918032787" type="line"/>
      <point x="515.327868852459" y="149.87704918032787" type="line"/>
      <point x="440.94262295081967" y="295.08196721311475" type="line"/>
      <point x="343.09016393442624" y="295.08196721311475" type="line"/>
      <point x="343.09016393442624" y="149.87704918032787" type="line"/>
    </contour>
    <contour>
      <point x="343.09016393442624" y="353.1803278688525" type="line"/>
      <point x="470.10655737704917" y="353.1803278688525" type="line" smooth="yes"/>
      <point x="504.05737704918033" y="353.1803278688525"/>
      <point x="504.05737704918033" y="387.1311475409836" type="qcurve" smooth="yes"/>
      <point x="504.05737704918033" y="448.07377049180326" type="line" smooth="yes"/>
      <point x="504.05737704918033" y="482.0245901639344"/>
      <point x="470.10655737704917" y="482.0245901639344" type="qcurve" smooth="yes"/>
      <point x="343.09016393442624" y="482.0245901639344" type="line"/>
    </contour>
  </outline>
</glyph>
<glyph name="degree" format="2">
  <advance width="410.1475409836066"/>
  <unicode hex="00B0"/>
  <outline>
    <contour>
      <point x="60.122950819672134" y="467.1885245901639" type="qcurve" smooth="yes"/>
      <point x="60.122950819672134" y="592.811475409836" type="line" smooth="yes"/>
      <point x="60.122950819672134" y="690.0"/>
      <point x="157.31147540983608" y="690.0" type="qcurve" smooth="yes"/>
      <point x="252.8360655737705" y="690.0" type="line" smooth="yes"/>
      <point x="350.0245901639344" y="690.0"/>
      <point x="350.0245901639344" y="592.811475409836" type="qcurve" smooth="yes"/>
      <point x="350.0245901639344" y="467.1885245901639" type="line" smooth="yes"/>
      <point x="350.0245901639344" y="370.0"/>
      <point x="252.8360655737705" y="370.0" type="qcurve" smooth="yes"/>
      <point x="157.31147540983608" y="370.0" type="line" smooth="yes"/>
      <point x="60.122950819672134" y="370.0"/>
    </contour>
    <contour>
      <point x="120.3688524590164" y="460.75409836065575" type="line" smooth="yes"/>
      <point x="120.3688524590164" y="423.95081967213116"/>
      <point x="157.172131147541" y="423.95081967213116" type="qcurve" smooth="yes"/>
      <point x="252.97540983606558" y="423.95081967213116" type="line" smooth="yes"/>
      <point x="289.77868852459017" y="423.95081967213116"/>
      <point x="289.77868852459017" y="460.75409836065575" type="qcurve" smooth="yes"/>
      <point x="289.77868852459017" y="599.2459016393443" type="line" smooth="yes"/>
      <point x="289.77868852459017" y="636.0491803278688"/>
      <point x="252.97540983606558" y="636.0491803278688" type="qcurve" smooth="yes"/>
      <point x="157.172131147541" y="636.0491803278688" type="line" smooth="yes"/>
      <point x="120.3688524590164" y="636.0491803278688"/>
      <point x="120.3688524590164" y="599.2459016393443" type="qcurve" smooth="yes"/>
    </contour>
  </outline>
</glyph>
<glyph name="plusminus" format="2">
  <advance width="578.0"/>
  <unicode hex="00B1"/>
  <outline>
    <contour>
      <point x="63.704918032786885" y="0.0" type="line"/>
      <point x="63.704918032786885" y="69.97540983606558" type="line"/>
      <point x="514.2950819672132" y="69.97540983606558" type="line"/>
      <point x="514.2950819672132" y="0.0" type="line"/>
    </contour>
    <contour>
      <point x="63.704918032786885" y="319.7049180327869" type="line"/>
      <point x="63.704918032786885" y="390.39344262295083" type="line"/>
      <point x="251.79508196721312" y="390.39344262295083" type="line"/>
      <point x="251.79508196721312" y="579.7540983606557" type="line"/>
      <point x="326.2049180327869" y="579.7540983606557" type="line"/>
      <point x="326.2049180327869" y="390.39344262295083" type="line"/>
      <point x="514.2950819672132" y="390.39344262295083" type="line"/>
      <point x="514.2950819672132" y="319.7049180327869" type="line"/>
      <point x="326.2049180327869" y="319.7049180327869" type="line"/>
      <point x="326.2049180327869" y="130.34426229508196" type="line"/>
      <point x="251.79508196721312" y="130.34426229508196" type="line"/>
      <point x="251.79508196721312" y="319.7049180327869" type="line"/>
    </contour>
  </outline>
</glyph>
<glyph name="uni00B2" format="2">
  <advance width="359.7295081967213"/>
  <unicode hex="00B2"/>
  <outline>
    <contour>
      <point x="40.27049180327869" y="280.2704918032787" type="line"/>
      <point x="40.27049180327869" y="402.58196721311475" type="line" smooth="yes"/>
      <point x="40.27049180327869" y="483.4672131147541"/>
      <point x="115.1639344262295" y="498.1885245901639" type="qcurve" smooth="yes"/>
      <point x="225.24590163934425" y="520.0327868852459" type="line" smooth="yes"/>
      <point x="255.77868852459017" y="526.0245901639345"/>
      <point x="255.77868852459017" y="556.4180327868852" type="qcurve" smooth="yes"/>
      <point x="255.77868852459017" y="597.9508196721312" type="line" smooth="yes"/>
      <point x="255.77868852459017" y="631.9016393442623"/>
      <point x="221.827868852459" y="631.9016393442623" type="qcurve" smooth="yes"/>
      <point x="52.27049180327869" y="631.9016393442623" type="line"/>
      <point x="52.27049180327869" y="664.827868852459" type="line"/>
      <point x="84.45081967213115" y="690.0" type="line"/>
      <point x="220.68852459016392" y="690.0" type="line" smooth="yes"/>
      <point x="320.172131147541" y="690.0"/>
      <point x="320.172131147541" y="590.516393442623" type="qcurve" smooth="yes"/>
      <point x="320.172131147541" y="560.4016393442623" type="line" smooth="yes"/>
      <point x="320.172131147541" y="478.5163934426229"/>
      <point x="244.99180327868854" y="463.7950819672131" type="qcurve" smooth="yes"/>
      <point x="135.19672131147541" y="441.95081967213116" type="line" smooth="yes"/>
      <point x="103.95081967213115" y="435.95901639344265"/>
      <point x="103.95081967213115" y="405.8524590163934" type="qcurve" smooth="yes"/>
      <point x="103.95081967213115" y="338.3688524590164" type="line"/>
      <point x="320.172131147541" y="338.3688524590164" type="line"/>
      <point x="320.172131147541" y="280.2704918032787" type="line"/>
    </contour>
  </outline>
</glyph>
<glyph name="uni00B3" format="2">
  <advance width="359.7295081967213"/>
  <unicode hex="00B3"/>
  <outline>
    <contour>
      <point x="46.27049180327869" y="304.7295081967213" type="line"/>
      <point x="46.27049180327869" y="338.3688524590164" type="line"/>
      <point x="221.827868852459" y="338.3688524590164" type="line" smooth="yes"/>
      <point x="255.77868852459017" y="338.3688524590164"/>
      <point x="255.77868852459017" y="372.3196721311475" type="qcurve" smooth="yes"/>
      <point x="255.77868852459017" y="428.2704918032787" type="line" smooth="yes"/>
      <point x="255.77868852459017" y="462.22131147540983"/>
      <point x="221.827868852459" y="462.22131147540983" type="qcurve" smooth="yes"/>
      <point x="90.27049180327869" y="462.22131147540983" type="line"/>
      <point x="90.27049180327869" y="520.3196721311475" type="line"/>
      <point x="221.827868852459" y="520.3196721311475" type="line" smooth="yes"/>
      <point x="255.77868852459017" y="520.3196721311475"/>
      <point x="255.77868852459017" y="554.2704918032787" type="qcurve" smooth="yes"/>
      <point x="255.77868852459017" y="597.9508196721312" type="line" smooth="yes"/>
      <point x="255.77868852459017" y="631.9016393442623"/>
      <point x="221.827868852459" y="631.9016393442623" type="qcurve" smooth="yes"/>
      <point x="52.27049180327869" y="631.9016393442623" type="line"/>
      <point x="52.27049180327869" y="664.827868852459" type="line"/>
      <point x="84.45081967213115" y="690.0" type="line"/>
      <point x="220.68852459016392" y="690.0" type="line" smooth="yes"/>
      <point x="320.172131147541" y="690.0"/>
      <point x="320.172131147541" y="590.516393442623" type="qcurve" smooth="yes"/>
      <point x="320.172131147541" y="560.1229508196722" type="line" smooth="yes"/>
      <point x="320.172131147541" y="533.1229508196722"/>
      <point x="303.172131147541" y="516.1229508196722" type="qcurve" smooth="yes"/>
      <point x="280.172131147541" y="493.12295081967216" type="line"/>
      <point x="303.172131147541" y="470.12295081967216" type="line" smooth="yes"/>
      <point x="320.172131147541" y="453.12295081967216"/>
      <point x="320.172131147541" y="426.12295081967216" type="qcurve" smooth="yes"/>
      <point x="320.172131147541" y="379.04098360655735" type="line" smooth="yes"/>
      <point x="320.172131147541" y="280.2704918032787"/>
      <point x="220.68852459016392" y="280.2704918032787" type="qcurve" smooth="yes"/>
      <point x="78.45081967213115" y="280.2704918032787" type="line"/>
    </contour>
  </outline>
</glyph>
<glyph name="mu" format="2">
  <advance width="585.8770491803278"/>
  <unicode hex="00B5"/>
  <outline>
    <contour>
      <point x="80.12295081967213" y="-200.0" type="line"/>
      <point x="80.12295081967213" y="519.8770491803278" type="line"/>
      <point x="160.12295081967213" y="519.8770491803278" type="line"/>
      <point x="160.12295081967213" y="70.12295081967213" type="line"/>
      <point x="359.7049180327869" y="70.12295081967213" type="line" smooth="yes"/>
      <point x="429.75409836065575" y="70.12295081967213"/>
      <point x="429.75409836065575" y="140.172131147541" type="qcurve" smooth="yes"/>
      <point x="429.75409836065575" y="519.8770491803278" type="line"/>
      <point x="509.75409836065575" y="519.8770491803278" type="line"/>
      <point x="509.75409836065575" y="150.172131147541" type="line" smooth="yes"/>
      <point x="509.75409836065575" y="0.0"/>
      <point x="360.2950819672131" y="0.0" type="qcurve" smooth="yes"/>
      <point x="160.12295081967213" y="0.0" type="line"/>
      <point x="160.12295081967213" y="-200.0" type="line"/>
    </contour>
  </outline>
</glyph>
<glyph name="paragraph" format="2">
  <advance width="580.3196721311475"/>
  <unicode hex="00B6"/>
  <outline>
    <contour>
      <point x="70.12295081967213" y="389.92622950819674" type="qcurve" smooth="yes"/>
      <point x="70.12295081967213" y="540.0" type="line" smooth="yes"/>
      <point x="70.12295081967213" y="690.0"/>
      <point x="220.12295081967213" y="690.0" type="qcurve" smooth="yes"/>
      <point x="330.1967213114754" y="690.0" type="line"/>
      <point x="330.1967213114754" y="239.9262295081967" type="line"/>
      <point x="220.12295081967213" y="239.9262295081967" type="line" smooth="yes"/>
      <point x="70.12295081967213" y="239.9262295081967"/>
    </contour>
    <contour>
      <point x="400.1967213114754" y="-170.0" type="line"/>
      <point x="400.1967213114754" y="690.0" type="line"/>
      <point x="480.1967213114754" y="690.0" type="line"/>
      <point x="480.1967213114754" y="-170.0" type="line"/>
    </contour>
  </outline>
</glyph>
<glyph name="uni00B9" format="2">
  <advance width="359.7295081967213"/>
  <unicode hex="00B9"/>
  <outline>
    <contour>
      <point x="58.27049180327869" y="280.2704918032787" type="line"/>
      <point x="58.27049180327869" y="338.3688524590164" type="line"/>
      <point x="158.52459016393442" y="338.3688524590164" type="line"/>
      <point x="158.52459016393442" y="631.9016393442623" type="line"/>
      <point x="78.82786885245902" y="631.9016393442623" type="line"/>
      <point x="78.82786885245902" y="664.827868852459" type="line"/>
      <point x="111.00819672131148" y="690.0" type="line"/>
      <point x="222.91803278688525" y="690.0" type="line"/>
      <point x="222.91803278688525" y="338.3688524590164" type="line"/>
      <point x="314.172131147541" y="338.3688524590164" type="line"/>
      <point x="314.172131147541" y="280.2704918032787" type="line"/>
    </contour>
  </outline>
</glyph>
<glyph name="ordmasculine" format="2">
  <advance width="430.2950819672131"/>
  <unicode hex="00BA"/>
  <outline>
    <contour>
      <point x="50.27049180327869" y="399.1885245901639" type="qcurve" smooth="yes"/>
      <point x="50.27049180327869" y="590.516393442623" type="line" smooth="yes"/>
      <point x="50.27049180327869" y="690.0"/>
      <point x="149.75409836065575" y="690.0" type="qcurve" smooth="yes"/>
      <point x="280.5409836065574" y="690.0" type="line" smooth="yes"/>
      <point x="380.0245901639344" y="690.0"/>
      <point x="380.0245901639344" y="590.516393442623" type="qcurve" smooth="yes"/>
      <point x="380.0245901639344" y="399.1885245901639" type="line" smooth="yes"/>
      <point x="380.0245901639344" y="299.7049180327869"/>
      <point x="280.5409836065574" y="299.7049180327869" type="qcurve" smooth="yes"/>
      <point x="149.75409836065575" y="299.7049180327869" type="line" smooth="yes"/>
      <point x="50.27049180327869" y="299.7049180327869"/>
    </contour>
    <contour>
      <point x="113.95081967213115" y="391.75409836065575" type="line" smooth="yes"/>
      <point x="113.95081967213115" y="357.8032786885246"/>
      <point x="147.9016393442623" y="357.8032786885246" type="qcurve" smooth="yes"/>
      <point x="281.6803278688525" y="357.8032786885246" type="line" smooth="yes"/>
      <point x="315.6311475409836" y="357.8032786885246"/>
      <point x="315.6311475409836" y="391.75409836065575" type="qcurve" smooth="yes"/>
      <point x="315.6311475409836" y="597.9508196721312" type="line" smooth="yes"/>
      <point x="315.6311475409836" y="631.9016393442623"/>
      <point x="281.6803278688525" y="631.9016393442623" type="qcurve" smooth="yes"/>
      <point x="147.9016393442623" y="631.9016393442623" type="line" smooth="yes"/>
      <point x="113.95081967213115" y="631.9016393442623"/>
      <point x="113.95081967213115" y="597.9508196721312" type="qcurve" smooth="yes"/>
    </contour>
  </outline>
</glyph>
<glyph name="questiondown" format="2">
  <advance width="480.344262295082"/>
  <unicode hex="00BF"/>
  <outline>
    <contour>
      <point x="50.0" y="-16.942622950819672" type="qcurve" smooth="yes"/>
      <point x="50.0" y="70.17213114754098" type="line" smooth="yes"/>
      <point x="50.0" y="226.22131147540983"/>
      <point x="200.31147540983608" y="226.22131147540983" type="qcurve" smooth="yes"/>
      <point x="244.95901639344262" y="226.22131147540983" type="line"/>
      <point x="244.95901639344262" y="309.7049180327869" type="line"/>
      <point x="330.24590163934425" y="309.7049180327869" type="line"/>
      <point x="330.24590163934425" y="149.80327868852459" type="line"/>
      <point x="202.19672131147541" y="149.80327868852459" type="line" smooth="yes"/>
      <point x="134.14754098360655" y="149.80327868852459"/>
      <point x="134.14754098360655" y="81.75409836065573" type="qcurve" smooth="yes"/>
      <point x="134.14754098360655" y="-25.65573770491803" type="line" smooth="yes"/>
      <point x="134.14754098360655" y="-93.70491803278688"/>
      <point x="202.19672131147541" y="-93.70491803278688" type="qcurve" smooth="yes"/>
      <point x="460.344262295082" y="-93.70491803278688" type="line"/>
      <point x="460.344262295082" y="-135.08196721311475" type="line"/>
      <point x="415.1475409836066" y="-170.12295081967213" type="line"/>
      <point x="203.18032786885246" y="-170.12295081967213" type="line" smooth="yes"/>
      <point x="50.0" y="-170.12295081967213"/>
    </contour>
    <contour>
      <point x="239.39344262295083" y="413.07377049180326" type="line"/>
      <point x="239.39344262295083" y="519.8770491803278" type="line"/>
      <point x="336.95081967213116" y="519.8770491803278" type="line"/>
      <point x="336.95081967213116" y="413.07377049180326" type="line"/>
    </contour>
  </outline>
</glyph>
<glyph name="AE" format="2">
  <advance width="889.9508196721312"/>
  <unicode hex="00C6"/>
  <outline>
    <contour>
      <point x="19.852459016393443" y="18.450819672131146" type="line"/>
      <point x="246.22950819672133" y="690.0" type="line"/>
      <point x="839.9508196721312" y="690.0" type="line"/>
      <point x="839.9508196721312" y="613.5819672131148" type="line"/>
      <point x="504.0" y="613.5819672131148" type="line"/>
      <point x="504.0" y="400.04918032786884" type="line"/>
      <point x="809.9508196721312" y="400.04918032786884" type="line"/>
      <point x="809.9508196721312" y="323.6311475409836" type="line"/>
      <point x="504.0" y="323.6311475409836" type="line"/>
      <point x="504.0" y="76.41803278688525" type="line"/>
      <point x="839.9508196721312" y="76.41803278688525" type="line"/>
      <point x="839.9508196721312" y="0.0" type="line"/>
      <point x="419.8524590163934" y="0.0" type="line"/>
      <point x="419.8524590163934" y="173.63114754098362" type="line"/>
      <point x="158.0983606557377" y="173.63114754098362" type="line"/>
      <point x="101.27868852459017" y="0.0" type="line"/>
      <point x="32.295081967213115" y="0.0" type="line"/>
    </contour>
    <contour>
      <point x="183.41803278688525" y="250.04918032786884" type="line"/>
      <point x="419.8524590163934" y="250.04918032786884" type="line"/>
      <point x="419.8524590163934" y="613.5819672131148" type="line"/>
      <point x="303.1967213114754" y="613.5819672131148" type="line"/>
    </contour>
  </outline>
</glyph>
<glyph name="Eth" format="2">
  <advance width="690.3196721311475"/>
  <unicode hex="00D0"/>
  <outline>
    <contour>
      <point x="20.0" y="311.655737704918" type="line"/>
      <point x="20.0" y="378.344262295082" type="line"/>
      <point x="99.85245901639344" y="378.344262295082" type="line"/>
      <point x="99.85245901639344" y="690.0" type="line"/>
      <point x="396.12295081967216" y="690.0" type="line" smooth="yes"/>
      <point x="620.1967213114754" y="690.0"/>
      <point x="620.1967213114754" y="465.92622950819674" type="qcurve" smooth="yes"/>
      <point x="620.1967213114754" y="224.0737704918033" type="line" smooth="yes"/>
      <point x="620.1967213114754" y="0.0"/>
      <point x="396.12295081967216" y="0.0" type="qcurve" smooth="yes"/>
      <point x="99.85245901639344" y="0.0" type="line"/>
      <point x="99.85245901639344" y="311.655737704918" type="line"/>
    </contour>
    <contour>
      <point x="184.0" y="76.41803278688525" type="line"/>
      <point x="396.12295081967216" y="76.41803278688525" type="line" smooth="yes"/>
      <point x="536.0491803278688" y="76.41803278688525"/>
      <point x="536.0491803278688" y="216.34426229508196" type="qcurve" smooth="yes"/>
      <point x="536.0491803278688" y="473.655737704918" type="line" smooth="yes"/>
      <point x="536.0491803278688" y="613.5819672131148"/>
      <point x="396.12295081967216" y="613.5819672131148" type="qcurve" smooth="yes"/>
      <point x="184.0" y="613.5819672131148" type="line"/>
      <point x="184.0" y="378.344262295082" type="line"/>
      <point x="360.0245901639344" y="378.344262295082" type="line"/>
      <point x="360.0245901639344" y="311.655737704918" type="line"/>
      <point x="184.0" y="311.655737704918" type="line"/>
    </contour>
  </outline>
</glyph>
<glyph name="multiply" format="2">
  <advance width="578.0"/>
  <unicode hex="00D7"/>
  <outline>
    <contour>
      <point x="83.67213114754098" y="180.327868852459" type="line"/>
      <point x="238.63114754098362" y="335.0" type="line"/>
      <point x="83.67213114754098" y="489.672131147541" type="line"/>
      <point x="134.327868852459" y="540.327868852459" type="line"/>
      <point x="289.0" y="385.3688524590164" type="line"/>
      <point x="443.672131147541" y="540.327868852459" type="line"/>
      <point x="494.327868852459" y="489.672131147541" type="line"/>
      <point x="339.3688524590164" y="335.0" type="line"/>
      <point x="494.327868852459" y="180.327868852459" type="line"/>
      <point x="443.672131147541" y="129.672131147541" type="line"/>
      <point x="289.0" y="284.6311475409836" type="line"/>
      <point x="134.327868852459" y="129.672131147541" type="line"/>
    </contour>
  </outline>
</glyph>
<glyph name="Oslash" format="2">
  <advance width="699.8770491803278"/>
  <unicode hex="00D8"/>
  <outline>
    <contour>
      <point x="80.12295081967213" y="153.18032786885246" type="qcurve" smooth="yes"/>
      <point x="80.12295081967213" y="536.8196721311475" type="line" smooth="yes"/>
      <point x="80.12295081967213" y="690.0"/>
      <point x="233.30327868852459" y="690.0" type="qcurve" smooth="yes"/>
      <point x="466.57377049180326" y="690.0" type="line" smooth="yes"/>
      <point x="619.7540983606557" y="690.0"/>
      <point x="619.7540983606557" y="536.8196721311475" type="qcurve" smooth="yes"/>
      <point x="619.7540983606557" y="153.18032786885246" type="line" smooth="yes"/>
      <point x="619.7540983606557" y="0.0"/>
      <point x="466.57377049180326" y="0.0" type="qcurve" smooth="yes"/>
      <point x="233.30327868852459" y="0.0" type="line" smooth="yes"/>
      <point x="80.12295081967213" y="0.0"/>
    </contour>
    <contour>
      <point x="164.27049180327867" y="216.14754098360655" type="line"/>
      <point x="534.8934426229508" y="554.5245901639345" type="line"/>
      <point x="531.4672131147541" y="613.5819672131148"/>
      <point x="468.2704918032787" y="613.5819672131148" type="qcurve" smooth="yes"/>
      <point x="232.31967213114754" y="613.5819672131148" type="line" smooth="yes"/>
      <point x="164.27049180327867" y="613.5819672131148"/>
      <point x="164.27049180327867" y="546.2459016393443" type="qcurve" smooth="yes"/>
    </contour>
    <contour>
      <point x="164.98360655737704" y="135.47540983606558" type="line"/>
      <point x="168.40983606557376" y="76.41803278688525"/>
      <point x="232.31967213114754" y="76.41803278688525" type="qcurve" smooth="yes"/>
      <point x="468.2704918032787" y="76.41803278688525" type="line" smooth="yes"/>
      <point x="535.6065573770492" y="76.41803278688525"/>
      <point x="535.6065573770492" y="143.75409836065575" type="qcurve" smooth="yes"/>
      <point x="535.6065573770492" y="473.8524590163934" type="line"/>
    </contour>
  </outline>
</glyph>
<glyph name="Thorn" format="2">
  <advance width="629.8770491803278"/>
  <unicode hex="00DE"/>
  <outline>
    <contour>
      <point x="90.12295081967213" y="0.0" type="line"/>
      <point x="90.12295081967213" y="690.0" type="line"/>
      <point x="174.27049180327867" y="690.0" type="line"/>
      <point x="174.27049180327867" y="570.0491803278688" type="line"/>
      <point x="416.57377049180326" y="570.0491803278688" type="line" smooth="yes"/>
      <point x="569.7540983606557" y="570.0491803278688"/>
      <point x="569.7540983606557" y="416.8688524590164" type="qcurve" smooth="yes"/>
      <point x="569.7540983606557" y="287.1311475409836" type="line" smooth="yes"/>
      <point x="569.7540983606557" y="133.95081967213116"/>
      <point x="416.57377049180326" y="133.95081967213116" type="qcurve" smooth="yes"/>
      <point x="174.27049180327867" y="133.95081967213116" type="line"/>
      <point x="174.27049180327867" y="0.0" type="line"/>
    </contour>
    <contour>
      <point x="174.27049180327867" y="210.36885245901638" type="line"/>
      <point x="418.2704918032787" y="210.36885245901638" type="line" smooth="yes"/>
      <point x="485.60655737704917" y="210.36885245901638"/>
      <point x="485.60655737704917" y="277.7049180327869" type="qcurve" smooth="yes"/>
      <point x="485.60655737704917" y="426.2950819672131" type="line" smooth="yes"/>
      <point x="485.60655737704917" y="493.6311475409836"/>
      <point x="418.2704918032787" y="493.6311475409836" type="qcurve" smooth="yes"/>
      <point x="174.27049180327867" y="493.6311475409836" type="line"/>
    </contour>
  </outline>
</glyph>
<glyph name="germandbls" format="2">
  <advance width="601.9016393442623"/>
  <unicode hex="00DF"/>
  <outline>
    <contour>
      <point x="80.12295081967213" y="0.0" type="line"/>
      <point x="80.12295081967213" y="589.827868852459" type="line" smooth="yes"/>
      <point x="80.12295081967213" y="740.0"/>
      <point x="230.29508196721312" y="740.0" type="qcurve" smooth="yes"/>
      <point x="360.3196721311475" y="740.0" type="line" smooth="yes"/>
      <point x="509.77868852459017" y="740.0"/>
      <point x="509.77868852459017" y="589.827868852459" type="qcurve" smooth="yes"/>
      <point x="509.77868852459017" y="491.0" type="line" smooth="yes"/>
      <point x="509.77868852459017" y="457.0"/>
      <point x="489.77868852459017" y="433.0" type="qcurve" smooth="yes"/>
      <point x="454.77868852459017" y="391.0" type="line"/>
      <point x="496.77868852459017" y="356.0" type="line" smooth="yes"/>
      <point x="529.7786885245902" y="328.0"/>
      <point x="529.7786885245902" y="276.0" type="qcurve" smooth="yes"/>
      <point x="529.7786885245902" y="150.172131147541" type="line" smooth="yes"/>
      <point x="529.7786885245902" y="0.0"/>
      <point x="380.3196721311475" y="0.0" type="qcurve" smooth="yes"/>
      <point x="290.24590163934425" y="0.0" type="line"/>
      <point x="250.19672131147541" y="29.89344262295082" type="line"/>
      <point x="250.19672131147541" y="70.12295081967213" type="line"/>
      <point x="379.7295081967213" y="70.12295081967213" type="line" smooth="yes"/>
      <point x="449.77868852459017" y="70.12295081967213"/>
      <point x="449.77868852459017" y="140.172131147541" type="qcurve" smooth="yes"/>
      <point x="449.77868852459017" y="280.0327868852459" type="line" smooth="yes"/>
      <point x="449.77868852459017" y="349.7950819672131"/>
      <point x="379.7295081967213" y="349.7950819672131" type="qcurve" smooth="yes"/>
      <point x="260.1967213114754" y="349.7950819672131" type="line"/>
      <point x="260.1967213114754" y="420.2049180327869" type="line"/>
      <point x="359.7295081967213" y="420.2049180327869" type="line" smooth="yes"/>
      <point x="429.77868852459017" y="420.2049180327869"/>
      <point x="429.77868852459017" y="489.9672131147541" type="qcurve" smooth="yes"/>
      <point x="429.77868852459017" y="599.827868852459" type="line" smooth="yes"/>
      <point x="429.77868852459017" y="669.8770491803278"/>
      <point x="359.7295081967213" y="669.8770491803278" type="qcurve" smooth="yes"/>
      <point x="230.172131147541" y="669.8770491803278" type="line" smooth="yes"/>
      <point x="160.12295081967213" y="669.8770491803278"/>
      <point x="160.12295081967213" y="599.827868852459" type="qcurve" smooth="yes"/>
      <point x="160.12295081967213" y="0.0" type="line"/>
    </contour>
  </outline>
</glyph>
<glyph name="ae" format="2">
  <advance width="873.827868852459"/>
  <unicode hex="00E6"/>
  <outline>
    <contour>
      <point x="203.00819672131146" y="0.0" type="line" smooth="yes"/>
      <point x="52.122950819672134" y="0.0"/>
      <point x="52.122950819672134" y="301.75409836065575"/>
      <point x="203.00819672131146" y="301.75409836065575" type="qcurve" smooth="yes"/>
      <point x="382.04918032786884" y="301.75409836065575" type="line"/>
      <point x="382.04918032786884" y="379.7049180327869" type="line" smooth="yes"/>
      <point x="382.04918032786884" y="449.75409836065575"/>
      <point x="312.0" y="449.75409836065575" type="qcurve" smooth="yes"/>
      <point x="101.85245901639344" y="449.75409836065575" type="line"/>
      <point x="101.85245901639344" y="489.9836065573771" type="line"/>
      <point x="141.9016393442623" y="519.8770491803278" type="line"/>
      <point x="305.1311475409836" y="519.8770491803278" type="line" smooth="yes"/>
      <point x="385.827868852459" y="519.8770491803278"/>
      <point x="422.26229508196724" y="471.3196721311475" type="qcurve"/>
      <point x="458.6967213114754" y="519.8770491803278"/>
      <point x="539.9672131147541" y="519.8770491803278" type="qcurve" smooth="yes"/>
      <point x="652.2459016393443" y="519.8770491803278" type="line" smooth="yes"/>
      <point x="801.7049180327868" y="519.8770491803278"/>
      <point x="801.7049180327868" y="369.7049180327869" type="qcurve" smooth="yes"/>
      <point x="801.7049180327868" y="229.24590163934425" type="line"/>
      <point x="462.04918032786884" y="229.24590163934425" type="line"/>
      <point x="462.04918032786884" y="140.172131147541" type="line" smooth="yes"/>
      <point x="462.04918032786884" y="70.12295081967213"/>
      <point x="532.0983606557377" y="70.12295081967213" type="qcurve" smooth="yes"/>
      <point x="781.7049180327868" y="70.12295081967213" type="line"/>
      <point x="781.7049180327868" y="29.89344262295082" type="line"/>
      <point x="741.655737704918" y="0.0" type="line"/>
      <point x="539.9672131147541" y="0.0" type="line" smooth="yes"/>
      <point x="458.6967213114754" y="0.0"/>
      <point x="422.26229508196724" y="48.55737704918033" type="qcurve"/>
      <point x="385.827868852459" y="0.0"/>
      <point x="305.1311475409836" y="0.0" type="qcurve" smooth="yes"/>
    </contour>
    <contour>
      <point x="132.12295081967213" y="140.172131147541" type="line" smooth="yes"/>
      <point x="132.12295081967213" y="70.12295081967213"/>
      <point x="202.172131147541" y="70.12295081967213" type="qcurve" smooth="yes"/>
      <point x="312.0" y="70.12295081967213" type="line" smooth="yes"/>
      <point x="382.04918032786884" y="70.12295081967213"/>
      <point x="382.04918032786884" y="140.172131147541" type="qcurve" smooth="yes"/>
      <point x="382.04918032786884" y="237.08196721311475" type="line"/>
      <point x="202.172131147541" y="237.08196721311475" type="line" smooth="yes"/>
      <point x="132.12295081967213" y="237.08196721311475"/>
      <point x="132.12295081967213" y="167.0327868852459" type="qcurve" smooth="yes"/>
    </contour>
    <contour>
      <point x="462.04918032786884" y="293.91803278688525" type="line"/>
      <point x="721.7049180327868" y="293.91803278688525" type="line"/>
      <point x="721.7049180327868" y="379.7049180327869" type="line" smooth="yes"/>
      <point x="721.7049180327868" y="449.75409836065575"/>
      <point x="651.655737704918" y="449.75409836065575" type="qcurve" smooth="yes"/>
      <point x="532.0983606557377" y="449.75409836065575" type="line" smooth="yes"/>
      <point x="462.04918032786884" y="449.75409836065575"/>
      <point x="462.04918032786884" y="379.7049180327869" type="qcurve" smooth="yes"/>
    </contour>
  </outline>
</glyph>
<glyph name="eth" format="2">
  <advance width="583.8770491803278"/>
  <unicode hex="00F0"/>
  <outline>
    <contour>
      <point x="72.12295081967213" y="150.172131147541" type="qcurve" smooth="yes"/>
      <point x="72.12295081967213" y="299.827868852459" type="line" smooth="yes"/>
      <point x="72.12295081967213" y="450.0"/>
      <point x="222.29508196721312" y="450.0" type="qcurve" smooth="yes"/>
      <point x="412.4754098360656" y="450.0" type="line"/>
      <point x="335.672131147541" y="573.0655737704918" type="line"/>
      <point x="226.95901639344262" y="521.0655737704918" type="line"/>
      <point x="200.77049180327867" y="576.8770491803278" type="line"/>
      <point x="302.9016393442623" y="625.7295081967213" type="line"/>
      <point x="249.9344262295082" y="711.688524590164" type="line"/>
      <point x="315.3360655737705" y="750.3196721311475" type="line"/>
      <point x="371.87704918032784" y="659.2131147540983" type="line"/>
      <point x="477.9754098360656" y="709.0491803278688" type="line"/>
      <point x="503.87704918032784" y="652.5245901639345" type="line"/>
      <point x="405.6475409836066" y="605.983606557377" type="line"/>
      <point x="492.0163934426229" y="464.3524590163934" type="line" smooth="yes"/>
      <point x="511.75409836065575" y="430.87704918032784"/>
      <point x="511.75409836065575" y="381.11475409836066" type="qcurve" smooth="yes"/>
      <point x="511.75409836065575" y="150.172131147541" type="line" smooth="yes"/>
      <point x="511.75409836065575" y="0.0"/>
      <point x="362.2950819672131" y="0.0" type="qcurve" smooth="yes"/>
      <point x="222.29508196721312" y="0.0" type="line" smooth="yes"/>
      <point x="72.12295081967213" y="0.0"/>
    </contour>
    <contour>
      <point x="152.12295081967213" y="140.172131147541" type="line" smooth="yes"/>
      <point x="152.12295081967213" y="70.12295081967213"/>
      <point x="222.172131147541" y="70.12295081967213" type="qcurve" smooth="yes"/>
      <point x="361.7049180327869" y="70.12295081967213" type="line" smooth="yes"/>
      <point x="431.75409836065575" y="70.12295081967213"/>
      <point x="431.75409836065575" y="140.172131147541" type="qcurve" smooth="yes"/>
      <point x="431.75409836065575" y="379.87704918032784" type="line"/>
      <point x="222.172131147541" y="379.87704918032784" type="line" smooth="yes"/>
      <point x="152.12295081967213" y="379.87704918032784"/>
      <point x="152.12295081967213" y="309.827868852459" type="qcurve" smooth="yes"/>
    </contour>
  </outline>
</glyph>
<glyph name="divide" format="2">
  <advance width="578.0"/>
  <unicode hex="00F7"/>
  <outline>
    <contour>
      <point x="63.704918032786885" y="299.655737704918" type="line"/>
      <point x="63.704918032786885" y="370.344262295082" type="line"/>
      <point x="514.2950819672132" y="370.344262295082" type="line"/>
      <point x="514.2950819672132" y="299.655737704918" type="line"/>
    </contour>
    <contour>
      <point x="244.10655737704917" y="100.10655737704919" type="line"/>
      <point x="244.10655737704917" y="189.89344262295083" type="line"/>
      <point x="333.89344262295083" y="189.89344262295083" type="line"/>
      <point x="333.89344262295083" y="100.10655737704919" type="line"/>
    </contour>
    <contour>
      <point x="244.10655737704917" y="480.10655737704917" type="line"/>
      <point x="244.10655737704917" y="569.8934426229508" type="line"/>
      <point x="333.89344262295083" y="569.8934426229508" type="line"/>
      <point x="333.89344262295083" y="480.10655737704917" type="line"/>
    </contour>
  </outline>
</glyph>
<glyph name="oslash" format="2">
  <advance width="583.8770491803278"/>
  <unicode hex="00F8"/>
  <outline>
    <contour>
      <point x="72.12295081967213" y="150.172131147541" type="qcurve" smooth="yes"/>
      <point x="72.12295081967213" y="369.7049180327869" type="line" smooth="yes"/>
      <point x="72.12295081967213" y="519.8770491803278"/>
      <point x="222.29508196721312" y="519.8770491803278" type="qcurve" smooth="yes"/>
      <point x="362.2950819672131" y="519.8770491803278" type="line" smooth="yes"/>
      <point x="511.75409836065575" y="519.8770491803278"/>
      <point x="511.75409836065575" y="369.7049180327869" type="qcurve" smooth="yes"/>
      <point x="511.75409836065575" y="150.172131147541" type="line" smooth="yes"/>
      <point x="511.75409836065575" y="0.0"/>
      <point x="362.2950819672131" y="0.0" type="qcurve" smooth="yes"/>
      <point x="222.29508196721312" y="0.0" type="line" smooth="yes"/>
      <point x="72.12295081967213" y="0.0"/>
    </contour>
    <contour>
      <point x="152.12295081967213" y="171.15573770491804" type="line"/>
      <point x="425.9016393442623" y="413.6639344262295" type="line"/>
      <point x="411.4918032786885" y="449.75409836065575"/>
      <point x="361.7049180327869" y="449.75409836065575" type="qcurve" smooth="yes"/>
      <point x="222.172131147541" y="449.75409836065575" type="line" smooth="yes"/>
      <point x="152.12295081967213" y="449.75409836065575"/>
      <point x="152.12295081967213" y="379.7049180327869" type="qcurve" smooth="yes"/>
    </contour>
    <contour>
      <point x="157.97540983606558" y="106.21311475409836" type="line"/>
      <point x="172.38524590163934" y="70.12295081967213"/>
      <point x="222.172131147541" y="70.12295081967213" type="qcurve" smooth="yes"/>
      <point x="361.7049180327869" y="70.12295081967213" type="line" smooth="yes"/>
      <point x="431.75409836065575" y="70.12295081967213"/>
      <point x="431.75409836065575" y="140.172131147541" type="qcurve" smooth="yes"/>
      <point x="431.75409836065575" y="348.72131147540983" type="line"/>
    </contour>
  </outline>
</glyph>
<glyph name="dotlessi" format="2">
  <advance width="240.24590163934425"/>
  <unicode hex="0131"/>
  <outline>
    <contour>
      <point x="80.12295081967213" y="0.0" type="line"/>
      <point x="80.12295081967213" y="519.8770491803278" type="line"/>
      <point x="160.12295081967213" y="519.8770491803278" type="line"/>
      <point x="160.12295081967213" y="0.0" type="line"/>
    </contour>
  </outline>
</glyph>
<glyph name="Lslash" format="2">
  <advance width="544.0819672131147"/>
  <unicode hex="0141"/>
  <outline>
    <contour>
      <point x="10.0" y="283.4754098360656" type="line"/>
      <point x="99.59836065573771" y="334.91803278688525" type="line"/>
      <point x="99.59836065573771" y="690.0" type="line"/>
      <point x="183.74590163934425" y="690.0" type="line"/>
      <point x="183.74590163934425" y="383.1475409836066" type="line"/>
      <point x="320.12295081967216" y="461.9754098360656" type="line"/>
      <point x="352.89344262295083" y="404.87704918032784" type="line"/>
      <point x="183.74590163934425" y="307.7295081967213" type="line"/>
      <point x="183.74590163934425" y="76.41803278688525" type="line"/>
      <point x="520.0819672131147" y="76.41803278688525" type="line"/>
      <point x="520.0819672131147" y="0.0" type="line"/>
      <point x="99.59836065573771" y="0.0" type="line"/>
      <point x="99.59836065573771" y="259.07377049180326" type="line"/>
      <point x="43.05737704918033" y="226.09016393442624" type="line"/>
    </contour>
  </outline>
</glyph>
<glyph name="lslash" format="2">
  <advance width="276.0"/>
  <unicode hex="0142"/>
  <outline>
    <contour>
      <point x="2.836065573770492" y="334.74590163934425" type="line"/>
      <point x="86.0" y="382.9016393442623" type="line"/>
      <point x="86.0" y="740.0" type="line"/>
      <point x="166.0" y="740.0" type="line"/>
      <point x="166.0" y="428.9836065573771" type="line"/>
      <point x="240.11475409836066" y="472.25409836065575" type="line"/>
      <point x="271.0245901639344" y="417.87704918032784" type="line"/>
      <point x="166.0" y="358.1475409836066" type="line"/>
      <point x="166.0" y="134.39344262295083" type="line" smooth="yes"/>
      <point x="166.0" y="64.69672131147541"/>
      <point x="236.27049180327867" y="61.26229508196721" type="qcurve"/>
      <point x="236.27049180327867" y="-8.147540983606557" type="line"/>
      <point x="86.0" y="-8.147540983606557"/>
      <point x="86.0" y="142.12295081967213" type="qcurve" smooth="yes"/>
      <point x="86.0" y="311.77868852459017" type="line"/>
      <point x="34.17213114754098" y="280.655737704918" type="line"/>
    </contour>
  </outline>
</glyph>
<glyph name="OE" format="2">
  <advance width="962.3196721311475"/>
  <unicode hex="0152"/>
  <outline>
    <contour>
      <point x="80.12295081967213" y="153.18032786885246" type="qcurve" smooth="yes"/>
      <point x="80.12295081967213" y="536.8196721311475" type="line" smooth="yes"/>
      <point x="80.12295081967213" y="690.0"/>
      <point x="233.30327868852459" y="690.0" type="qcurve" smooth="yes"/>
      <point x="912.3196721311475" y="690.0" type="line"/>
      <point x="912.3196721311475" y="613.5819672131148" type="line"/>
      <point x="576.3688524590164" y="613.5819672131148" type="line"/>
      <point x="576.3688524590164" y="400.04918032786884" type="line"/>
      <point x="882.3196721311475" y="400.04918032786884" type="line"/>
      <point x="882.3196721311475" y="323.6311475409836" type="line"/>
      <point x="576.3688524590164" y="323.6311475409836" type="line"/>
      <point x="576.3688524590164" y="76.41803278688525" type="line"/>
      <point x="912.3196721311475" y="76.41803278688525" type="line"/>
      <point x="912.3196721311475" y="0.0" type="line"/>
      <point x="233.30327868852459" y="0.0" type="line" smooth="yes"/>
      <point x="80.12295081967213" y="0.0"/>
    </contour>
    <contour>
      <point x="164.27049180327867" y="143.75409836065575" type="line" smooth="yes"/>
      <point x="164.27049180327867" y="76.41803278688525"/>
      <point x="232.31967213114754" y="76.41803278688525" type="qcurve" smooth="yes"/>
      <point x="492.22131147540983" y="76.41803278688525" type="line"/>
      <point x="492.22131147540983" y="613.5819672131148" type="line"/>
      <point x="232.31967213114754" y="613.5819672131148" type="line" smooth="yes"/>
      <point x="164.27049180327867" y="613.5819672131148"/>
      <point x="164.27049180327867" y="546.2459016393443" type="qcurve" smooth="yes"/>
    </contour>
  </outline>
</glyph>
<glyph name="oe" format="2">
  <advance width="914.2704918032787"/>
  <unicode hex="0153"/>
  <outline>
    <contour>
      <point x="72.12295081967213" y="150.172131147541" type="qcurve" smooth="yes"/>
      <point x="72.12295081967213" y="369.7049180327869" type="line" smooth="yes"/>
      <point x="72.12295081967213" y="519.8770491803278"/>
      <point x="222.29508196721312" y="519.8770491803278" type="qcurve" smooth="yes"/>
      <point x="345.1475409836066" y="519.8770491803278" type="line" smooth="yes"/>
      <point x="425.844262295082" y="519.8770491803278"/>
      <point x="462.27868852459017" y="471.3196721311475" type="qcurve"/>
      <point x="498.71311475409834" y="519.8770491803278"/>
      <point x="579.4098360655738" y="519.8770491803278" type="qcurve" smooth="yes"/>
      <point x="691.9754098360655" y="519.8770491803278" type="line" smooth="yes"/>
      <point x="842.1475409836065" y="519.8770491803278"/>
      <point x="842.1475409836065" y="369.7049180327869" type="qcurve" smooth="yes"/>
      <point x="842.1475409836065" y="229.24590163934425" type="line"/>
      <point x="501.77868852459017" y="229.24590163934425" type="line"/>
      <point x="501.77868852459017" y="140.172131147541" type="line" smooth="yes"/>
      <point x="501.77868852459017" y="70.12295081967213"/>
      <point x="571.827868852459" y="70.12295081967213" type="qcurve" smooth="yes"/>
      <point x="822.1475409836065" y="70.12295081967213" type="line"/>
      <point x="822.1475409836065" y="29.89344262295082" type="line"/>
      <point x="782.0983606557377" y="0.0" type="line"/>
      <point x="579.4098360655738" y="0.0" type="line" smooth="yes"/>
      <point x="498.71311475409834" y="0.0"/>
      <point x="462.27868852459017" y="48.55737704918033" type="qcurve"/>
      <point x="425.844262295082" y="0.0"/>
      <point x="345.1475409836066" y="0.0" type="qcurve" smooth="yes"/>
      <point x="222.29508196721312" y="0.0" type="line" smooth="yes"/>
      <point x="72.12295081967213" y="0.0"/>
    </contour>
    <contour>
      <point x="152.12295081967213" y="140.172131147541" type="line" smooth="yes"/>
      <point x="152.12295081967213" y="70.12295081967213"/>
      <point x="222.172131147541" y="70.12295081967213" type="qcurve" smooth="yes"/>
      <point x="351.7295081967213" y="70.12295081967213" type="line" smooth="yes"/>
      <point x="421.77868852459017" y="70.12295081967213"/>
      <point x="421.77868852459017" y="140.172131147541" type="qcurve" smooth="yes"/>
      <point x="421.77868852459017" y="379.7049180327869" type="line" smooth="yes"/>
      <point x="421.77868852459017" y="449.75409836065575"/>
      <point x="351.7295081967213" y="449.75409836065575" type="qcurve" smooth="yes"/>
      <point x="222.172131147541" y="449.75409836065575" type="line" smooth="yes"/>
      <point x="152.12295081967213" y="449.75409836065575"/>
      <point x="152.12295081967213" y="379.7049180327869" type="qcurve" smooth="yes"/>
    </contour>
    <contour>
      <point x="501.77868852459017" y="293.91803278688525" type="line"/>
      <point x="762.1475409836065" y="293.91803278688525" type="line"/>
      <point x="762.1475409836065" y="379.7049180327869" type="line" smooth="yes"/>
      <point x="762.1475409836065" y="449.75409836065575"/>
      <point x="692.0983606557377" y="449.75409836065575" type="qcurve" smooth="yes"/>
      <point x="571.827868852459" y="449.75409836065575" type="line" smooth="yes"/>
      <point x="501.77868852459017" y="449.75409836065575"/>
      <point x="501.77868852459017" y="379.7049180327869" type="qcurve" smooth="yes"/>
    </contour>
  </outline>
</glyph>
<glyph name="florin" format="2">
  <advance width="569.8770491803278"/>
  <unicode hex="0192"/>
  <outline>
    <contour>
      <point x="40.0" y="-70.07377049180329" type="line"/>
      <point x="120.07377049180327" y="-70.07377049180329" type="line" smooth="yes"/>
      <point x="190.12295081967213" y="-70.07377049180329"/>
      <point x="190.12295081967213" y="-0.024590163934425924" type="qcurve" smooth="yes"/>
      <point x="190.12295081967213" y="589.827868852459" type="line" smooth="yes"/>
      <point x="190.12295081967213" y="740.0"/>
      <point x="340.2950819672131" y="740.0" type="qcurve" smooth="yes"/>
      <point x="430.172131147541" y="740.0" type="line"/>
      <point x="470.22131147540983" y="710.1065573770492" type="line"/>
      <point x="470.22131147540983" y="669.8770491803278" type="line"/>
      <point x="340.172131147541" y="669.8770491803278" type="line" smooth="yes"/>
      <point x="270.12295081967216" y="669.8770491803278"/>
      <point x="270.12295081967216" y="599.827868852459" type="qcurve" smooth="yes"/>
      <point x="270.12295081967216" y="519.8770491803278" type="line"/>
      <point x="460.22131147540983" y="519.8770491803278" type="line"/>
      <point x="460.22131147540983" y="449.75409836065575" type="line"/>
      <point x="270.12295081967216" y="449.75409836065575" type="line"/>
      <point x="270.12295081967216" y="9.975409836065573" type="line" smooth="yes"/>
      <point x="270.12295081967216" y="-140.19672131147541"/>
      <point x="119.95081967213115" y="-140.19672131147541" type="qcurve" smooth="yes"/>
      <point x="80.04918032786885" y="-140.19672131147541" type="line"/>
      <point x="40.0" y="-110.01639344262296" type="line"/>
    </contour>
  </outline>
</glyph>
<glyph name="uni0237" format="2">
  <advance width="240.24590163934425"/>
  <unicode hex="0237"/>
  <outline>
    <contour>
      <point x="-8.147540983606557" y="-139.88524590163934" type="line"/>
      <point x="80.12295081967213" y="-136.7377049180328"/>
      <point x="80.12295081967213" y="-48.75409836065574" type="qcurve" smooth="yes"/>
      <point x="80.12295081967213" y="519.8770491803278" type="line"/>
      <point x="160.12295081967213" y="519.8770491803278" type="line"/>
      <point x="160.12295081967213" y="-39.87704918032787" type="line" smooth="yes"/>
      <point x="160.12295081967213" y="-208.14754098360655"/>
      <point x="-8.147540983606557" y="-208.14754098360655" type="qcurve"/>
    </contour>
  </outline>
</glyph>
<glyph name="uni0300" format="2">
  <unicode hex="0300"/>
  <outline>
    <contour>
      <point x="-401.75409836065575" y="709.8934426229508" type="line"/>
      <point x="-352.9754098360656" y="757.2377049180328" type="line"/>
      <point x="-223.81147540983608" y="612.7786885245902" type="line"/>
      <point x="-265.8688524590164" y="572.2950819672132" type="line"/>
    </contour>
  </outline>
</glyph>
<glyph name="uni0301" format="2">
  <unicode hex="0301"/>
  <outline>
    <contour>
      <point x="-348.0655737704918" y="612.7786885245902" type="line"/>
      <point x="-218.9016393442623" y="757.2377049180328" type="line"/>
      <point x="-170.12295081967213" y="709.8934426229508" type="line"/>
      <point x="-306.72131147540983" y="573.0081967213115" type="line"/>
    </contour>
  </outline>
</glyph>
<glyph name="uni0302" format="2">
  <unicode hex="0302"/>
  <outline>
    <contour>
      <point x="-423.7704918032787" y="623.4754098360655" type="line"/>
      <point x="-286.2950819672131" y="757.9508196721312" type="line"/>
      <point x="-148.10655737704917" y="623.4754098360655" type="line"/>
      <point x="-186.86885245901638" y="581.8524590163935" type="line"/>
      <point x="-286.2950819672131" y="676.2786885245902" type="line"/>
      <point x="-385.0081967213115" y="581.8524590163935" type="line"/>
    </contour>
  </outline>
</glyph>
<glyph name="uni0303" format="2">
  <unicode hex="0303"/>
  <outline>
    <contour>
      <point x="-440.77868852459017" y="638.3196721311475" type="line"/>
      <point x="-388.0327868852459" y="691.0655737704918" type="line" smooth="yes"/>
      <point x="-364.60655737704917" y="713.7786885245902"/>
      <point x="-305.72131147540983" y="713.7786885245902"/>
      <point x="-283.72131147540983" y="691.0655737704918" type="qcurve" smooth="yes"/>
      <point x="-253.12295081967213" y="660.4672131147541" type="line" smooth="yes"/>
      <point x="-243.70491803278688" y="651.0491803278688"/>
      <point x="-228.29508196721312" y="651.0491803278688"/>
      <point x="-218.87704918032787" y="660.4672131147541" type="qcurve" smooth="yes"/>
      <point x="-170.14754098360655" y="709.1967213114754" type="line"/>
      <point x="-131.0983606557377" y="670.1475409836065" type="line"/>
      <point x="-183.84426229508196" y="617.4016393442623" type="line" smooth="yes"/>
      <point x="-206.55737704918033" y="594.688524590164"/>
      <point x="-265.44262295081967" y="594.688524590164"/>
      <point x="-288.155737704918" y="617.4016393442623" type="qcurve" smooth="yes"/>
      <point x="-318.75409836065575" y="648.0" type="line" smooth="yes"/>
      <point x="-327.4590163934426" y="657.4180327868852"/>
      <point x="-342.8688524590164" y="657.4180327868852"/>
      <point x="-353.0" y="648.0" type="qcurve" smooth="yes"/>
      <point x="-401.7295081967213" y="599.2704918032787" type="line"/>
    </contour>
  </outline>
</glyph>
<glyph name="uni0304" format="2">
  <unicode hex="0304"/>
  <outline>
    <contour>
      <point x="-416.04918032786884" y="624.6967213114754" type="line"/>
      <point x="-416.04918032786884" y="688.9180327868852" type="line"/>
      <point x="-155.827868852459" y="688.9180327868852" type="line"/>
      <point x="-155.827868852459" y="624.6967213114754" type="line"/>
    </contour>
  </outline>
</glyph>
<glyph name="uni0306" format="2">
  <unicode hex="0306"/>
  <outline>
    <contour>
      <point x="-411.04098360655735" y="669.5983606557377" type="qcurve" smooth="yes"/>
      <point x="-411.04098360655735" y="727.9016393442623" type="line"/>
      <point x="-356.8360655737705" y="727.9016393442623" type="line"/>
      <point x="-356.8360655737705" y="670.6065573770492" type="line" smooth="yes"/>
      <point x="-356.8360655737705" y="652.344262295082"/>
      <point x="-338.57377049180326" y="652.344262295082" type="qcurve" smooth="yes"/>
      <point x="-233.30327868852459" y="652.344262295082" type="line" smooth="yes"/>
      <point x="-215.04098360655738" y="652.344262295082"/>
      <point x="-215.04098360655738" y="670.6065573770492" type="qcurve" smooth="yes"/>
      <point x="-215.04098360655738" y="727.9016393442623" type="line"/>
      <point x="-160.8360655737705" y="727.9016393442623" type="line"/>
      <point x="-160.8360655737705" y="669.5983606557377" type="line" smooth="yes"/>
      <point x="-160.8360655737705" y="597.8524590163935"/>
      <point x="-233.29508196721312" y="597.8524590163935" type="qcurve" smooth="yes"/>
      <point x="-339.2950819672131" y="597.8524590163935" type="line" smooth="yes"/>
      <point x="-411.04098360655735" y="597.8524590163935"/>
    </contour>
  </outline>
</glyph>
<glyph name="uni0307" format="2">
  <unicode hex="0307"/>
  <outline>
    <contour>
      <point x="-330.22131147540983" y="616.8524590163935" type="line"/>
      <point x="-330.22131147540983" y="710.5245901639345" type="line"/>
      <point x="-241.65573770491804" y="710.5245901639345" type="line"/>
      <point x="-241.65573770491804" y="616.8524590163935" type="line"/>
    </contour>
  </outline>
</glyph>
<glyph name="uni0308" format="2">
  <unicode hex="0308"/>
  <outline>
    <contour>
      <point x="-415.655737704918" y="613.688524590164" type="line"/>
      <point x="-415.655737704918" y="701.4918032786885" type="line"/>
      <point x="-336.2704918032787" y="701.4918032786885" type="line"/>
      <point x="-336.2704918032787" y="613.688524590164" type="line"/>
    </contour>
    <contour>
      <point x="-236.31967213114754" y="613.688524590164" type="line"/>
      <point x="-236.31967213114754" y="701.4918032786885" type="line"/>
      <point x="-156.9344262295082" y="701.4918032786885" type="line"/>
      <point x="-156.9344262295082" y="613.688524590164" type="line"/>
    </contour>
  </outline>
</glyph>
<glyph name="uni030A" format="2">
  <unicode hex="030A"/>
  <outline>
    <contour>
      <point x="-387.9016393442623" y="641.3032786885246" type="qcurve" smooth="yes"/>
      <point x="-387.9016393442623" y="699.1639344262295" type="line" smooth="yes"/>
      <point x="-387.9016393442623" y="768.188524590164"/>
      <point x="-318.59016393442624" y="768.188524590164" type="qcurve" smooth="yes"/>
      <point x="-253.28688524590163" y="768.188524590164" type="line" smooth="yes"/>
      <point x="-183.97540983606558" y="768.188524590164"/>
      <point x="-183.97540983606558" y="699.1639344262295" type="qcurve" smooth="yes"/>
      <point x="-183.97540983606558" y="641.3032786885246" type="line" smooth="yes"/>
      <point x="-183.97540983606558" y="572.2786885245902"/>
      <point x="-253.28688524590163" y="572.2786885245902" type="qcurve" smooth="yes"/>
      <point x="-318.59016393442624" y="572.2786885245902" type="line" smooth="yes"/>
      <point x="-387.9016393442623" y="572.2786885245902"/>
    </contour>
    <contour>
      <point x="-336.12295081967216" y="638.5901639344262" type="line" smooth="yes"/>
      <point x="-336.12295081967216" y="618.188524590164"/>
      <point x="-315.72131147540983" y="618.188524590164" type="qcurve" smooth="yes"/>
      <point x="-256.8688524590164" y="618.188524590164" type="line" smooth="yes"/>
      <point x="-235.75409836065575" y="618.188524590164"/>
      <point x="-235.75409836065575" y="638.5901639344262" type="qcurve" smooth="yes"/>
      <point x="-235.75409836065575" y="701.8770491803278" type="line" smooth="yes"/>
      <point x="-235.75409836065575" y="722.2786885245902"/>
      <point x="-256.8688524590164" y="722.2786885245902" type="qcurve" smooth="yes"/>
      <point x="-315.72131147540983" y="722.2786885245902" type="line" smooth="yes"/>
      <point x="-336.12295081967216" y="722.2786885245902"/>
      <point x="-336.12295081967216" y="701.8770491803278" type="qcurve" smooth="yes"/>
    </contour>
  </outline>
</glyph>
<glyph name="uni030B" format="2">
  <unicode hex="030B"/>
  <outline>
    <contour>
      <point x="-414.0983606557377" y="609.1967213114754" type="line"/>
      <point x="-301.8032786885246" y="757.9508196721312" type="line"/>
      <point x="-248.45081967213116" y="714.0491803278688" type="line"/>
      <point x="-370.3196721311475" y="572.2950819672132" type="line"/>
    </contour>
    <contour>
      <point x="-249.04918032786884" y="609.1967213114754" type="line"/>
      <point x="-136.75409836065575" y="757.9508196721312" type="line"/>
      <point x="-83.11475409836066" y="714.0491803278688" type="line"/>
      <point x="-205.2704918032787" y="572.2950819672132" type="line"/>
    </contour>
  </outline>
</glyph>
<glyph name="uni030C" format="2">
  <unicode hex="030C"/>
  <outline>
    <contour>
      <point x="-423.7704918032787" y="707.0409836065573" type="line"/>
      <point x="-385.0081967213115" y="747.9508196721312" type="line"/>
      <point x="-286.2950819672131" y="654.2377049180328" type="line"/>
      <point x="-186.86885245901638" y="747.9508196721312" type="line"/>
      <point x="-148.10655737704917" y="707.0409836065573" type="line"/>
      <point x="-286.2950819672131" y="571.8524590163935" type="line"/>
    </contour>
  </outline>
</glyph>
<glyph name="uni0326" format="2">
  <unicode hex="0326"/>
  <outline>
    <contour>
      <point x="-356.1967213114754" y="-183.84426229508196" type="line"/>
      <point x="-321.4918032786885" y="-50.0" type="line"/>
      <point x="-254.2622950819672" y="-50.0" type="line"/>
      <point x="-245.10655737704917" y="-64.01639344262296" type="line"/>
      <point x="-298.6803278688525" y="-200.15573770491804" type="line"/>
    </contour>
  </outline>
</glyph>
<glyph name="uni0327" format="2">
  <unicode hex="0327"/>
  <outline>
    <contour>
      <point x="-395.7295081967213" y="-121.77868852459017" type="line"/>
      <point x="-298.2950819672131" y="-121.77868852459017" type="line" smooth="yes"/>
      <point x="-264.344262295082" y="-121.77868852459017"/>
      <point x="-264.344262295082" y="-87.82786885245902" type="qcurve" smooth="yes"/>
      <point x="-264.344262295082" y="34.91803278688525" type="line"/>
      <point x="-200.0983606557377" y="34.91803278688525" type="line"/>
      <point x="-200.0983606557377" y="-80.24590163934427" type="line" smooth="yes"/>
      <point x="-200.0983606557377" y="-179.7295081967213"/>
      <point x="-299.58196721311475" y="-179.7295081967213" type="qcurve" smooth="yes"/>
      <point x="-363.54918032786884" y="-179.7295081967213" type="line"/>
      <point x="-395.7295081967213" y="-155.2704918032787" type="line"/>
    </contour>
  </outline>
</glyph>
<glyph name="uni0328" format="2">
  <unicode hex="0328"/>
  <outline>
    <contour>
      <point x="-359.77868852459017" y="-41.5327868852459" type="line" smooth="yes"/>
      <point x="-359.77868852459017" y="57.950819672131146"/>
      <point x="-260.2950819672131" y="57.950819672131146" type="qcurve" smooth="yes"/>
      <point x="-235.87704918032787" y="57.950819672131146" type="line"/>
      <point x="-235.87704918032787" y="0.0" type="line"/>
      <point x="-263.72131147540983" y="0.0" type="line" smooth="yes"/>
      <point x="-296.24590163934425" y="0.0"/>
      <point x="-296.24590163934425" y="-32.52459016393443" type="qcurve" smooth="yes"/>
      <point x="-296.24590163934425" y="-89.25409836065573" type="line" smooth="yes"/>
      <point x="-296.24590163934425" y="-121.77868852459017"/>
      <point x="-263.72131147540983" y="-121.77868852459017" type="qcurve" smooth="yes"/>
      <point x="-168.14754098360655" y="-121.77868852459017" type="line"/>
      <point x="-168.14754098360655" y="-155.2704918032787" type="line"/>
      <point x="-200.327868852459" y="-179.7295081967213" type="line"/>
      <point x="-260.2950819672131" y="-179.7295081967213" type="line" smooth="yes"/>
      <point x="-359.77868852459017" y="-179.7295081967213"/>
      <point x="-359.77868852459017" y="-80.24590163934427" type="qcurve" smooth="yes"/>
    </contour>
  </outline>
</glyph>
<glyph name="pi" format="2">
  <advance width="589.8770491803278"/>
  <unicode hex="03C0"/>
  <outline>
    <contour>
      <point x="80.12295081967213" y="0.0" type="line"/>
      <point x="80.12295081967213" y="519.8770491803278" type="line"/>
      <point x="509.75409836065575" y="519.8770491803278" type="line"/>
      <point x="509.75409836065575" y="0.0" type="line"/>
      <point x="429.75409836065575" y="0.0" type="line"/>
      <point x="429.75409836065575" y="449.75409836065575" type="line"/>
      <point x="160.12295081967213" y="449.75409836065575" type="line"/>
      <point x="160.12295081967213" y="0.0" type="line"/>
    </contour>
  </outline>
</glyph>
<glyph name="uni1E9E" format="2">
  <advance width="683.9016393442623"/>
  <unicode hex="1E9E"/>
  <outline>
    <contour>
      <point x="84.12295081967213" y="0.0" type="line"/>
      <point x="84.12295081967213" y="536.8196721311475" type="line" smooth="yes"/>
      <point x="84.12295081967213" y="690.0"/>
      <point x="237.30327868852459" y="690.0" type="qcurve" smooth="yes"/>
      <point x="563.7540983606557" y="690.0" type="line"/>
      <point x="563.7540983606557" y="623.0327868852459" type="line"/>
      <point x="394.3114754098361" y="400.04918032786884" type="line"/>
      <point x="474.61475409836066" y="400.04918032786884" type="line" smooth="yes"/>
      <point x="623.7786885245902" y="400.04918032786884"/>
      <point x="623.7786885245902" y="244.0" type="qcurve" smooth="yes"/>
      <point x="623.7786885245902" y="153.18032786885246" type="line" smooth="yes"/>
      <point x="623.7786885245902" y="0.0"/>
      <point x="470.88524590163934" y="0.0" type="qcurve" smooth="yes"/>
      <point x="318.8032786885246" y="0.0" type="line"/>
      <point x="274.3196721311475" y="35.040983606557376" type="line"/>
      <point x="274.3196721311475" y="76.41803278688525" type="line"/>
      <point x="472.2950819672131" y="76.41803278688525" type="line" smooth="yes"/>
      <point x="539.6311475409836" y="76.41803278688525"/>
      <point x="539.6311475409836" y="143.75409836065575" type="qcurve" smooth="yes"/>
      <point x="539.6311475409836" y="256.2950819672131" type="line" smooth="yes"/>
      <point x="539.6311475409836" y="323.6311475409836"/>
      <point x="472.2950819672131" y="323.6311475409836" type="qcurve" smooth="yes"/>
      <point x="294.2950819672131" y="323.6311475409836" type="line"/>
      <point x="294.2950819672131" y="390.88524590163934" type="line"/>
      <point x="463.7377049180328" y="613.5819672131148" type="line"/>
      <point x="236.31967213114754" y="613.5819672131148" type="line" smooth="yes"/>
      <point x="168.27049180327867" y="613.5819672131148"/>
      <point x="168.27049180327867" y="546.2459016393443" type="qcurve" smooth="yes"/>
      <point x="168.27049180327867" y="0.0" type="line"/>
    </contour>
  </outline>
</glyph>
<glyph name="endash" format="2">
  <advance width="580.0"/>
  <unicode hex="2013"/>
  <outline>
    <contour>
      <point x="40.0" y="269.655737704918" type="line"/>
      <point x="40.0" y="340.344262295082" type="line"/>
      <point x="540.0" y="340.344262295082" type="line"/>
      <point x="540.0" y="269.655737704918" type="line"/>
    </contour>
  </outline>
</glyph>
<glyph name="emdash" format="2">
  <advance width="1000.0"/>
  <unicode hex="2014"/>
  <outline>
    <contour>
      <point x="40.0" y="269.655737704918" type="line"/>
      <point x="40.0" y="340.344262295082" type="line"/>
      <point x="960.0" y="340.344262295082" type="line"/>
      <point x="960.0" y="269.655737704918" type="line"/>
    </contour>
  </outline>
</glyph>
<glyph name="quoteleft" format="2">
  <advance width="259.9016393442623"/>
  <unicode hex="2018"/>
  <outline>
    <contour>
      <point x="62.50819672131148" y="516.7868852459017" type="line"/>
      <point x="149.97540983606558" y="750.0245901639345" type="line"/>
      <point x="210.22131147540983" y="735.4262295081967" type="line"/>
      <point x="146.91803278688525" y="502.4836065573771" type="line"/>
      <point x="71.37704918032787" y="502.4836065573771" type="line"/>
    </contour>
  </outline>
</glyph>
<glyph name="quoteright" format="2">
  <advance width="259.9016393442623"/>
  <unicode hex="2019"/>
  <outline>
    <contour>
      <point x="55.65573770491803" y="508.05737704918033" type="line"/>
      <point x="118.95901639344262" y="740.0" type="line"/>
      <point x="194.5" y="740.0" type="line"/>
      <point x="203.36885245901638" y="725.983606557377" type="line"/>
      <point x="115.90163934426229" y="492.45901639344265" type="line"/>
    </contour>
  </outline>
</glyph>
<glyph name="quotesinglbase" format="2">
  <advance width="259.9016393442623"/>
  <unicode hex="201A"/>
  <outline>
    <contour>
      <point x="31.975409836065573" y="-125.42622950819673" type="line"/>
      <point x="95.27868852459017" y="107.51639344262296" type="line"/>
      <point x="169.81967213114754" y="107.51639344262296" type="line"/>
      <point x="178.97540983606558" y="93.21311475409836" type="line"/>
      <point x="92.22131147540983" y="-140.02459016393442" type="line"/>
    </contour>
  </outline>
</glyph>
<glyph name="dagger" format="2">
  <advance width="489.87704918032784"/>
  <unicode hex="2020"/>
  <outline>
    <contour>
      <point x="50.0" y="419.655737704918" type="line"/>
      <point x="50.0" y="490.344262295082" type="line"/>
      <point x="208.09016393442624" y="490.344262295082" type="line"/>
      <point x="208.09016393442624" y="690.0" type="line"/>
      <point x="282.5" y="690.0" type="line"/>
      <point x="282.5" y="490.344262295082" type="line"/>
      <point x="439.87704918032784" y="490.344262295082" type="line"/>
      <point x="439.87704918032784" y="419.655737704918" type="line"/>
      <point x="282.5" y="419.655737704918" type="line"/>
      <point x="282.5" y="-100.0" type="line"/>
      <point x="208.09016393442624" y="-100.0" type="line"/>
      <point x="208.09016393442624" y="419.655737704918" type="line"/>
    </contour>
  </outline>
</glyph>
<glyph name="daggerdbl" format="2">
  <advance width="489.87704918032784"/>
  <unicode hex="2021"/>
  <outline>
    <contour>
      <point x="50.0" y="99.65573770491804" type="line"/>
      <point x="50.0" y="170.34426229508196" type="line"/>
      <point x="208.09016393442624" y="170.34426229508196" type="line"/>
      <point x="208.09016393442624" y="419.655737704918" type="line"/>
      <point x="50.0" y="419.655737704918" type="line"/>
      <point x="50.0" y="490.344262295082" type="line"/>
      <point x="208.09016393442624" y="490.344262295082" type="line"/>
      <point x="208.09016393442624" y="690.0" type="line"/>
      <point x="282.5" y="690.0" type="line"/>
      <point x="282.5" y="490.344262295082" type="line"/>
      <point x="439.87704918032784" y="490.344262295082" type="line"/>
      <point x="439.87704918032784" y="419.655737704918" type="line"/>
      <point x="282.5" y="419.655737704918" type="line"/>
      <point x="282.5" y="170.34426229508196" type="line"/>
      <point x="439.87704918032784" y="170.34426229508196" type="line"/>
      <point x="439.87704918032784" y="99.65573770491804" type="line"/>
      <point x="282.5" y="99.65573770491804" type="line"/>
      <point x="282.5" y="-100.0" type="line"/>
      <point x="208.09016393442624" y="-100.0" type="line"/>
      <point x="208.09016393442624" y="99.65573770491804" type="line"/>
    </contour>
  </outline>
</glyph>
<glyph name="bullet" format="2">
  <advance width="359.87704918032784"/>
  <unicode hex="2022"/>
  <outline>
    <contour>
      <point x="85.95081967213115" y="262.8032786885246" type="line"/>
      <point x="85.95081967213115" y="457.1967213114754" type="line"/>
      <point x="274.6393442622951" y="457.1967213114754" type="line"/>
      <point x="274.6393442622951" y="262.8032786885246" type="line"/>
    </contour>
  </outline>
</glyph>
<glyph name="guilsinglleft" format="2">
  <advance width="300.25409836065575"/>
  <unicode hex="2039"/>
  <outline>
    <contour>
      <point x="30.0" y="315.0" type="line"/>
      <point x="208.88524590163934" y="540.3196721311475" type="line"/>
      <point x="260.25409836065575" y="497.6803278688525" type="line"/>
      <point x="118.85245901639344" y="315.0" type="line"/>
      <point x="260.25409836065575" y="132.31967213114754" type="line"/>
      <point x="208.88524590163934" y="89.68032786885246" type="line"/>
    </contour>
  </outline>
</glyph>
<glyph name="guilsinglright" format="2">
  <advance width="300.25409836065575"/>
  <unicode hex="203A"/>
  <outline>
    <contour>
      <point x="40.0" y="132.31967213114754" type="line"/>
      <point x="181.11475409836066" y="315.0" type="line"/>
      <point x="40.0" y="497.6803278688525" type="line"/>
      <point x="91.3688524590164" y="540.3196721311475" type="line"/>
      <point x="270.25409836065575" y="315.0" type="line"/>
      <point x="91.3688524590164" y="89.68032786885246" type="line"/>
    </contour>
  </outline>
</glyph>
<glyph name="fraction" format="2">
  <advance width="140.02459016393442"/>
  <unicode hex="2044"/>
  <outline>
    <contour>
      <point x="-125.18032786885246" y="30.024590163934427" type="line"/>
      <point x="204.81967213114754" y="690.0245901639345" type="line"/>
      <point x="264.91803278688525" y="659.9754098360655" type="line"/>
      <point x="-65.08196721311475" y="-0.024590163934425924" type="line"/>
    </contour>
  </outline>
</glyph>
<glyph name="uni2070" format="2">
  <advance width="359.7295081967213"/>
  <unicode hex="2070"/>
  <outline>
    <contour>
      <point x="40.27049180327869" y="379.75409836065575" type="qcurve" smooth="yes"/>
      <point x="40.27049180327869" y="590.516393442623" type="line" smooth="yes"/>
      <point x="40.27049180327869" y="690.0"/>
      <point x="139.75409836065575" y="690.0" type="qcurve" smooth="yes"/>
      <point x="220.68852459016392" y="690.0" type="line" smooth="yes"/>
      <point x="320.172131147541" y="690.0"/>
      <point x="320.172131147541" y="590.516393442623" type="qcurve" smooth="yes"/>
      <point x="320.172131147541" y="379.75409836065575" type="line" smooth="yes"/>
      <point x="320.172131147541" y="280.2704918032787"/>
      <point x="220.68852459016392" y="280.2704918032787" type="qcurve" smooth="yes"/>
      <point x="139.75409836065575" y="280.2704918032787" type="line" smooth="yes"/>
      <point x="40.27049180327869" y="280.2704918032787"/>
    </contour>
    <contour>
      <point x="103.95081967213115" y="372.3196721311475" type="line" smooth="yes"/>
      <point x="103.95081967213115" y="338.3688524590164"/>
      <point x="137.9016393442623" y="338.3688524590164" type="qcurve" smooth="yes"/>
      <point x="221.827868852459" y="338.3688524590164" type="line" smooth="yes"/>
      <point x="255.77868852459017" y="338.3688524590164"/>
      <point x="255.77868852459017" y="372.3196721311475" type="qcurve" smooth="yes"/>
      <point x="255.77868852459017" y="597.9508196721312" type="line" smooth="yes"/>
      <point x="255.77868852459017" y="631.9016393442623"/>
      <point x="221.827868852459" y="631.9016393442623" type="qcurve" smooth="yes"/>
      <point x="137.9016393442623" y="631.9016393442623" type="line" smooth="yes"/>
      <point x="103.95081967213115" y="631.9016393442623"/>
      <point x="103.95081967213115" y="597.9508196721312" type="qcurve" smooth="yes"/>
    </contour>
  </outline>
</glyph>
<glyph name="uni2074" format="2">
  <advance width="359.7295081967213"/>
  <unicode hex="2074"/>
  <outline>
    <contour>
      <point x="40.27049180327869" y="352.22131147540983" type="line"/>
      <point x="40.27049180327869" y="404.88524590163934" type="line"/>
      <point x="168.0737704918033" y="690.0" type="line"/>
      <point x="222.7377049180328" y="690.0" type="line"/>
      <point x="231.0327868852459" y="675.983606557377" type="line"/>
      <point x="113.67213114754098" y="410.3196721311475" type="line"/>
      <point x="255.77868852459017" y="410.3196721311475" type="line"/>
      <point x="255.77868852459017" y="537.3770491803278" type="line"/>
      <point x="320.172131147541" y="537.3770491803278" type="line"/>
      <point x="320.172131147541" y="280.2704918032787" type="line"/>
      <point x="255.77868852459017" y="280.2704918032787" type="line"/>
      <point x="255.77868852459017" y="352.22131147540983" type="line"/>
    </contour>
  </outline>
</glyph>
<glyph name="Euro" format="2">
  <advance width="578.0"/>
  <unicode hex="20AC"/>
  <outline>
    <contour>
      <point x="33.97540983606557" y="249.81967213114754" type="line"/>
      <point x="33.97540983606557" y="305.45081967213116" type="line"/>
      <point x="103.82786885245902" y="305.45081967213116" type="line"/>
      <point x="103.82786885245902" y="384.54918032786884" type="line"/>
      <point x="33.97540983606557" y="384.54918032786884" type="line"/>
      <point x="33.97540983606557" y="440.1803278688525" type="line"/>
      <point x="103.82786885245902" y="440.1803278688525" type="line"/>
      <point x="103.82786885245902" y="536.8196721311475" type="line" smooth="yes"/>
      <point x="103.82786885245902" y="690.0"/>
      <point x="257.0081967213115" y="690.0" type="qcurve" smooth="yes"/>
      <point x="488.827868852459" y="690.0" type="line"/>
      <point x="534.0245901639345" y="654.9590163934427" type="line"/>
      <point x="534.0245901639345" y="613.5819672131148" type="line"/>
      <point x="256.0245901639344" y="613.5819672131148" type="line" smooth="yes"/>
      <point x="187.97540983606558" y="613.5819672131148"/>
      <point x="187.97540983606558" y="546.2459016393443" type="qcurve" smooth="yes"/>
      <point x="187.97540983606558" y="440.1803278688525" type="line"/>
      <point x="460.0245901639344" y="440.1803278688525" type="line"/>
      <point x="460.0245901639344" y="384.54918032786884" type="line"/>
      <point x="187.97540983606558" y="384.54918032786884" type="line"/>
      <point x="187.97540983606558" y="305.45081967213116" type="line"/>
      <point x="416.0245901639344" y="305.45081967213116" type="line"/>
      <point x="416.0245901639344" y="249.81967213114754" type="line"/>
      <point x="187.97540983606558" y="249.81967213114754" type="line"/>
      <point x="187.97540983606558" y="143.75409836065575" type="line" smooth="yes"/>
      <point x="187.97540983606558" y="76.41803278688525"/>
      <point x="256.0245901639344" y="76.41803278688525" type="qcurve" smooth="yes"/>
      <point x="534.0245901639345" y="76.41803278688525" type="line"/>
      <point x="534.0245901639345" y="35.040983606557376" type="line"/>
      <point x="488.827868852459" y="0.0" type="line"/>
      <point x="257.0081967213115" y="0.0" type="line" smooth="yes"/>
      <point x="103.82786885245902" y="0.0"/>
      <point x="103.82786885245902" y="153.18032786885246" type="qcurve" smooth="yes"/>
      <point x="103.82786885245902" y="249.81967213114754" type="line"/>
    </contour>
  </outline>
</glyph>
